<?xml version="1.0" encoding="UTF-8" standalone="no"?>
<!-- Created with Inkscape (http://www.inkscape.org/) -->

<svg
   width="147.29599mm"
   height="210.68779mm"
   viewBox="0 0 147.29599 210.68779"
   version="1.1"
   id="svg1"
   xml:space="preserve"
   xmlns="http://www.w3.org/2000/svg"
   xmlns:svg="http://www.w3.org/2000/svg"><defs
     id="defs1" /><g
     id="layer1"
     transform="translate(-31.029409,-28.374337)"><g
       id="g9"
       style="display:inline"><path
         id="rect6"
         style="display:inline;fill:#5f8dd3;stroke-width:0.729679;stroke-linecap:round;paint-order:markers fill stroke"
         d="M 166.36182,154.11548 V 34.220063 H 42.656016 V 154.41805 c 0,31.53422 61.851864,84.64407 61.851864,84.64407 0,0 61.85394,-54.2112 61.85394,-84.94664 z" /><rect
         style="display:inline;fill:#4d4d4d;stroke-width:0.773187;stroke-linecap:round;paint-order:markers fill stroke"
         id="rect9"
         width="147.29601"
         height="5.4660625"
         x="31.029413"
         y="28.77109" /><path
         id="path7"
         style="display:inline;fill:#333333;stroke-width:0.729679;stroke-linecap:round;paint-order:markers fill stroke"
         d="m 48.592396,28.374337 c 0,0 2.152651,1.696301 0.992958,3.704949 -1.159695,2.008649 -2.3014,2.301819 -2.3014,2.301819 l 26.59046,0.181833 c -0.597611,-0.17234 -1.384474,-0.5007 -2.409075,-1.092254 -3.256827,-1.880331 1.365422,-5.096347 1.365422,-5.096347 z m 39.871665,0 c 0,0 4.593563,1.696301 3.433874,3.704949 -1.159696,2.008649 -3.033664,2.301819 -3.033664,2.301819 l 31.840759,0.18267 c -0.59784,-0.172188 -1.38505,-0.500898 -2.41075,-1.093091 -3.25683,-1.880331 1.36542,-5.096347 1.36542,-5.096347 z m 44.211229,0 c 0,0 2.15265,1.696301 0.99296,3.704949 -1.1597,2.008649 -2.30182,2.301819 -2.30182,2.301819 l 28.59815,0.181833 c -0.59761,-0.17234 -1.38489,-0.5007 -2.40949,-1.092254 -3.25683,-1.880331 1.36584,-5.096347 1.36584,-5.096347 z m -58.800456,6.188601 c 1.301629,0.375259 1.704368,0.01005 1.704368,0.01005 z m 86.090166,0 c 1.30163,0.375259 1.70437,0.01005 1.70437,0.01005 z m -39.25955,8.37e-4 c 1.30019,0.374394 1.70269,0.0092 1.70269,0.0092 z" /><path
         id="path29"
         style="fill:#e6e6e6;stroke-width:0.670072;stroke-linecap:round;paint-order:markers fill stroke"
         d="m 104.775,74.612499 c -29.809568,2e-6 -53.974997,24.165433 -53.974997,53.975001 1e-6,29.80957 24.165429,53.975 53.974997,53.975 29.80957,0 53.975,-24.16543 53.975,-53.975 -3e-5,-1.4381 -0.0575,-2.87563 -0.17237,-4.30914 -2.05618,23.61427 -21.82547,41.73701 -45.52909,41.73706 -25.240218,0 -45.701455,-20.46124 -45.701456,-45.70146 4.9e-5,-23.703618 18.122789,-43.472908 41.737056,-45.529095 -1.43351,-0.114838 -2.87104,-0.17234 -4.30914,-0.172366 z M 85.31964,94.813111 c -1.43724,6.108259 -0.911091,14.817769 2.300003,22.991929 -0.943291,-0.27718 -2.106754,-0.8126 -3.082187,-1.84716 l -2.02222,-2.14456 c 1.47247,10.27246 8.707233,24.17234 20.571504,27.80047 -6.535902,2.30301 -16.837493,4.92019 -25.865967,2.78169 10.821055,14.35835 27.477247,13.73303 27.477247,13.73303 0,0 3.11151,0.39035 7.7072,-0.51094 4.59569,-0.90129 12.96516,-5.44027 16.82102,-10.75168 3.85586,-5.31142 7.58853,-16.38521 7.79338,-19.33493 0.34442,-4.95946 4.50712,-8.06601 8.03195,-9.82287 0.54274,-0.27052 2.89717,-0.44605 3.23031,-0.36128 0.33314,0.0848 0.51825,0.52902 0.51825,0.52902 0.27095,-0.35103 -0.0632,-3.08643 -0.41206,-3.38805 -0.34891,-0.30162 -1.07453,-0.50615 -1.92911,-0.62714 -0.85459,-0.12096 -4.80276,-0.39629 -4.80276,-0.39629 l -0.60136,-0.6352 c -1.12418,-1.18756 -3.34758,-1.71093 -5.28446,-1.8841 -2.02854,-0.18137 -3.51732,-0.16241 -6.72417,1.57322 -3.64877,1.97481 -6.69455,8.90221 -6.69455,8.90221 l -2.46544,0.35166 c -2.46533,0.35184 -6.57433,-1.10592 -13.37025,-3.67008 C 99.720051,115.53791 85.31964,94.813111 85.31964,94.813111 Z m 23.20431,43.717719 c 0.38699,0.1293 0.77928,0.25268 1.17693,0.36973 0,0 -0.19979,0.0995 -0.57404,0.27394 z" /></g></g></svg>
