<?xml version="1.0" encoding="UTF-8" standalone="no"?>
<!-- Created with Inkscape (http://www.inkscape.org/) -->

<svg
   width="147.29599mm"
   height="210.68779mm"
   viewBox="0 0 147.29599 210.68779"
   version="1.1"
   id="svg1"
   xmlns="http://www.w3.org/2000/svg"
   xmlns:svg="http://www.w3.org/2000/svg">
  <defs
     id="defs1" />
  <g
     id="layer1"
     transform="translate(-31.029409,-28.374337)">
    <g
       id="g9"
       style="display:inline">
      <path
         id="rect6"
         style="display:inline;fill:#ffdd55;stroke-width:0.729679;stroke-linecap:round;paint-order:markers fill stroke"
         d="M 166.36182,154.11548 V 34.220063 H 42.656016 V 154.41805 c 0,31.53422 61.851864,84.64407 61.851864,84.64407 0,0 61.85394,-54.2112 61.85394,-84.94664 z" />
      <g
         id="g3"
         transform="matrix(0.81075573,0,0,0.81075573,38.187726,-11.538513)"
         style="display:inline">
        <path
           style="fill:#000000;stroke-width:0.74355;stroke-linecap:round;paint-order:markers fill stroke"
           d="m 58.670776,191.16075 c 0,0 -3.963899,0.46426 -8.280248,4.78061 -4.316346,4.31634 -13.83348,7.2155 -19.276416,9.58405 -4.723855,2.05563 -9.462648,1.83322 -9.967305,4.10417 0,0 -2.281099,9.76849 9.380992,10.99336 11.14116,1.17016 37.973586,28.56294 48.663898,20.08119 10.473807,-8.30999 5.051256,-39.17768 3.224719,-43.38709 -1.801047,-4.15068 -17.015241,-7.40265 -23.74564,-6.15629 z"
           id="path2" />
        <path
           style="fill:#000000;stroke-width:0.657424;stroke-linecap:round;paint-order:markers fill stroke"
           d="m 82.359108,205.56615 c 13.625532,-1.50918 17.338139,-17.17439 15.668724,-17.7097 -6.696803,2.09069 -20.302675,0.89295 -22.68869,9.90352 -0.545239,2.71943 7.019966,7.80618 7.019966,7.80618 z"
           id="path3" />
        <path
           id="path4"
           style="fill:#000000;stroke-width:0.899999;stroke-linecap:round;paint-order:markers fill stroke"
           d="m 143.02602,106.8121 c 0,0 0.60418,2.16109 1.46305,5.64939 0.85888,3.48827 0.58144,6.24599 -1.16604,9.99701 -2.57687,5.53133 -7.14715,6.26533 -8.97783,6.32707 3.14986,-16.97854 -17.94543,-25.68476 -19.19064,-26.08445 9.98641,5.77862 16.20527,13.90223 15.31073,21.56742 -1.91253,16.38841 -11.31955,30.77962 -22.34954,40.21761 -0.95715,-2.00298 -11.008791,-13.94907 -11.827327,-25.90793 -0.868594,-12.69017 0.123272,-19.1429 -0.94099,-16.282 -1.064262,2.86089 -1.309171,10.73582 -1.39624,12.50787 -0.845118,17.19965 8.940487,27.26135 8.988297,33.60355 -8.78396,12.78209 -28.27607,16.03182 -37.217891,15.06841 -14.224458,-1.53256 -21.293477,-20.13636 -21.497018,-19.08365 -0.466589,2.41319 3.74105,20.792 19.818825,23.20437 2.36634,4.51769 0.630679,4.31984 0.945497,7.59217 l 7.120841,5.4659 c 0.253176,-4.20109 -2.189451,-7.80479 2.174318,-12.48943 34.100138,-5.21536 48.787588,-29.90151 58.508378,-53.33615 1.43276,-0.44687 3.70471,-1.2533 5.52605,-2.34956 2.89214,-1.74081 3.86977,-2.82961 5.33146,-5.10257 1.46171,-2.27292 2.57344,-5.38004 3.09738,-8.08984 0.63181,-4.33538 -1.92691,-8.65572 -3.72131,-12.47519 z" />
        <path
           id="path6"
           style="fill:#000000;stroke-width:0.899999;stroke-linecap:round;paint-order:markers fill stroke"
           d="m 117.37573,90.367456 c 0,0 1.14292,1.931079 2.87537,5.078225 1.73244,3.14712 2.1782,5.882679 1.4611,9.958159 -1.05745,6.0098 -5.28203,7.90167 -7.03435,8.43512 -1.35184,-17.215259 -23.98166,-20.164954 -25.287888,-20.228741 11.141748,2.997042 19.251258,9.234291 20.371088,16.869821 2.39427,16.32498 -2.96749,32.66054 -11.178913,44.63171 -1.44295,-1.687 -14.243964,-10.62448 -18.129789,-21.964 -4.123456,-12.03295 -4.835476,-18.52253 -5.123019,-15.48366 -0.287545,3.03886 1.514073,10.70885 1.888611,12.44305 3.635276,16.83232 15.691607,24.01848 17.379267,30.1322 -5.176406,14.62 -23.163246,22.80393 -32.049731,24.18766 -14.136427,2.20122 -25.779593,-13.93907 -25.703737,-12.86955 0.17389,2.45172 8.994943,19.11527 25.149248,17.28421 3.454973,3.7513 1.727246,4.00941 2.878278,7.08876 l 8.292884,3.43664 c -0.842773,-4.12346 -4.134876,-6.97217 -1.132273,-12.62661 31.588374,-13.86342 39.386114,-41.5098 42.710344,-66.66185 1.26828,-0.80247 3.2541,-2.16945 4.72965,-3.69975 2.34303,-2.43003 3.00555,-3.73476 3.82915,-6.30859 0.82363,-2.57379 1.09329,-5.86277 0.89803,-8.61584 -0.51179,-4.351179 -4.10151,-7.862064 -6.82332,-11.086964 z" />
      </g>
      <rect
         style="display:inline;fill:#4d4d4d;stroke-width:0.773187;stroke-linecap:round;paint-order:markers fill stroke"
         id="rect9"
         width="147.29601"
         height="5.4660625"
         x="31.029413"
         y="28.77109" />
      <path
         id="path7"
         style="display:inline;fill:#ffeeaa;stroke-width:0.729679;stroke-linecap:round;paint-order:markers fill stroke"
         d="m 48.592396,28.374337 c 0,0 2.152651,1.696301 0.992958,3.704949 -1.159695,2.008649 -2.3014,2.301819 -2.3014,2.301819 l 31.106819,0.181833 c -0.597611,-0.17234 -1.384474,-0.5007 -2.409075,-1.092254 -3.256827,-1.880331 1.365422,-5.096347 1.365422,-5.096347 z m 39.871665,0 c 0,0 4.593563,1.696301 3.433874,3.704949 -1.159696,2.008649 -4.539117,2.301819 -4.539117,2.301819 l 33.346212,0.18267 c -0.59784,-0.172188 -1.38505,-0.500898 -2.41075,-1.093091 -3.25683,-1.880331 1.36542,-5.096347 1.36542,-5.096347 z m 41.702139,0 c 0,0 2.15265,1.696301 0.99296,3.704949 -1.1597,2.008649 -2.30182,2.301819 -2.30182,2.301819 l 31.10724,0.181833 c -0.59761,-0.17234 -1.38489,-0.5007 -2.40949,-1.092254 -3.25683,-1.880331 1.36584,-5.096347 1.36584,-5.096347 z m -51.775007,6.188601 c 1.301629,0.375259 1.704368,0.01005 1.704368,0.01005 z m 81.573807,0 c 1.30163,0.375259 1.70437,0.01005 1.70437,0.01005 z m -39.25955,8.37e-4 c 1.30019,0.374394 1.70269,0.0092 1.70269,0.0092 z" />
    </g>
  </g>
</svg>
