<?xml version="1.0" encoding="UTF-8" standalone="no"?>
<!-- Created with Inkscape (http://www.inkscape.org/) -->

<svg
   width="147.29599mm"
   height="210.68779mm"
   viewBox="0 0 147.29599 210.68779"
   version="1.1"
   id="svg1"
   xml:space="preserve"
   xmlns="http://www.w3.org/2000/svg"
   xmlns:svg="http://www.w3.org/2000/svg"><defs
     id="defs1" /><g
     id="layer1"
     transform="translate(-31.029409,-28.374337)"><g
       id="g9"
       style="display:inline"><path
         id="rect6"
         style="display:inline;fill:#1a1a1a;stroke-width:0.729679;stroke-linecap:round;paint-order:markers fill stroke"
         d="M 166.36182,154.11548 V 34.220063 H 42.656016 V 154.41805 c 0,31.53422 61.851864,84.64407 61.851864,84.64407 0,0 61.85394,-54.2112 61.85394,-84.94664 z" /><rect
         style="display:inline;fill:#4d4d4d;stroke-width:0.773187;stroke-linecap:round;paint-order:markers fill stroke"
         id="rect9"
         width="147.29601"
         height="5.4660625"
         x="31.029413"
         y="28.77109" /><path
         id="path7"
         style="display:inline;fill:#666666;stroke-width:0.729679;stroke-linecap:round;paint-order:markers fill stroke"
         d="m 48.592396,28.374337 c 0,0 2.152651,1.696301 0.992958,3.704949 -1.159695,2.008649 -2.3014,2.301819 -2.3014,2.301819 l 26.59046,0.181833 c -0.597611,-0.17234 -1.384474,-0.5007 -2.409075,-1.092254 -3.256827,-1.880331 1.365422,-5.096347 1.365422,-5.096347 z m 39.871665,0 c 0,0 4.593563,1.696301 3.433874,3.704949 -1.159696,2.008649 -3.033664,2.301819 -3.033664,2.301819 l 31.840759,0.18267 c -0.59784,-0.172188 -1.38505,-0.500898 -2.41075,-1.093091 -3.25683,-1.880331 1.36542,-5.096347 1.36542,-5.096347 z m 44.211229,0 c 0,0 2.15265,1.696301 0.99296,3.704949 -1.1597,2.008649 -2.30182,2.301819 -2.30182,2.301819 l 28.59815,0.181833 c -0.59761,-0.17234 -1.38489,-0.5007 -2.40949,-1.092254 -3.25683,-1.880331 1.36584,-5.096347 1.36584,-5.096347 z m -58.800456,6.188601 c 1.301629,0.375259 1.704368,0.01005 1.704368,0.01005 z m 86.090166,0 c 1.30163,0.375259 1.70437,0.01005 1.70437,0.01005 z m -39.25955,8.37e-4 c 1.30019,0.374394 1.70269,0.0092 1.70269,0.0092 z" /><g
         id="g17"
         transform="matrix(0.76864257,0,0,0.76864257,-151.02945,26.306342)"><path
           id="path11"
           style="fill:#ffcc00;stroke-width:0.776312;stroke-linecap:round;paint-order:markers fill stroke"
           d="m 333.34698,38.263814 c 0,0 -19.23755,0.499511 -25.82559,11.910312 -6.58804,11.410804 -10.6961,13.952271 -10.6961,13.952271 0,0 6.49248,6.059909 9.52246,11.686994 3.02996,5.627085 6.49314,14.28449 6.92598,18.180163 0.43288,3.895675 0.86549,17.963056 2.59692,24.022996 1.7314,6.05994 9.53255,16.25855 13.6349,22.72498 2.99058,4.71398 3.7526,4.77441 3.83697,4.76323 v 8.9e-4 l 4.5e-4,-4.4e-4 h 4.5e-4 4.4e-4 c 0.0443,-0.007 0.54521,0.32715 3.86862,-4.76368 4.18621,-6.41246 11.90351,-16.66504 13.63491,-22.72498 1.73142,-6.05994 2.16448,-20.127321 2.59735,-24.022996 0.43285,-3.895673 3.89559,-12.553078 6.92555,-18.180163 3.02998,-5.627085 9.52289,-11.686994 9.52289,-11.686994 0,0 -4.10805,-2.541467 -10.6961,-13.952271 -6.58803,-11.410801 -25.82603,-11.910312 -25.82603,-11.910312 l -0.021,79.329276 z" /><path
           style="fill:#ffcc00;stroke-width:0.825198;stroke-linecap:round;paint-order:markers fill stroke"
           d="m 332.31782,122.39346 c 0,0 -0.58043,7.36823 6.63631,13.31313 7.21675,5.94489 28.78554,12.97213 38.62974,-1.07359 9.84422,-14.04574 6.05304,-22.80824 0.17273,-32.93658 -5.88031,-10.128339 -6.94946,-24.197815 -2.1383,-29.922527 4.81116,-5.724713 11.76062,-9.687976 15.50265,-9.687976 0,0 4.40073,2.459772 10.28105,-0.182403 5.88031,-2.642175 4.68701,-9.087338 4.68701,-9.087338 0,0 -40.62761,3.082537 -40.09304,27.742839 0.53458,24.660305 11.57162,33.547685 7.29504,42.795305 -4.2766,9.24761 -26.54742,19.62185 -40.97319,-0.96086 z"
           id="path12" /><path
           style="fill:#ffcc00;stroke-width:0.820333;stroke-linecap:round;paint-order:markers fill stroke"
           d="m 333.67666,122.63369 c 0,0 0.58043,7.28161 -6.63631,13.1566 -7.21675,5.87499 -28.78554,12.81959 -38.62974,-1.06098 -9.84422,-13.88058 -6.05304,-22.54005 -0.17273,-32.5493 5.88031,-10.009248 6.94946,-23.913292 2.1383,-29.570692 -4.81116,-5.657401 -11.76062,-9.574063 -15.50265,-9.574063 0,0 -4.40073,2.430849 -10.28105,-0.180258 -5.88031,-2.611108 -4.68701,-8.980488 -4.68701,-8.980488 0,0 40.62761,3.046292 40.09304,27.416634 -0.53458,24.370337 -11.57162,33.153237 -7.29504,42.292117 4.2766,9.13888 26.54742,19.39112 40.97319,-0.94957 z"
           id="path13" /><path
           style="fill:#ffcc00;stroke-width:0.867537;stroke-linecap:round;paint-order:markers fill stroke"
           d="m 340.88809,128.29581 c 3.24402,20.37894 59.31342,38.12616 35.81812,66.97495 -3.70778,4.55261 -11.15522,2.61203 -11.15522,2.61203 0,0 0.49849,-5.15752 5.07759,-6.9178 2.13911,-0.8223 17.99091,-8.53358 -9.32974,-29.40332 -7.09467,-5.41949 -35.21186,-21.32558 -20.41075,-33.26586 z"
           id="path14" /><path
           style="fill:#ffcc00;stroke-width:0.867537;stroke-linecap:round;paint-order:markers fill stroke"
           d="m 325.09546,129.73853 c -3.24402,20.37895 -58.59206,36.68344 -35.09676,65.53223 3.70777,4.55261 11.15522,2.61203 11.15522,2.61203 0,0 -0.4985,-5.15752 -5.07759,-6.9178 -2.13911,-0.8223 -17.99091,-8.53358 9.32974,-29.40332 7.09467,-5.41949 34.4905,-19.88286 19.68939,-31.82314 z"
           id="path15" /><path
           style="fill:#ffcc00;stroke-width:0.899999;stroke-linecap:round;paint-order:markers fill stroke"
           d="m 332.85171,141.31759 c 0,0 -0.26564,7.68179 -2.79926,11.90494 -1.88068,3.13487 -29.82042,19.29527 -17.45667,28.76514 5.07605,3.88796 7.42091,5.00562 7.42091,5.00562 6.77371,-0.89872 8.99411,6.10155 7.7023,8.05199 -9.16276,-3.49615 -28.56648,-7.71676 -23.17822,-23.14415 5.11428,-14.64293 26.52296,-18.70824 21.17737,-33.73441 l -0.99612,-2.80015 z"
           id="path16" /><path
           style="fill:#ffcc00;stroke-width:0.899999;stroke-linecap:round;paint-order:markers fill stroke"
           d="m 333.91972,141.1853 c 0,0 0.26564,7.68179 2.79926,11.90494 1.88068,3.13487 29.82042,19.29527 17.45667,28.76514 -5.07605,3.88796 -7.42091,5.00562 -7.42091,5.00562 -6.77371,-0.89872 -8.99411,6.10155 -7.7023,8.05199 9.16276,-3.49615 28.56648,-7.71676 23.17822,-23.14415 -5.11428,-14.64293 -26.52296,-18.70824 -21.17737,-33.73441 l 0.99612,-2.80015 z"
           id="path17" /></g></g></g></svg>
