<?xml version="1.0" encoding="UTF-8" standalone="no"?>
<!-- Created with Inkscape (http://www.inkscape.org/) -->

<svg
   width="147.29599mm"
   height="210.68779mm"
   viewBox="0 0 147.29599 210.68779"
   version="1.1"
   id="svg1"
   xml:space="preserve"
   xmlns="http://www.w3.org/2000/svg"
   xmlns:svg="http://www.w3.org/2000/svg"><defs
     id="defs1" /><g
     id="layer1"
     transform="translate(-31.029409,-28.374337)"><g
       id="g9"
       style="display:inline"><path
         id="rect6"
         style="display:inline;fill:#aa0000;stroke-width:0.729679;stroke-linecap:round;paint-order:markers fill stroke"
         d="M 166.36182,154.11548 V 34.220063 H 42.656016 V 154.41805 c 0,31.53422 61.851864,84.64407 61.851864,84.64407 0,0 61.85394,-54.2112 61.85394,-84.94664 z" /><rect
         style="display:inline;fill:#4d4d4d;stroke-width:0.773187;stroke-linecap:round;paint-order:markers fill stroke"
         id="rect9"
         width="147.29601"
         height="5.4660625"
         x="31.029413"
         y="28.77109" /><path
         id="path7"
         style="display:inline;fill:#c83737;stroke-width:0.729679;stroke-linecap:round;paint-order:markers fill stroke"
         d="m 48.592396,28.374337 c 0,0 2.152651,1.696301 0.992958,3.704949 -1.159695,2.008649 -2.3014,2.301819 -2.3014,2.301819 l 26.59046,0.181833 c -0.597611,-0.17234 -1.384474,-0.5007 -2.409075,-1.092254 -3.256827,-1.880331 1.365422,-5.096347 1.365422,-5.096347 z m 39.871665,0 c 0,0 4.593563,1.696301 3.433874,3.704949 -1.159696,2.008649 -3.033664,2.301819 -3.033664,2.301819 l 31.840759,0.18267 c -0.59784,-0.172188 -1.38505,-0.500898 -2.41075,-1.093091 -3.25683,-1.880331 1.36542,-5.096347 1.36542,-5.096347 z m 44.211229,0 c 0,0 2.15265,1.696301 0.99296,3.704949 -1.1597,2.008649 -2.30182,2.301819 -2.30182,2.301819 l 28.59815,0.181833 c -0.59761,-0.17234 -1.38489,-0.5007 -2.40949,-1.092254 -3.25683,-1.880331 1.36584,-5.096347 1.36584,-5.096347 z m -58.800456,6.188601 c 1.301629,0.375259 1.704368,0.01005 1.704368,0.01005 z m 86.090166,0 c 1.30163,0.375259 1.70437,0.01005 1.70437,0.01005 z m -39.25955,8.37e-4 c 1.30019,0.374394 1.70269,0.0092 1.70269,0.0092 z" /><path
         style="fill:#ffcc00;stroke-width:0.899999;stroke-linecap:round;paint-order:markers fill stroke"
         d="m 91.810411,132.68853 c -2.24895,0.52917 -12.125435,3.78717 -15.829605,3.91946 -3.70416,0.13229 -8.99583,-0.52917 -8.99583,-0.52917 0,0 -0.66146,-0.66145 -1.45521,-3.175 -0.79375,-2.51354 -0.26458,-8.20208 -0.26458,-8.20208 0,0 0.26458,2.11667 1.45521,3.70417 1.19062,1.5875 1.45521,1.19062 4.23333,0.92604 2.77813,-0.26458 8.288985,-4.8455 10.141065,-7.22675 1.85208,-2.38125 -6.48229,-6.87917 -8.73125,-7.14375 -2.24896,-0.26459 -6.61458,0 -7.80521,1.45521 -1.19062,1.4552 -1.05833,6.87916 -1.05833,6.87916 l -2.64584,-5.29166 c -2.64583,-5.29167 -2.11666,-10.58334 -2.11666,-10.58334 0,0 0.52917,-1.85208 2.91042,-2.64583 2.38125,-0.79375 11.50937,-4.76249 13.62604,-7.011447 2.11666,-2.24896 2.77812,-9.525003 6.21771,-13.096878 3.43958,-3.571875 9.92187,-6.482291 9.92187,-6.482291 0,0 0.23248,0.411547 3.30729,-3.307292 6.305129,-7.625762 15.505329,-6.697477 18.980539,-1.050308 -1.47002,-1.588598 -2.994,-1.65251 -4.92025,-1.330942 0,0 5.78346,3.175 8.69388,3.175 2.91042,0 8.86354,-0.661458 12.83229,3.439583 3.96875,4.101042 5.02708,7.14375 5.02708,7.14375 -1.08413,-0.403829 -3.26646,-1.611942 -3.86953,-0.826823 7.08077,4.390457 9.20473,6.270497 16.17266,18.686188 -2.85096,-1.69834 -4.88313,-2.23794 -5.95313,0.26458 0,0 3.34037,1.09141 4.3987,4.63022 1.00359,3.35574 0.0661,6.44921 0.0661,6.44921 -0.72145,-2.34174 -2.30818,-3.52649 -3.27422,-3.93568 0,0 -1.19063,3.3073 0.13229,4.36563 1.32292,1.05833 2.41059,1.25207 4.23333,4.80125 1.49511,2.91123 -0.66145,9.65729 -0.66145,9.65729 -4.61967,-5.09565 -8.3133,3.31783 -8.04871,4.77304 0.26458,1.45521 1.45521,8.59896 -0.79375,11.90625 -2.24896,3.30729 -10.05417,8.86354 -10.84792,13.22917 -0.79375,4.36562 -3.32837,9.47571 -7.29712,11.1955 l -3.96875,1.71979 c 0,0 -1.45521,-2.64583 -3.96875,-3.30729 -2.51355,-0.66146 -5.02709,-0.66146 -5.15938,-3.04271 -0.13229,-2.38125 0.26458,-4.10104 -4.10104,-5.42396 -4.365629,-1.32291 -9.921879,-5.29166 -9.524999,-8.33437 0.39687,-3.04271 0.79375,-3.83646 -0.92604,-6.74688 -1.71979,-2.91041 -2.91042,-4.36562 -1.85209,-7.80521 1.05834,-3.43958 0.52917,-6.35 0.52917,-6.35 0,0 3.43958,0 1.19062,0.52917 z"
         id="path18" /></g></g></svg>
