<?xml version="1.0" encoding="UTF-8" standalone="no"?>
<!-- Created with Inkscape (http://www.inkscape.org/) -->

<svg
   width="147.29599mm"
   height="210.68779mm"
   viewBox="0 0 147.29599 210.68779"
   version="1.1"
   id="svg1"
   xmlns="http://www.w3.org/2000/svg"
   xmlns:svg="http://www.w3.org/2000/svg">
  <defs
     id="defs1" />
  <g
     id="layer1"
     transform="translate(-29.477846,-18.955821)">
    <path
       id="rect6"
       style="display:inline;fill:#ff7f2a;stroke-width:0.729679;stroke-linecap:round;paint-order:markers fill stroke"
       d="M 164.81026,144.69696 V 24.801541 H 41.104454 V 144.99953 c 0,31.53422 61.851866,84.64407 61.851866,84.64407 0,0 61.85394,-54.2112 61.85394,-84.94664 z" />
    <rect
       style="display:inline;fill:#4d4d4d;stroke-width:0.773187;stroke-linecap:round;paint-order:markers fill stroke"
       id="rect9"
       width="147.29601"
       height="5.4660625"
       x="29.47785"
       y="19.352573" />
    <path
       id="path7"
       style="display:inline;fill:#ff9955;stroke-width:0.729679;stroke-linecap:round;paint-order:markers fill stroke"
       d="m 47.040834,18.955821 c 0,0 2.152651,1.6963 0.992958,3.70495 -1.159695,2.00864 -2.3014,2.30181 -2.3014,2.30181 l 26.59046,0.18184 c -0.597611,-0.17234 -1.384474,-0.5007 -2.409075,-1.09226 -3.256827,-1.88033 1.365422,-5.09634 1.365422,-5.09634 z m 39.871665,0 c 0,0 4.593563,1.6963 3.433874,3.70495 -1.159696,2.00864 -3.033664,2.30181 -3.033664,2.30181 l 31.840761,0.18267 c -0.59784,-0.17218 -1.38505,-0.50089 -2.41075,-1.09309 -3.25683,-1.88033 1.36542,-5.09634 1.36542,-5.09634 z m 44.211231,0 c 0,0 2.15265,1.6963 0.99296,3.70495 -1.1597,2.00864 -2.30182,2.30181 -2.30182,2.30181 l 28.59815,0.18184 c -0.59761,-0.17234 -1.38489,-0.5007 -2.40949,-1.09226 -3.25683,-1.88033 1.36584,-5.09634 1.36584,-5.09634 z m -58.800458,6.1886 c 1.301629,0.37526 1.704368,0.01 1.704368,0.01 z m 86.090168,0 c 1.30163,0.37526 1.70437,0.01 1.70437,0.01 z m -39.25955,8.3e-4 c 1.30019,0.3744 1.70269,0.009 1.70269,0.009 z" />
    <g
       id="g29"
       transform="matrix(0.7884654,0,0,0.7884654,-99.508955,-0.36525886)"
       style="display:inline">
      <path
         id="path28"
         style="fill:#c8ab37;stroke-width:1.02495;stroke-linecap:round;paint-order:markers fill stroke"
         d="m 317.40722,76.021363 -0.052,0.06708 -20.80804,15.803481 c 2.41768,-0.30608 2.9852,0.901024 2.9852,0.901024 l -53.85216,68.106692 c 1.29356,2.39541 3.50814,3.76324 6.1276,4.67936 l 53.85269,-68.10735 c 0,0 1.31051,0.249373 1.61659,2.66705 z" />
      <path
         id="path17"
         style="display:inline;fill:#c83737;stroke-width:0.73803;stroke-linecap:round;paint-order:markers fill stroke"
         d="m 256.85316,93.132678 v 0.0017 c -0.0523,0.110445 -2.49513,5.288122 -2.49513,9.313932 0,4.06938 0.74804,4.62379 0,7.41546 -0.48077,1.79428 -1.53619,3.80638 -2.26756,5.82634 -1.22501,-1.74844 -2.75039,-3.40704 -3.67277,-5.00466 -1.4451,-2.50295 -0.866,-3.23218 -1.91923,-7.1629 -1.04196,-3.888633 -4.74205,-8.257572 -4.82117,-8.350711 h -4.2e-4 -4.3e-4 v 4.24e-4 c -0.022,0.120233 -1.04108,5.753717 8.5e-4,9.642347 1.05323,3.93071 1.91924,4.27274 1.91923,7.16289 1e-5,1.94826 -0.54851,4.29124 -0.70684,6.52725 -1.69304,-1.46914 -3.73808,-2.73798 -5.11569,-4.1156 -2.04366,-2.04364 -1.67283,-2.89798 -3.70751,-6.42217 -2.01291,-3.48644 -6.71784,-6.74888 -6.81838,-6.81837 l -8.4e-4,-4.2e-4 v 4.2e-4 4.2e-4 c 0.01,0.12182 0.48349,5.82749 2.49639,9.31393 2.03469,3.5242 2.9595,3.63005 3.70752,6.42173 0.50426,1.88188 0.58107,4.28747 1.00687,6.48826 -2.01555,-0.98084 -4.31927,-1.67739 -6.00645,-2.6515 -2.50296,-1.44506 -2.36576,-2.36617 -5.24324,-5.24366 -2.84667,-2.84667 -8.23561,-4.78007 -8.3507,-4.82117 l -0.002,-8.5e-4 v 4.3e-4 l 4.3e-4,4.2e-4 4.1e-4,4.2e-4 c 0.0411,0.1151 1.97493,5.50362 4.8216,8.35029 2.87749,2.87749 3.79817,2.74071 5.24324,5.24367 0.97416,1.68728 1.67099,3.99079 2.65192,6.00644 -2.20079,-0.4258 -4.60638,-0.50262 -6.48826,-1.00686 -2.79167,-0.74801 -2.89754,-1.67282 -6.42173,-3.70752 -3.48645,-2.0129 -9.1921,-2.48606 -9.31392,-2.49597 h -8.5e-4 l 8.5e-4,8.4e-4 c 0.0695,0.10055 3.33192,4.80506 6.81837,6.81795 3.52419,2.03469 4.37852,1.66386 6.42216,3.70751 1.37759,1.37757 2.64652,3.42225 4.11559,5.11526 -2.23594,0.15835 -4.57904,0.70687 -6.52724,0.70686 -2.89016,1e-5 -3.23218,-0.86601 -7.1629,-1.91925 -3.88863,-1.04194 -9.52212,-0.022 -9.64234,0 h -8.4e-4 l -4.3e-4,4.3e-4 10e-4,4.2e-4 c 0.0931,0.0791 4.46209,3.7788 8.35071,4.82075 3.93073,1.05324 4.65995,0.47414 7.16289,1.91923 1.5974,0.92224 3.25565,2.44744 5.00382,3.67234 -2.02036,0.73139 -4.03298,1.78713 -5.82762,2.26799 -2.79167,0.74804 -3.34607,1e-5 -7.41545,0 -4.0258,1e-5 -9.20349,2.44323 -9.31393,2.49555 l -8.4e-4,4.2e-4 v 4.3e-4 h 4.2e-4 4.2e-4 c 0.0157,0.007 0.13417,0.0634 0.33732,0.15383 -0.20249,0.0901 -0.32035,0.14554 -0.33605,0.15298 h -0.002 c 0,0 3.1e-4,1.4e-4 8.5e-4,4.2e-4 -6e-4,2.8e-4 -8.5e-4,4.2e-4 -8.5e-4,4.2e-4 h 10e-4 c 0.11045,0.0523 5.28812,2.49513 9.31393,2.49513 4.06938,0 4.62378,-0.74804 7.41546,0 1.79429,0.48077 3.80637,1.53619 5.82633,2.26757 -1.74842,1.22501 -3.40704,2.75081 -5.00466,3.67319 -2.50294,1.4451 -3.23217,0.866 -7.16289,1.91923 -3.88863,1.04196 -8.25757,4.74204 -8.35071,4.82117 v 4.2e-4 4.3e-4 h 4.3e-4 c 0.12023,0.022 5.75372,1.04107 9.64234,-8.5e-4 3.93072,-1.05324 4.27274,-1.91924 7.16289,-1.91923 1.94827,-10e-6 4.29124,0.54851 6.52725,0.70684 -1.46914,1.69304 -2.73797,3.73808 -4.11561,5.11569 -2.04364,2.04366 -2.89796,1.67283 -6.42215,3.70751 -3.48644,2.01291 -6.74888,6.71784 -6.81837,6.81838 l -4.2e-4,8.4e-4 h 4.2e-4 4.2e-4 c 0.12182,-0.01 5.82748,-0.4835 9.31392,-2.4964 3.52419,-2.03469 3.63006,-2.95949 6.42174,-3.70751 1.88186,-0.50426 4.28747,-0.58107 6.48826,-1.00687 -0.98084,2.01555 -1.67739,4.31927 -2.6515,6.00645 -1.44507,2.50296 -2.36617,2.36575 -5.24366,5.24323 -2.84667,2.84667 -4.78008,8.23562 -4.82118,8.35071 l -4.1e-4,0.001 h 4.1e-4 l 4.3e-4,-4.2e-4 c 0.1151,-0.0411 5.50361,-1.97493 8.35028,-4.82159 2.87749,-2.87749 2.74072,-3.79818 5.24367,-5.24325 1.68728,-0.97416 3.9908,-1.67098 6.00644,-2.65191 -0.4258,2.20079 -0.50261,4.60639 -1.00686,6.48825 -0.74802,2.79169 -1.67283,2.89755 -3.70752,6.42174 -2.0129,3.48645 -2.48607,9.19211 -2.49597,9.31392 v 8.6e-4 l 8.4e-4,-8.6e-4 c 0.10055,-0.0695 4.80505,-3.33193 6.81795,-6.81837 2.0347,-3.5242 1.66386,-4.37852 3.70752,-6.42215 1.37757,-1.37759 3.42225,-2.64652 5.11526,-4.1156 0.15834,2.23595 0.70685,4.57905 0.70684,6.52725 2e-5,2.89016 -0.86599,3.23217 -1.91923,7.16289 -1.04195,3.88863 -0.022,9.52213 0,9.64235 v 8.4e-4 l 4.3e-4,4.3e-4 4.2e-4,-0.001 c 0.0791,-0.0931 3.7788,-4.46209 4.82075,-8.35071 1.05324,-3.93073 0.47414,-4.65996 1.91923,-7.1629 0.92224,-1.5974 2.44744,-3.25606 3.67234,-5.00424 0.73139,2.02036 1.78713,4.03298 2.26799,5.82762 0.74804,2.79168 1e-5,3.34608 0,7.41546 1e-5,4.0258 2.44323,9.20348 2.49555,9.31392 l 4.2e-4,8.5e-4 h 4.3e-4 v -4.2e-4 -4.3e-4 c 0.007,-0.0157 0.063,-0.13416 0.1534,-0.33732 0.0901,0.20249 0.14597,0.32078 0.1534,0.33648 v 0.002 c 0,0 1.4e-4,-3.1e-4 4.3e-4,-8.5e-4 2.8e-4,6e-4 4.2e-4,8.5e-4 4.2e-4,8.5e-4 v -0.001 c 0.0523,-0.11045 2.49513,-5.28811 2.49513,-9.31392 0,-4.06938 -0.74804,-4.62378 0,-7.41546 0.48077,-1.79429 1.53619,-3.80637 2.26756,-5.82634 1.22501,1.74843 2.75082,3.40662 3.67319,5.00424 1.4451,2.50295 0.86601,3.23217 1.91924,7.16289 1.04196,3.88863 4.74204,8.25757 4.82116,8.35071 h 4.3e-4 v 4.3e-4 h 4.3e-4 4.1e-4 l -4.1e-4,-8.5e-4 c 0.022,-0.12023 1.04107,-5.75372 -8.6e-4,-9.64234 -1.05323,-3.93073 -1.91923,-4.27275 -1.91922,-7.1629 -1e-5,-1.94826 0.54851,-4.29123 0.70683,-6.52725 1.69305,1.46914 3.73808,2.73798 5.11569,4.11561 2.04367,2.04364 1.67283,2.89796 3.70752,6.42215 2.01291,3.48644 6.71784,6.74889 6.81838,6.81838 l 8.4e-4,4.1e-4 v -4.1e-4 -4.3e-4 c -0.01,-0.12183 -0.4835,-5.82748 -2.4964,-9.31392 -2.03469,-3.52419 -2.9595,-3.63006 -3.70752,-6.42174 -0.50425,-1.88186 -0.58106,-4.28746 -1.00686,-6.48826 2.01555,0.98085 4.31926,1.67739 6.00644,2.6515 2.50296,1.44507 2.36575,2.36617 5.24324,5.24367 2.84667,2.84666 8.23562,4.78007 8.35071,4.82117 l 0.001,8.4e-4 c -8e-5,-1.4e-4 -3.2e-4,-5.9e-4 -4.3e-4,-8.4e-4 l -4.1e-4,-4.3e-4 c -0.0411,-0.1151 -1.97493,-5.50361 -4.8216,-8.35028 -2.87749,-2.87749 -3.79817,-2.74071 -5.24324,-5.24366 -0.97416,-1.68728 -1.67099,-3.99081 -2.65192,-6.00645 2.20079,0.4258 4.60639,0.50261 6.48826,1.00687 2.79168,0.74801 2.89754,1.67282 6.42173,3.70751 3.48645,2.0129 9.1921,2.48608 9.31392,2.49598 h 8.5e-4 c 1.7e-4,1e-5 7e-4,0 8.5e-4,0 l -0.002,-8.5e-4 c -0.0695,-0.10054 -3.33192,-4.80505 -6.81837,-6.81795 -3.52419,-2.03469 -4.37852,-1.66386 -6.42216,-3.70751 -1.37759,-1.37757 -2.64652,-3.42226 -4.11559,-5.11528 2.23594,-0.15834 4.57904,-0.70685 6.52724,-0.70684 2.89016,-2e-5 3.23218,0.86601 7.1629,1.91923 3.88863,1.04195 9.52212,0.022 9.64234,0 h 8.5e-4 4.2e-4 4.2e-4 v -4.1e-4 l -0.002,-4.2e-4 c -0.0931,-0.0791 -4.46209,-3.7788 -8.35071,-4.82075 -3.93073,-1.05324 -4.65995,-0.47414 -7.16289,-1.91923 -1.59738,-0.92224 -3.25566,-2.44704 -5.00382,-3.67192 2.02041,-0.73139 4.03294,-1.78712 5.82762,-2.268 0.34881,-0.0935 0.66286,-0.16371 0.95304,-0.21486 0.29028,-0.0511 0.55702,-0.0833 0.81109,-0.10085 0.50813,-0.0351 0.96641,-0.0116 1.46452,0.0352 0.99624,0.0935 2.15211,0.28052 4.18681,0.28052 1.00631,0 2.08484,-0.15283 3.13797,-0.38265 0.23248,-0.0507 0.43039,-0.12902 0.65938,-0.18646 1.84584,-0.46306 3.57767,-1.0939 4.58089,-1.51454 0.56385,-0.2364 0.90807,-0.39881 0.93568,-0.41189 l 8.4e-4,-4.3e-4 -4.2e-4,-4.2e-4 h -4.2e-4 c -0.0157,-0.007 -0.13424,-0.0635 -0.33732,-0.15383 0.20238,-0.0901 0.32036,-0.14596 0.33605,-0.1534 h 0.002 c 0,0 -3.1e-4,-1.4e-4 -8.5e-4,-4.3e-4 6e-4,-2.8e-4 8.5e-4,-4.2e-4 8.5e-4,-4.2e-4 h -8.5e-4 c -0.11045,-0.0523 -5.28811,-2.49512 -9.31392,-2.49512 -4.06938,0 -4.62378,0.74803 -7.41546,0 -1.79428,-0.48077 -3.8064,-1.5362 -5.82634,-2.26757 1.74841,-1.225 3.40664,-2.75041 5.00424,-3.67277 2.50294,-1.44509 3.23217,-0.866 7.16289,-1.91923 3.88863,-1.04196 8.25757,-4.74205 8.35071,-4.82117 v -4.2e-4 l 4.2e-4,-4.3e-4 v -4.1e-4 l -8.4e-4,4.1e-4 c -0.12023,-0.022 -5.75373,-1.0411 -9.64235,8.6e-4 -3.93072,1.05323 -4.27274,1.91924 -7.16289,1.91923 -1.94827,1e-5 -4.29124,-0.54851 -6.52725,-0.70684 1.46914,-1.69304 2.73797,-3.73807 4.11561,-5.11568 2.04364,-2.04367 2.89796,-1.67283 6.42215,-3.70752 3.48644,-2.01291 6.74888,-6.71784 6.81837,-6.81838 l 4.3e-4,-8.4e-4 h -4.3e-4 -4.2e-4 c -0.12182,0.01 -5.82748,0.48349 -9.31392,2.49639 -3.52419,2.03469 -3.63006,2.95951 -6.42174,3.70752 -1.88186,0.50426 -4.28747,0.58107 -6.48826,1.00687 0.98084,-2.01555 1.67739,-4.31926 2.6515,-6.00644 1.44507,-2.50296 2.36617,-2.36576 5.24366,-5.24325 2.84667,-2.84667 4.78008,-8.23561 4.82118,-8.3507 l 4.1e-4,-8.5e-4 h -4.1e-4 l -4.3e-4,4.2e-4 c -0.1151,0.0411 -5.50361,1.97493 -8.35028,4.8216 -2.87749,2.87748 -2.74072,3.79817 -5.24367,5.24324 -1.68728,0.97416 -3.9908,1.67099 -6.00644,2.65192 0.4258,-2.2008 0.50261,-4.60639 1.00686,-6.48826 0.74802,-2.79168 1.67283,-2.89754 3.70752,-6.42173 2.0129,-3.48645 2.48608,-9.19212 2.49598,-9.31393 v -8.5e-4 l -8.5e-4,4.3e-4 c -0.10055,0.0695 -4.80505,3.33193 -6.81795,6.81837 -2.0347,3.52419 -1.66386,4.37852 -3.70752,6.42216 -1.37757,1.37758 -3.42225,2.64652 -5.11526,4.1156 -0.15834,-2.23595 -0.70685,-4.57904 -0.70684,-6.52725 -2e-5,-2.89015 0.86599,-3.23217 1.91923,-7.16289 1.04195,-3.88863 0.022,-9.522125 0,-9.64235 v -8.47e-4 -4.24e-4 h -4.3e-4 l -4.2e-4,8.47e-4 c -0.0791,0.09314 -3.77879,4.462081 -4.82074,8.350714 -1.05324,3.93072 -0.47415,4.65995 -1.91924,7.16289 -0.92226,1.59743 -2.44743,3.25603 -3.67234,5.00424 -0.73138,-2.02024 -1.78673,-4.03308 -2.26757,-5.82761 -0.74804,-2.79168 -1e-5,-3.34608 0,-7.41546 -1e-5,-4.02581 -2.44322,-9.203487 -2.49555,-9.313929 l -4.2e-4,-4.24e-4 h -4.2e-4 v 4.24e-4 c -0.007,0.01572 -0.0635,0.13426 -0.15383,0.337316 -0.0902,-0.202662 -0.14597,-0.320767 -0.1534,-0.336469 v -0.0017 c 0,0 -1.4e-4,2.78e-4 -4.3e-4,8.48e-4 -2.8e-4,-5.98e-4 -4.2e-4,-8.48e-4 -4.2e-4,-8.48e-4 z" />
      <path
         id="path29"
         style="fill:#c8ab37;stroke-width:1.02495;stroke-linecap:round;paint-order:markers fill stroke"
         d="m 245.97275,160.17285 -41.94591,49.85044 c 1.29356,2.39541 3.50814,3.76324 6.1276,4.67936 l 41.94644,-49.8511 c -1.24881,-2.30676 -2.7856,-4.34249 -6.12813,-4.6787 z" />
    </g>
  </g>
</svg>
