<?xml version="1.0" encoding="UTF-8" standalone="no"?>
<!-- Created with Inkscape (http://www.inkscape.org/) -->

<svg
   width="147.29599mm"
   height="210.68779mm"
   viewBox="0 0 147.29599 210.68779"
   version="1.1"
   id="svg1"
   xml:space="preserve"
   xmlns="http://www.w3.org/2000/svg"
   xmlns:svg="http://www.w3.org/2000/svg"><defs
     id="defs1" /><g
     id="layer1"
     transform="translate(-31.029409,-28.374337)"><g
       id="g9"
       style="display:inline"><path
         id="rect6"
         style="display:inline;fill:#e6e6e6;stroke-width:0.729679;stroke-linecap:round;paint-order:markers fill stroke"
         d="M 166.36182,154.11548 V 34.220063 H 42.656016 V 154.41805 c 0,31.53422 61.851864,84.64407 61.851864,84.64407 0,0 61.85394,-54.2112 61.85394,-84.94664 z" /><rect
         style="display:inline;fill:#4d4d4d;stroke-width:0.773187;stroke-linecap:round;paint-order:markers fill stroke"
         id="rect9"
         width="147.29601"
         height="5.4660625"
         x="31.029413"
         y="28.77109" /><path
         id="path7"
         style="display:inline;fill:#cccccc;stroke-width:0.729679;stroke-linecap:round;paint-order:markers fill stroke"
         d="m 48.592396,28.374337 c 0,0 2.152651,1.696301 0.992958,3.704949 -1.159695,2.008649 -2.3014,2.301819 -2.3014,2.301819 l 26.59046,0.181833 c -0.597611,-0.17234 -1.384474,-0.5007 -2.409075,-1.092254 -3.256827,-1.880331 1.365422,-5.096347 1.365422,-5.096347 z m 39.871665,0 c 0,0 4.593563,1.696301 3.433874,3.704949 -1.159696,2.008649 -3.033664,2.301819 -3.033664,2.301819 l 31.840759,0.18267 c -0.59784,-0.172188 -1.38505,-0.500898 -2.41075,-1.093091 -3.25683,-1.880331 1.36542,-5.096347 1.36542,-5.096347 z m 44.211229,0 c 0,0 2.15265,1.696301 0.99296,3.704949 -1.1597,2.008649 -2.30182,2.301819 -2.30182,2.301819 l 28.59815,0.181833 c -0.59761,-0.17234 -1.38489,-0.5007 -2.40949,-1.092254 -3.25683,-1.880331 1.36584,-5.096347 1.36584,-5.096347 z m -58.800456,6.188601 c 1.301629,0.375259 1.704368,0.01005 1.704368,0.01005 z m 86.090166,0 c 1.30163,0.375259 1.70437,0.01005 1.70437,0.01005 z m -39.25955,8.37e-4 c 1.30019,0.374394 1.70269,0.0092 1.70269,0.0092 z" /><g
         id="g10"
         style="display:inline"
         transform="matrix(0.72066777,-0.55554388,0.55554388,0.72066777,-175.22054,154.28611)"><path
           style="fill:#808080;stroke-width:0.899999;stroke-linecap:round;paint-order:markers fill stroke"
           d="m 249.45161,107.87097 c -2.48387,0.35484 -7.45161,3.54838 -11.35484,3.90322 -3.90322,0.35484 -13.12903,-2.12903 -13.12903,-2.12903 -7.0969,0.20671 -4.25129,11.2511 -2.66129,11.8871 1.7742,0.70967 7.45161,4.61291 9.93548,7.09678 2.30477,2.30476 14.08408,7.54293 20.65414,7.54293 2.12903,0 7.83167,5.89266 7.83167,5.89266 0,0 10.72387,-8.29044 12.49807,-11.48398 7.30538,-13.14972 -17.28463,-23.34245 -23.7742,-22.70968 z"
           id="path1" /><path
           style="fill:#808080;stroke-width:0.841204;stroke-linecap:round;paint-order:markers fill stroke"
           d="m 256.81346,108.85742 c 2.78685,4.98951 7.39532,10.13639 13.17624,12.76627 0.65196,0.20594 2.1534,-14.87018 -2.60456,-19.92938 l -5.30437,-5.64022 z"
           id="path5" /><path
           style="fill:#808080;stroke-width:0.899999;stroke-linecap:round;paint-order:markers fill stroke"
           d="m 257.93431,152.8035 c 0,0 0,7.52727 -3.01091,12.04363 -3.0109,4.51636 -20.57452,6.02181 -26.59634,7.52726 -6.02181,1.50546 -13.04726,5.52 -13.04726,8.53091 0,3.0109 -3.0109,8.02908 1.00364,9.03272 4.01454,1.00363 8.5309,-2.50909 14.55271,-4.51637 6.02182,-2.00726 22.07998,-4.01454 28.60361,-7.52726 6.52364,-3.51272 10.03636,-14.55271 9.53455,-20.57452 -0.50184,-6.02182 -2.00729,-9.03272 -2.00729,-9.03272 z"
           id="path8" /><path
           style="fill:#808080;stroke-width:0.899999;stroke-linecap:round;paint-order:markers fill stroke"
           d="m 257.60438,144.71126 c 0,0 -2.62123,7.05613 -7.01642,10.24132 -4.39518,3.18519 -21.38371,-1.51978 -27.55286,-2.20554 -6.16915,-0.68575 -14.15285,0.63104 -15.20135,3.4535 -1.04848,2.82244 -5.61841,6.47804 -2.20464,8.81685 3.41377,2.33879 8.87068,0.61867 15.21457,0.83401 6.3439,0.21536 22.09596,3.92566 29.43451,2.90453 7.33855,-1.02112 14.47587,-10.14687 16.10244,-15.96652 1.62656,-5.81966 1.26382,-9.16635 1.26382,-9.16635 z"
           id="path9" /><path
           style="fill:#808080;stroke-width:0.85387;stroke-linecap:round;paint-order:markers fill stroke"
           d="m 258.23837,130.09501 c 0,0 1.94431,3.16962 1.19015,8.3521 -0.75417,5.1825 -4.73773,9.41392 -5.75734,13.11444 -1.01962,3.70053 6.79982,26.00736 12.04208,29.6569 5.24226,3.64954 30.8031,13.14253 40.83406,13.64004 10.03096,0.4975 16.49854,-0.96689 17.26147,-9.51589 0.76296,-8.54899 -11.46722,-43.52549 -26.38888,-53.3947 -14.9216,-9.86922 -21.45774,-7.9337 -25.08091,-12.79097 -3.62317,-4.85726 -14.10063,10.93808 -14.10063,10.93808 z"
           id="path10" /></g></g></g></svg>
