<?xml version="1.0" encoding="UTF-8" standalone="no"?>
<!-- Created with Inkscape (http://www.inkscape.org/) -->

<svg
   width="147.29599mm"
   height="210.68779mm"
   viewBox="0 0 147.29599 210.68779"
   version="1.1"
   id="svg1"
   xml:space="preserve"
   xmlns="http://www.w3.org/2000/svg"
   xmlns:svg="http://www.w3.org/2000/svg"><defs
     id="defs1" /><g
     id="layer1"
     transform="translate(-31.029409,-28.374337)"><g
       id="g9"
       style="display:inline"><path
         id="rect6"
         style="display:inline;fill:#1a1a1a;stroke-width:0.729679;stroke-linecap:round;paint-order:markers fill stroke"
         d="M 166.36182,154.11548 V 34.220063 H 42.656016 V 154.41805 c 0,31.53422 61.851864,84.64407 61.851864,84.64407 0,0 61.85394,-54.2112 61.85394,-84.94664 z" /><rect
         style="display:inline;fill:#4d4d4d;stroke-width:0.773187;stroke-linecap:round;paint-order:markers fill stroke"
         id="rect9"
         width="147.29601"
         height="5.4660625"
         x="31.029413"
         y="28.77109" /><path
         id="path7"
         style="display:inline;fill:#333333;stroke-width:0.729679;stroke-linecap:round;paint-order:markers fill stroke"
         d="m 48.592396,28.374337 c 0,0 2.152651,1.696301 0.992958,3.704949 -1.159695,2.008649 -2.3014,2.301819 -2.3014,2.301819 l 26.59046,0.181833 c -0.597611,-0.17234 -1.384474,-0.5007 -2.409075,-1.092254 -3.256827,-1.880331 1.365422,-5.096347 1.365422,-5.096347 z m 39.871665,0 c 0,0 4.593563,1.696301 3.433874,3.704949 -1.159696,2.008649 -3.033664,2.301819 -3.033664,2.301819 l 31.840759,0.18267 c -0.59784,-0.172188 -1.38505,-0.500898 -2.41075,-1.093091 -3.25683,-1.880331 1.36542,-5.096347 1.36542,-5.096347 z m 44.211229,0 c 0,0 2.15265,1.696301 0.99296,3.704949 -1.1597,2.008649 -2.30182,2.301819 -2.30182,2.301819 l 28.59815,0.181833 c -0.59761,-0.17234 -1.38489,-0.5007 -2.40949,-1.092254 -3.25683,-1.880331 1.36584,-5.096347 1.36584,-5.096347 z m -58.800456,6.188601 c 1.301629,0.375259 1.704368,0.01005 1.704368,0.01005 z m 86.090166,0 c 1.30163,0.375259 1.70437,0.01005 1.70437,0.01005 z m -39.25955,8.37e-4 c 1.30019,0.374394 1.70269,0.0092 1.70269,0.0092 z" /><g
         id="g15"
         transform="matrix(1.5095342,0,0,1.5095342,-284.01053,-67.889217)"><path
           style="fill:#aa0000;stroke-width:0.925451;stroke-linecap:round;paint-order:markers fill stroke"
           d="m 234.00964,136.17565 c 0,0 -12.75652,22 23.2619,22 0,0 10.69048,-0.10307 15.33324,-3.11398 15.29107,-9.91647 3.19015,-17.99303 3.934,-21.15875 0.53061,-2.25818 2.71524,-1.13876 1.76997,-0.0431 l -0.97407,1.12909 c 0,0 3.22913,-0.25091 4.55563,-1.75636 1.32651,-1.50545 2.25506,-3.13636 2.25506,-3.13636 0,0 -5.56268,-1.11352 -7.82637,0 -8.91105,4.38341 8.91077,15.74686 -7.12152,20.77347 -7.72376,2.42164 -21.00565,-11.24081 -20.06767,-15.21412"
           id="path5" /><path
           style="fill:#aa0000;stroke-width:0.899999;stroke-linecap:round;paint-order:markers fill stroke"
           d="m 244.81613,139.03031 c 0,0 -1.10218,-1.79762 -1.04177,-4.041 0.0257,-0.95209 -2.07225,-2.78045 -1.2439,-6.39566 1.12347,-4.90316 5.2654,-11.90861 5.33854,-13.425 0.39419,-8.17319 -7.40888,-5.48624 -9.85439,-1.92102 1.46011,0.67229 -5.33305,3.80871 -4.83331,5.45433 0.23199,0.76393 0.67775,1.92651 1.33416,2.56156 0.65639,0.63505 1.15814,0.76081 1.15814,0.76081 0,0 -0.67148,-0.0745 0.13333,-0.78217 0.80482,-0.70796 1.21099,-1.20214 2.11891,-1.57057 0.90793,-0.36843 2.11451,-0.364 2.70114,-0.26402 -4.56991,4.29381 -4.18245,13.03155 -4.80133,18.66608 z"
           id="path6" /><path
           style="fill:#aa0000;stroke-width:0.712411;stroke-linecap:round;paint-order:markers fill stroke"
           d="m 231.7216,127.55894 c -0.23113,-6.47304 -6.20788,-3.83611 -7.90042,-0.86172 1.19632,0.43344 -3.95404,3.35794 -3.45071,4.62284 0.23367,0.58718 0.66237,1.47465 1.22226,1.93203 0.55987,0.45738 0.96398,0.52329 0.96398,0.52329 0,0 -0.5346,-0.014 0.0534,-0.62579 0.58788,-0.6118 0.87549,-1.02855 1.56722,-1.37937 0.69172,-0.35083 1.64374,-0.42736 2.11309,-0.3874 0.46936,0.04 5.50578,-1.73742 5.43129,-3.82388 z"
           id="path8" /><path
           style="fill:#aa0000;stroke-width:0.899999;stroke-linecap:round;paint-order:markers fill stroke"
           d="m 225.05644,130.58064 c 0,0 1.50807,-0.44355 3.37097,0.17742 1.8629,0.62096 3.45968,1.33064 3.99193,2.48387 0.53226,1.15322 1.15323,2.21774 0.97581,3.45967 -0.17742,1.24194 -0.44355,2.6613 -0.88709,3.72581 l -0.44355,1.06452 c 0,0 2.21774,1.77419 3.45967,1.77419 1.24194,0 4.34677,-1.8629 4.34677,-2.92742 0,-1.06451 -0.88709,-8.25 -2.92741,-9.93548 -2.04033,-1.68549 -4.16936,-2.12904 -5.23388,-3.37097 -1.06451,-1.24194 -6.65322,3.54839 -6.65322,3.54839 z"
           id="path9" /><path
           style="fill:#aa0000;stroke-width:0.717711;stroke-linecap:round;paint-order:markers fill stroke"
           d="m 257.81651,121.86995 c 0.95948,-6.24261 -5.65931,-4.74781 -7.94542,-2.18987 1.14712,0.6219 -4.67704,2.53492 -4.39449,3.83396 0.13118,0.603 0.4069,1.52742 0.89671,2.06237 0.48981,0.53497 0.89219,0.6679 0.89219,0.6679 0,0 -0.54587,-0.1057 0.17042,-0.59044 0.71613,-0.48479 1.08825,-0.83444 1.86266,-1.05122 0.77446,-0.21678 1.76525,-0.12571 2.23935,-0.006 0.47412,0.11936 5.96934,-0.7142 6.27864,-2.72631 z"
           id="path11" /><path
           style="fill:#aa0000;stroke-width:0.899999;stroke-linecap:round;paint-order:markers fill stroke"
           d="m 252.64516,123.75 c 12.24606,5.49368 -7.55727,3.34018 -10.0242,8.33871 -2.19469,4.44693 2.75001,4.70161 2.75001,4.70161 l 3.81451,-0.44355 c -0.83669,0.0627 1.1262,-3.39546 3.72581,-3.54838 13.65039,-0.80288 7.74359,-13.22296 1.68548,-10.9113 -1.41935,0.35484 -1.95161,1.86291 -1.95161,1.86291 z"
           id="path12" /><path
           style="fill:#aa0000;stroke-width:0.673796;stroke-linecap:round;paint-order:markers fill stroke"
           d="m 253.83859,150.92234 c 0,0 -3.09946,1.40885 -4.32046,4.32047 -1.22101,2.91161 1.59669,4.41438 2.34807,4.97792 0.75139,0.56354 1.12709,1.50277 1.12709,1.50277 0,0 -3.19339,1.221 -4.32047,1.40885 -1.12708,0.18785 -1.59669,-0.37569 -1.87846,0.37569 -0.28177,0.75139 -0.46962,0.28177 -1.59669,0.75139 -1.12708,0.46961 -1.69062,1.40884 -1.69062,1.40884 0,0 1.03316,-0.37569 1.97238,-0.46961 0.93924,-0.0939 1.50277,-0.18785 2.06631,0.0939 0.56354,0.28177 1.40885,0.18785 1.78455,0.0939 0.37568,-0.0939 -0.84532,0.93923 -1.69063,0.93923 -0.8453,0 -2.34807,0.0939 -2.44199,1.31492 -0.0939,1.221 -0.0939,1.221 -0.0939,1.221 0,0 0.37569,-0.65746 1.40885,-0.93923 1.03315,-0.28177 1.31492,-0.28177 1.69061,-0.28177 0.3757,0 1.03316,0.56354 1.97239,-0.0939 0.93923,-0.65747 0.18784,-1.12708 2.16023,-1.5967 1.97239,-0.46961 2.91162,-0.84531 4.32046,-1.78453 1.40885,-0.93924 4.41439,-0.0939 4.41439,-0.0939 0,0 -1.59669,-1.69062 -2.442,-1.69062 -0.84531,0 -1.59669,-1.12707 -2.16023,-1.59669 -0.56354,-0.46961 -1.50277,-1.50277 -2.25415,-2.16023 -0.75139,-0.65746 -0.93924,-1.97239 -0.93924,-1.97239 0,0 1.221,0.0939 2.53593,-1.40884 1.31492,-1.50277 1.87846,-1.31493 1.40885,-3.56908 -0.46963,-2.25415 -3.38124,-0.75139 -3.38124,-0.75139 z"
           id="path13" /><path
           style="fill:#aa0000;stroke-width:0.612909;stroke-linecap:round;paint-order:markers fill stroke"
           d="m 242.6879,150.74345 c 0,0 -2.87807,1.2554 -4.01185,3.84991 -1.1338,2.5945 1.48264,3.93359 2.18035,4.43576 0.69772,0.50216 1.04658,1.3391 1.04658,1.3391 0,0 -2.96529,1.08801 -4.01186,1.2554 -1.04658,0.16739 -1.48264,-0.33477 -1.74429,0.33477 -0.26164,0.66956 -0.43607,0.25109 -1.48264,0.66956 -1.04657,0.41846 -1.56986,1.2554 -1.56986,1.2554 0,0 0.95936,-0.33478 1.8315,-0.41847 0.87215,-0.0837 1.39543,-0.16739 1.91871,0.0837 0.52329,0.25108 1.30822,0.16739 1.65708,0.0837 0.34885,-0.0837 -0.78494,0.83693 -1.56987,0.83693 -0.78492,0 -2.18035,0.0837 -2.26756,1.17171 -0.0872,1.08802 -0.0872,1.08802 -0.0872,1.08802 0,0 0.34885,-0.58585 1.30822,-0.83694 0.95935,-0.25108 1.22099,-0.25108 1.56985,-0.25108 0.34886,0 0.95936,0.50217 1.8315,-0.0837 0.87215,-0.58586 0.17443,-1.00433 2.00593,-1.4228 1.83151,-0.41846 2.70365,-0.75324 4.01186,-1.59017 1.30822,-0.83694 4.09908,-0.0837 4.09908,-0.0837 0,0 -1.48265,-1.50649 -2.26758,-1.50649 -0.78493,0 -1.48264,-1.00432 -2.00592,-1.42279 -0.52329,-0.41846 -1.39543,-1.3391 -2.09314,-1.92495 -0.69772,-0.58586 -0.87216,-1.75757 -0.87216,-1.75757 0,0 1.13379,0.0837 2.3548,-1.2554 1.22099,-1.3391 1.74428,-1.17172 1.30822,-3.18036 -0.43609,-2.00864 -3.13973,-0.66955 -3.13973,-0.66955 z"
           id="path14" /><path
           style="fill:#aa0000;stroke-width:0.733277;stroke-linecap:round;paint-order:markers fill stroke"
           d="m 247.09255,139.25441 c 0,0 11.75473,1.62531 14.3876,-6.64908 1.78884,-5.62184 1.24918,-14.42726 -1.2492,-18.31635 -2.49838,-3.88908 -8.57779,-7.65272 -8.57779,-7.65272 0,0 16.40607,-1.25454 28.81471,6.52363 12.40864,7.77818 15.24015,13.54908 15.24015,13.54908 0,0 -23.56811,-7.77817 -27.06584,4.26545 0,0 -0.49967,3.38727 -0.24983,4.89273 0,0 -5.16334,2.63454 -5.99613,5.39454 -0.83279,2.75999 -1.08263,7.90363 -0.16656,9.65999 0.91608,1.75636 -7.32859,0.75272 -9.49386,-1.25455 -2.16527,-2.00727 -5.64325,-10.41272 -5.64325,-10.41272 z"
           id="path15" /></g></g></g></svg>
