<?xml version="1.0" encoding="UTF-8" standalone="no"?>
<!-- Created with Inkscape (http://www.inkscape.org/) -->

<svg
   width="147.29599mm"
   height="210.68779mm"
   viewBox="0 0 147.29599 210.68779"
   version="1.1"
   id="svg1"
   xml:space="preserve"
   xmlns="http://www.w3.org/2000/svg"
   xmlns:svg="http://www.w3.org/2000/svg"><defs
     id="defs1" /><g
     id="layer1"
     transform="translate(-31.029409,-28.374337)"><g
       id="g9"
       style="display:inline"><path
         id="rect6"
         style="display:inline;fill:#aa0000;stroke-width:0.729679;stroke-linecap:round;paint-order:markers fill stroke"
         d="M 166.36182,154.11548 V 34.220063 H 42.656016 V 154.41805 c 0,31.53422 61.851864,84.64407 61.851864,84.64407 0,0 61.85394,-54.2112 61.85394,-84.94664 z" /><path
         id="path4"
         style="display:inline;fill:#000080;stroke-width:0.899999;stroke-linecap:round;paint-order:markers fill stroke"
         d="m 76.855257,115.15147 c -19.146943,-0.54978 -34.027205,7.69696 -34.199463,7.7928 v 31.47369 c 0,31.53422 61.852036,84.64393 61.852036,84.64393 0,0 61.85411,-54.21079 61.85411,-84.94623 v -30.91042 c -4.12581,2.11688 -33.47691,16.05383 -61.73318,-0.25993 -9.485674,-5.47656 -19.070347,-7.54394 -27.773503,-7.79384 z" /><rect
         style="display:inline;fill:#4d4d4d;stroke-width:0.773187;stroke-linecap:round;paint-order:markers fill stroke"
         id="rect9"
         width="147.29601"
         height="5.4660625"
         x="31.029413"
         y="28.77109" /><path
         id="path1"
         style="display:inline;fill:#dbe2e3;stroke-width:0.899999;stroke-linecap:round;paint-order:markers fill stroke"
         d="M 97.628001,82.648219 C 94.360678,81.571233 86.012,84.954371 79.783889,96.095216 63.404141,101.1493 51.424306,111.89486 49.764645,118.08881 c -0.714338,2.66594 2.708738,5.4014 6.651428,6.19808 9.294119,1.24919 18.993723,1.27171 28.565665,0.59223 4.429799,4.98472 18.324522,12.78599 17.805472,5.39958 -0.16329,-2.32374 -0.0554,-4.94905 -0.12396,-7.37013 4.04314,-0.59396 7.99712,-1.25987 11.81716,-1.95349 0.30735,0.29179 2.96387,2.79289 4.99664,4.01596 2.16065,1.30002 4.88191,2.58779 6.11106,2.33669 1.22915,-0.25111 -0.26294,-1.79002 -0.87248,-4.02153 -0.41493,-1.51903 -1.04018,-3.13791 -1.39705,-4.01657 4.67961,-0.92772 9.06836,-1.84174 13.06498,-2.64312 10.73648,4.0633 11.30919,6.71033 21.32361,6.74724 -1.19915,-2.26919 -1.62679,-4.50679 -1.73651,-6.88468 1.34301,-2.48 2.92602,-5.9098 5.17213,-8.74852 -3.49162,-1.30149 -16.76287,-1.66526 -21.58749,-1.36584 0,0 -8.76154,-7.616391 -30.96353,-12.006834 -2.9438,-0.582138 -5.85835,-0.90786 -8.722838,-1.013169 -0.200638,-0.237113 -0.426643,-0.480674 -0.681462,-0.72722 -1.856534,-1.796256 -0.267872,-5.786663 -0.16813,-8.097777 0.04007,-0.928513 -0.476489,-1.579935 -1.391339,-1.881491 z" /><path
         id="path7"
         style="display:inline;fill:#800000;stroke-width:0.729679;stroke-linecap:round;paint-order:markers fill stroke"
         d="m 48.592396,28.374337 c 0,0 2.152651,1.696301 0.992958,3.704949 -1.159695,2.008649 -2.3014,2.301819 -2.3014,2.301819 l 26.59046,0.181833 c -0.597611,-0.17234 -1.384474,-0.5007 -2.409075,-1.092254 -3.256827,-1.880331 1.365422,-5.096347 1.365422,-5.096347 z m 39.871665,0 c 0,0 4.593563,1.696301 3.433874,3.704949 -1.159696,2.008649 -3.033664,2.301819 -3.033664,2.301819 l 31.840759,0.18267 c -0.59784,-0.172188 -1.38505,-0.500898 -2.41075,-1.093091 -3.25683,-1.880331 1.36542,-5.096347 1.36542,-5.096347 z m 44.211229,0 c 0,0 2.15265,1.696301 0.99296,3.704949 -1.1597,2.008649 -2.30182,2.301819 -2.30182,2.301819 l 28.59815,0.181833 c -0.59761,-0.17234 -1.38489,-0.5007 -2.40949,-1.092254 -3.25683,-1.880331 1.36584,-5.096347 1.36584,-5.096347 z m -58.800456,6.188601 c 1.301629,0.375259 1.704368,0.01005 1.704368,0.01005 z m 86.090166,0 c 1.30163,0.375259 1.70437,0.01005 1.70437,0.01005 z m -39.25955,8.37e-4 c 1.30019,0.374394 1.70269,0.0092 1.70269,0.0092 z" /></g></g></svg>
