<?xml version="1.0" encoding="UTF-8" standalone="no"?>
<!-- Created with Inkscape (http://www.inkscape.org/) -->

<svg
   width="147.29599mm"
   height="210.68779mm"
   viewBox="0 0 147.29599 210.68779"
   version="1.1"
   id="svg1"
   xml:space="preserve"
   xmlns="http://www.w3.org/2000/svg"
   xmlns:svg="http://www.w3.org/2000/svg"><defs
     id="defs1" /><g
     id="layer1"
     transform="translate(-31.029409,-28.374337)"><g
       id="g9"
       style="display:inline"><path
         id="rect6"
         style="display:inline;fill:#338000;stroke-width:0.729679;stroke-linecap:round;paint-order:markers fill stroke"
         d="M 166.36182,154.11548 V 34.220063 H 42.656016 V 154.41805 c 0,31.53422 61.851864,84.64407 61.851864,84.64407 0,0 61.85394,-54.2112 61.85394,-84.94664 z" /><rect
         style="display:inline;fill:#4d4d4d;stroke-width:0.773187;stroke-linecap:round;paint-order:markers fill stroke"
         id="rect9"
         width="147.29601"
         height="5.4660625"
         x="31.029413"
         y="28.77109" /><path
         id="path7"
         style="display:inline;fill:#5aa02c;stroke-width:0.729679;stroke-linecap:round;paint-order:markers fill stroke"
         d="m 48.592396,28.374337 c 0,0 2.152651,1.696301 0.992958,3.704949 -1.159695,2.008649 -2.3014,2.301819 -2.3014,2.301819 l 26.59046,0.181833 c -0.597611,-0.17234 -1.384474,-0.5007 -2.409075,-1.092254 -3.256827,-1.880331 1.365422,-5.096347 1.365422,-5.096347 z m 39.871665,0 c 0,0 4.593563,1.696301 3.433874,3.704949 -1.159696,2.008649 -3.033664,2.301819 -3.033664,2.301819 l 31.840759,0.18267 c -0.59784,-0.172188 -1.38505,-0.500898 -2.41075,-1.093091 -3.25683,-1.880331 1.36542,-5.096347 1.36542,-5.096347 z m 44.211229,0 c 0,0 2.15265,1.696301 0.99296,3.704949 -1.1597,2.008649 -2.30182,2.301819 -2.30182,2.301819 l 28.59815,0.181833 c -0.59761,-0.17234 -1.38489,-0.5007 -2.40949,-1.092254 -3.25683,-1.880331 1.36584,-5.096347 1.36584,-5.096347 z m -58.800456,6.188601 c 1.301629,0.375259 1.704368,0.01005 1.704368,0.01005 z m 86.090166,0 c 1.30163,0.375259 1.70437,0.01005 1.70437,0.01005 z m -39.25955,8.37e-4 c 1.30019,0.374394 1.70269,0.0092 1.70269,0.0092 z" /><path
         id="path19-8"
         style="display:inline;fill:#ffcc00;stroke-width:0.916567;stroke-linecap:round;paint-order:markers fill stroke"
         d="m 106.94051,66.809848 c 0,0 -19.815623,4.953847 -27.436943,4.953847 -7.6213,0 -6.09688,3.810939 -11.43179,12.194382 -5.33493,8.383442 -7.62167,2.667458 -11.43233,9.907702 -3.81065,7.240231 0.76257,18.290931 5.71642,26.674371 4.95386,8.38344 24.00705,14.8618 25.53131,12.57541 1.52426,-2.28639 6.09684,-2.6677 11.812814,-2.6677 5.715989,0 5.715909,-6.09692 5.715909,-6.09692 0,0 -3.42928,1.90511 -8.002048,1.90511 -4.572795,0 -3.429605,-1.9052 -4.953855,-6.09692 -1.52426,-4.19172 -5.33496,-6.09696 -9.52668,-10.66975 -4.19172,-4.5728 -9.90801,-6.85906 -11.81334,-11.050785 -1.90532,-4.191716 1.52449,-5.335236 2.66769,-6.859496 1.1432,-1.52427 3.42947,-9.526394 6.09693,-12.193853 2.66746,-2.667458 8.38372,-4.191681 12.19438,-5.334875 3.81066,-1.143206 2.66734,-1.14344 6.096915,-2.667693 3.429588,-1.524273 8.764618,-4.57283 8.764618,-4.57283 z m 3.42923,1.143076 c 0,0 5.33512,3.810934 8.00258,7.240529 2.66746,3.429585 1.90541,8.38324 4.1918,11.812825 2.28638,3.429591 6.85911,8.383431 10.66976,9.907687 3.81067,1.52426 6.47795,1.90566 6.47795,1.90566 0,0 3.42963,4.191635 4.57282,5.715895 1.14321,1.52427 1.14353,3.81049 1.90565,6.47796 0.76213,2.66746 1.90529,4.19156 0.38102,6.47795 -1.52424,2.2864 -6.85929,9.90786 -8.76462,13.33745 -1.90534,3.42959 -1.14321,4.95376 -4.57282,5.7159 -3.42959,0.76212 -7.62111,3.42995 -11.81284,1.52463 -4.19171,-1.90533 -2.28648,-3.8111 -9.14565,-5.71642 -6.8592,-1.90534 -9.90807,-0.76179 -16.386163,1.52461 -6.47811,2.28639 -5.33446,2.28616 -9.14512,2.28616 -3.81066,0 -8.38361,-2.28616 -8.38361,-2.28616 0,0 2.66762,6.09709 8.38361,9.52668 5.71598,3.4296 17.528733,6.85906 22.101533,6.09693 4.57277,-0.76213 9.90796,-3.0484 17.14823,-6.09693 7.24023,-3.04852 12.1936,1.52399 14.48,-7.24052 2.2864,-8.76451 -2.66728,-4.1916 3.42976,-11.05078 6.09704,-6.85919 11.4181,-12.54439 7.24052,-14.48053 -4.14185,-1.91958 -4.97797,-5.54584 -8.00258,-9.90771 -2.91326,-4.201305 2.2e-4,-1.905315 -6.85897,-4.953841 -6.85917,-3.04852 -3.81094,-16.004544 -12.19438,-21.720528 -8.38345,-5.715984 -13.71848,-6.097447 -13.71848,-6.097447 z m -8.27782,5.064372 c -2.791009,0.07445 -3.534999,1.414102 -3.534999,1.414102 0,0 12.408299,6.443304 15.837879,13.302484 2.74832,5.513522 3.42167,9.952783 0.20794,11.531453 -3.11556,1.530435 0.0117,12.739315 -0.88081,16.654445 -0.21816,0.95702 -9.88932,3.75466 -5.63834,6.5255 0,0 1.90529,1.14319 5.33487,4.95385 3.42962,3.81066 2.28654,6.85942 8.76464,7.62156 6.47814,0.76212 11.43179,3.04836 16.38565,-8.38361 4.95387,-11.43197 11.05111,-14.4806 3.04872,-23.62619 -8.00238,-9.145561 -6.85948,1.14369 -16.7672,-9.526141 -9.9077,-10.669836 -6.09702,-14.86167 -15.24258,-18.672323 -3.42959,-1.428991 -5.84116,-1.839787 -7.51577,-1.79513 z m -8.515683,3.335545 c -1.34862,-0.04023 -2.73597,0.07893 -4.16496,0.364713 -11.43197,2.28639 -13.71848,16.767195 -13.71848,16.767195 0,0 -4.95358,3.048156 2.28667,8.383071 7.24025,5.33492 4.07138,3.1497 11.25156,11.58466 7.31383,8.59194 2.41492,15.26082 14.279743,7.4687 12.10785,-7.95172 9.72647,-1.81594 8.20221,-13.24791 -1.52427,-11.43198 3.85386,-9.325885 3.67748,-10.343815 -2.5836,-14.910711 -12.37393,-20.695289 -21.814223,-20.976614 z" /><path
         style="display:inline;fill:#ffcc00;stroke-width:0.899999;stroke-linecap:round;paint-order:markers fill stroke"
         d="m 99.755931,149.60707 2.149569,0.41794 c -2.1e-4,14.00592 3.91213,32.65028 11.1615,40.66406 0,0 -3.19944,3.7256 -5.75737,4.31925 -2.55794,0.59364 -8.338329,-21.60095 -7.553699,-45.40125 z"
         id="path22-2" /></g></g></svg>
