<?xml version="1.0" encoding="UTF-8" standalone="no"?>
<svg
   version="1.1"
   width="220.14998"
   height="454.30002"
   viewBox="0 0 2201.4998 4543.0001"
   id="svg1"
   sodipodi:docname="westeros_map.svg"
   inkscape:version="1.4.2 (f4327f4, 2025-05-13)"
   xmlns:inkscape="http://www.inkscape.org/namespaces/inkscape"
   xmlns:sodipodi="http://sodipodi.sourceforge.net/DTD/sodipodi-0.dtd"
   xmlns="http://www.w3.org/2000/svg"
   xmlns:svg="http://www.w3.org/2000/svg"
   xmlns:rdf="http://www.w3.org/1999/02/22-rdf-syntax-ns#"
   xmlns:cc="http://creativecommons.org/ns#"
   xmlns:dc="http://purl.org/dc/elements/1.1/">
  <sodipodi:namedview
     id="namedview1"
     pagecolor="#ffffff"
     bordercolor="#000000"
     borderopacity="0.25"
     inkscape:showpageshadow="2"
     inkscape:pageopacity="0.0"
     inkscape:pagecheckerboard="0"
     inkscape:deskcolor="#d1d1d1"
     inkscape:zoom="1.8423948"
     inkscape:cx="146.00562"
     inkscape:cy="222.80783"
     inkscape:window-width="1920"
     inkscape:window-height="1017"
     inkscape:window-x="-8"
     inkscape:window-y="-8"
     inkscape:window-maximized="1"
     inkscape:current-layer="g198" />
  <defs
     id="defs1" />
  <title
     id="title1">Map of the Known World - Made by Abjiklam</title>
  <desc
     id="desc1">
    A map of the Known World from &quot;A Song of Ice and Fire&quot;.
    This map covers the following coordinates (parentheses indicate repeating digits):
     - from 73.8(63)°N to  1.897(72)°S
     - from 30.0    °W to 83.(63)   °E
  </desc>
  <metadata
     id="metadata1">
    <rdf:RDF>
      <cc:Work
         rdf:about="">
        <dc:format>image/svg+xml</dc:format>
        <dc:type
           rdf:resource="http://purl.org/dc/dcmitype/StillImage" />
        <dc:title>Map of the Known World</dc:title>
        <dc:date>07 July 2021</dc:date>
        <dc:creator>
          <cc:Agent>
            <dc:title>Abjiklam &lt;abjiklam@gmail.com&gt;</dc:title>
          </cc:Agent>
        </dc:creator>
        <dc:description>
          A map of the Known World from &quot;A Song of Ice and Fire&quot;.
          This map covers the following coordinates (parentheses indicate repeating digits):
           - from 73.8(63)°N to  1.897(72)°S
           - from 30.0    °W to 83.(63)   °E
        </dc:description>
        <cc:license
           rdf:resource="http://creativecommons.org/licenses/by-nc-sa/4.0/" />
      </cc:Work>
      <cc:License
         rdf:about="http://creativecommons.org/licenses/by-nc-sa/4.0/">
        <cc:permits
           rdf:resource="http://creativecommons.org/ns#Reproduction" />
        <cc:permits
           rdf:resource="http://creativecommons.org/ns#Distribution" />
        <cc:requires
           rdf:resource="http://creativecommons.org/ns#Notice" />
        <cc:requires
           rdf:resource="http://creativecommons.org/ns#Attribution" />
        <cc:prohibits
           rdf:resource="http://creativecommons.org/ns#CommercialUse" />
        <cc:permits
           rdf:resource="http://creativecommons.org/ns#DerivativeWorks" />
        <cc:requires
           rdf:resource="http://creativecommons.org/ns#ShareAlike" />
      </cc:License>
    </rdf:RDF>
  </metadata>
  <style
     id="style1">
* {
  stroke-linejoin: round;
  stroke-linecap: round;
}

.ocean,
.lake {
  fill: #c6ecff;
}

#bleeding-sea,
#sea-of-sighs {
  fill: #ffc6d3;
}
#poison-sea {
  fill: #b6c4d2;
}

.land,
.river,
.lake {
  stroke: #0978ab;
  stroke-width: 4;
}

.river {
   fill: none;
}

.land {
  fill: #feffe9;
}

.major-border,
.minor-border {
  fill: none;
  stroke: #646464;
}
.major-border {
  stroke-width: 12;
}
.minor-border {
  stroke-width: 6;
}

/* Colors
  Dark grey: #e0e0e0
  Light grey: #f5f5f5
  Yellow: #feffe9
  Red: #c12838
*/
#westeros {
  fill: #c12838;
}
  </style>
  <g
     id="g198"
     transform="translate(-405.36153,-2.9653317)">
    <g
       id="land"
       class="land"
       transform="translate(31.86141,7.9653525)"
       style="display:inline;fill:#999999;fill-opacity:1;stroke:#2e75d3;stroke-opacity:1">
      <g
         id="g197"
         style="fill:#999999;fill-opacity:1;stroke:#2e75d3;stroke-opacity:1">
        <path
           id="path156"
           d="m 1227,1306 -4,-7 -2,-3 -5,-2 -2,-4 v -3 l -1,-3 4,-4 h 3 l 2,-2 -1,-3 3,-3 9,-3 6,-5 5,-1 -1,-5 7,-6 1,-2 5,-1 4,-4 h 5 l 3,2 7,-1 1,2 3,-1 2,2 h 6 l 2,2 3,1 v 2 l 8,1 3,4 6,1 3,3 6,1 3,-2 2,2 1,4 -2,1 2,3 v 5 l -3,2 -3,1 v 2 l 5,4 1,4 h 7 l 1,4 -1,5 -3,2 v 4 l -2,1 -2,1 -3,-2 -4,1 -2,4 2,3 -5,4 -3,-4 -5,2 -2,5 -10,3 -4,4 -3,-3 -3,1 -4,-7 -7,-1 4,-2 -1,-6 3,-4 -2,-4 h 6 l 1,-4 -2,-3 5,-2 2,-7 -6,3 -8,3 -11,-1 -8,1 v 5 l 5,4 -1,8 -6,2 v 4 l 2,4 4,-1 1,4 -4,4 -3,-1 -3,-3 -10,1 -2,2 -8,-1 -2,3 -7,-2 -5,-4 2,-5 7,-4 z"
           style="fill:#999999;fill-opacity:1;stroke:#2e75d3;stroke-opacity:1" />
        <g
           id="g164"
           style="fill:#999999;fill-opacity:1;stroke:#2e75d3;stroke-opacity:1">
          <path
             id="path157"
             d="m 375.5,2738 2.3,-3 16.1,-5 9.8,-10 3.2,1 7.5,-5 7.1,-2 1.1,8 -0.8,5 4.2,1 -1.2,6 -9.4,7 0.9,5 -4.8,3 h -5.4 -6.5 l -7.2,3 -9.8,-3 -2.1,-9 z"
             style="fill:#999999;fill-opacity:1;stroke:#2e75d3;stroke-opacity:1" />
          <path
             id="path158"
             d="m 1118,2692 h -10 l -3,2 -4,1 -1,1 -10,-1 -5,-4 3,-2 4,1 3,-3 1,1 3,1 2,-2 -1,-4 h 12 l 6,4 h 3 l 1,2 z"
             style="fill:#999999;fill-opacity:1;stroke:#2e75d3;stroke-opacity:1" />
          <path
             id="path159"
             d="m 936.6,2828 0.3,4 6.8,4 9.5,1 1.8,2 0.4,3 16.3,1 3.6,-2 5.8,1 v -5 l 1.7,-3 -3.8,-2 -2.3,-3 -1.7,1 -2.4,1 -2,-2 h -3.8 l -4,2 h -7.1 l -4.9,-5 h -5.2 l -2.3,2 z"
             style="fill:#999999;fill-opacity:1;stroke:#2e75d3;stroke-opacity:1" />
          <path
             id="path160"
             d="m 995.3,2745 2,2 2.7,-1 3,-3 -2,-3 v -8 l -3.2,-3 h -2.6 l -3.6,-4 -2.9,2 1.7,2 0.2,5 -2.6,4 -5,2 -1.9,-2 h -3.4 l 0.1,4 -4.6,2 0.3,4 6.5,1 3.5,-1 1.2,3 h 9.4 l 1.2,-3 z"
             style="fill:#999999;fill-opacity:1;stroke:#2e75d3;stroke-opacity:1" />
          <path
             id="path161"
             d="m 1052,2732 h -12 v 3 l 4,1 3,2 2,3 3,2 h 7 l 3,-1 -1,-2 h 7 l 2,1 1,3 h 5 l 3,3 2,-1 5,6 9,2 2,-4 -1,-4 6,-1 v -5 l -3,-2 v -5 l -9,-8 1,-3 h 5 v -5 l -9,-1 -4,4 v 3 l -9,2 -5,3 -1,2 h -7 l -3,-2 h -4 z"
             style="fill:#999999;fill-opacity:1;stroke:#2e75d3;stroke-opacity:1" />
          <path
             id="path162"
             d="m 952,2707 -0.4,-2 1.7,-3 -7.2,-2 -7.2,3 -6.7,-1 -8.8,3 0.8,2 1.8,1 -5.3,4 -0.4,3 -5.3,2 -7,3 0.2,4 -9.8,11 3,3 3.5,7 h 4.5 l 2.5,3 -2.3,3 -0.2,3 -2,3 2.8,8 -0.8,3 -2.8,2 3.9,6 v 5 l 4,5 7,1 h 5.3 l 7.6,5 v 4 l 3.3,3 13.3,1 2.7,3 h 3.7 l 2.4,-2 h 9.3 l 4.5,3 h 11.9 l 1.4,-4 9.2,-6 5.9,2 h 7 l 3,-4 7,-3 -1,-5 -5,-4 8,-6 4,-1 4,-10 2,-2 -2,-5 3,-4 -3,-1 -8,1 -4,4 -6,1 -2,4 h -10 l -6.4,2 -0.2,5 -3.9,2 h -4.3 l -1.6,-5 -4.1,2 -7.8,-1 -4.9,1 -4.4,-6 -7.3,-5 h -7 l -5.5,-7 3.3,-4 0.4,-8 -4.3,-6 1,-4 6.2,-3 h 7.9 l 6.4,-4 3.7,-8 4.3,-4 v -6 l -5.7,2 -2.3,3 z"
             style="fill:#999999;fill-opacity:1;stroke:#2e75d3;stroke-opacity:1" />
          <path
             id="path163"
             d="m 1151,2720 1,4 -3,1 -6,-3 -1,-3 z m -21,88 v -4 l -3,-2 1,-7 -3,-2 -1,-2 -10,-5 7,-5 1,-3 -8,-3 v -5 l 5,-3 v -6 l 3,-3 7,1 7,1 4,4 4,-1 2,2 h 4 l 2,-4 5,-2 7,1 2,-6 1,-2 -1,-6 -4,-8 -1,-2 -5,-5 v -6 l 9,4 5,6 4,1 -1,8 2,2 2,1 v 5 l 4,6 4,3 2,-1 5,4 -4,10 v 7 h 3 v 6 l 3,2 -1,4 -5,5 h -5 l -2,3 h -5 l -2,-1 -3,1 -2,3 -3,-2 -8,-1 -8,-4 -4,3 -2,5 -4,3 z"
             style="fill:#999999;fill-opacity:1;stroke:#2e75d3;stroke-opacity:1" />
          <path
             id="path164"
             d="m 1003,2835 4,-2 v -5 l 3,-4 5,2 18,1 4,-4 8,2 2,-2 -3,-5 1,-7 5,-4 8,5 v 2 l -2,2 1,4 -4,2 1,6 4,4 -3,9 -5,5 -16,-2 -3,-2 -4,1 -3,3 -4,-1 -6,-5 h -5 l -2,-3 -4,1 z"
             style="fill:#999999;fill-opacity:1;stroke:#2e75d3;stroke-opacity:1" />
        </g>
        <path
           id="path165"
           d="m 940.6,4472 2,2 -0.2,4 -5.5,1 -0.4,-2 1.1,-3 z m 7,-11 3.5,1 4.5,-5 v -4 l -5.3,3 -3.4,4 z m -117.5,-90 0.6,-5 7.8,-3 3.6,5 -1.9,3 0.2,9 -2.9,2 -3.1,-2 -0.8,-7 z m -18.3,64 4.4,-3 1.1,-4 -2.2,-5 -6.5,-1 -7.8,-6 v -3 l 2.7,-3 -0.1,-7 -3.9,-3 -0.2,-4 4.6,-2 h 5.2 l 4.8,-2 1.2,-5 3.4,-1 1.9,3 -1.4,6 4.5,7 h 7.8 l 2.8,-1 h 4.4 l 1,3 -1.2,6 2.6,3 2.9,9 4.3,3 h 2.1 l -0.9,-5 2.5,-3 0.4,-6 -2.6,-6 3.1,-4 v -5 l -2.4,-3 1.4,-5 2.7,-2 3.3,-1 0.3,-4 2.6,-1 2.6,2 0.3,7 0.8,3 -0.5,2 -1.9,1 -0.4,5 4.3,3 -0.6,3 -1,1 2.2,7 2.1,1 h 2.6 l 1.3,4 6.2,-1 1.9,2 -0.5,4 3.1,2 h 13.2 l 4,-2 h 6.8 l 2.3,7 0.5,6 4.2,3 h 2.5 l 1.8,3 1.6,1 -0.3,2 -2.1,1 -0.3,6 1.2,3 3.2,1 4.6,1 4.1,-1 3.2,-1 3.4,1 4.1,1 -1.2,2 -0.2,4 -3.4,2 h -3.2 l -10.1,9 -3.4,1 h -4.4 -3.6 l -1.7,3 -2.9,1 -3.8,-1 h -5.1 l -3.5,-2 H 890 l -1.6,2 1.7,3 -1.3,3 H 884 l -2,3 3.4,7 -0.3,2 -2.9,2 -4.2,-1 -4.1,3 h -9.5 l -4.1,3 -3.8,-2 -6.7,-7 0.6,-4 -4.3,-5 -0.6,-4 3.4,-3 h 3.3 l 0.4,-6 -0.9,-1 0.4,-5 -2.7,-2 -4,-1 h -5.8 l -0.4,-3 3,-4 -1,-4 -3,-4 -3.7,2 -0.3,3 -8.1,1 -7.6,-7 -6.8,-9 z"
           style="fill:#999999;fill-opacity:1;stroke:#2e75d3;stroke-opacity:1" />
        <g
           id="g169"
           style="fill:#999999;fill-opacity:1;stroke:#2e75d3;stroke-opacity:1">
          <path
             id="path166"
             d="m 995.2,3806 8.8,4 6,1 3,-3 7,-4 2,2 h 7 l 4,2 -2,3 -3,1 -7,5 -1,3 -6,1 -4,-3 -7,1 -8,-2 -2.8,-2 2.7,-2 z"
             style="fill:#999999;fill-opacity:1;stroke:#2e75d3;stroke-opacity:1" />
          <path
             id="path167"
             d="m 990.2,3792 -2,-4 -9.2,-4 -4.5,1 -2.8,2 -7.3,-1 -5.8,-1 -0.3,-2 -3.4,1 -1.7,4 1.9,3 4.3,1 1.7,1 0.7,3 h 9.1 l 4.7,-2 1.6,-3 h 2.8 l 3.2,2 z"
             style="fill:#999999;fill-opacity:1;stroke:#2e75d3;stroke-opacity:1" />
          <path
             id="path168"
             d="m 1043,3804 3,-2 v -4 l -2,-2 2,-2 11,1 1,-2 3,1 3,-4 2,-1 h 4 l 6,8 6,-1 h 7 l 3,-2 h 5 l 1,2 -3,1 -1,3 -3,3 v 2 h -8 l -1,2 1,2 -5,2 -7,1 -3,-2 -1,-4 -2,-3 h -4 l -4,3 -5,1 -5,-2 h -3 z"
             style="fill:#999999;fill-opacity:1;stroke:#2e75d3;stroke-opacity:1" />
          <path
             id="path169"
             d="m 990.1,3753 h 12.9 4 l 9,6 1,7 5,2 3,4 -8,1 -2,-2 h -4 l -2,2 -5,-1 -5.8,-4 v -4 l -5.2,-6 -2.8,-1 z"
             style="fill:#999999;fill-opacity:1;stroke:#2e75d3;stroke-opacity:1" />
        </g>
        <path
           id="path170"
           d="m 938.2,3157 4,-3 -0.4,-5 5.9,-6 3.6,-5 5.6,-4 h 4.5 l 4,-4 2.5,-4 h 3.4 l -0.7,-12 2.8,-2 h 2.7 l 2.2,-3 6,-1 7.2,-6 1.1,-8 -4,-4 -2.3,-1 0.5,-6 3.6,-2 0.3,-3 5.6,-1 6.7,-5 2,-5 h 6 l 3,4 1,8 -5,3 -3,3 1,3 -4,4 2,12 -4,9 -6.7,2 -3.7,5 2.7,3 -0.5,5 -4,4 -3.5,1 -2.5,1 0.6,5 -6.7,3 -4.9,1 -3.6,2 h -5.6 l -5.8,4 -6,3 -4.3,7 h -7.2 z"
           style="fill:#999999;fill-opacity:1;stroke:#2e75d3;stroke-opacity:1" />
        <g
           id="g173"
           style="fill:#999999;fill-opacity:1;stroke:#2e75d3;stroke-opacity:1">
          <path
             id="path171"
             d="m 2027,2353 5,3 h 7 l 14,4 6,1 2,-5 h 8 l 1,-3 -6,-2 -6,1 -6,-4 v -4 l -12,1 -4,-1 -1,-2 h -3 l -2,2 -2,1 -1,2 2,2 z"
             style="fill:#999999;fill-opacity:1;stroke:#2e75d3;stroke-opacity:1" />
          <path
             id="path172"
             d="m 1973,2364 v -5 l 3,-2 -3,-3 -7,1 -5,-2 -1,-4 -6,-1 -2,3 -9,1 -4,2 h -5 v 6 l -8,6 h -6 l -1,5 -3,4 v 3 l 9,1 5,-4 h 5 l 4,-6 5,1 2,1 h 7 l 2,-2 -1,-3 5,-2 z"
             style="fill:#999999;fill-opacity:1;stroke:#2e75d3;stroke-opacity:1" />
          <path
             id="path173"
             d="m 1972,2338 h 6 l 2,-3 3,-2 4,1 h 5 l 2,-3 6,1 3,3 h 8 l 2,3 -6,5 -6,4 -6,-2 -8,1 -4,-3 -10,-1 -2,-2 z"
             style="fill:#999999;fill-opacity:1;stroke:#2e75d3;stroke-opacity:1" />
        </g>
        <path
           id="path174"
           d="m 2228,2396 4,-6 8,-2 4,-3 -1,-3 h -8 l -7,5 -7,-1 -3,-1 h -6 l -1,3 -6,3 3,2 h 9 l 6,4 z"
           style="fill:#999999;fill-opacity:1;stroke:#2e75d3;stroke-opacity:1" />
        <path
           id="path175"
           d="m 2421,2358 h 6 l 1,3 5,-1 3,-4 7,-1 6,6 -6,6 -4,1 -5,-1 -3,3 h -12 l -4,1 -3,-3 2,-4 h 3 l 1,-3 z"
           style="fill:#999999;fill-opacity:1;stroke:#2e75d3;stroke-opacity:1" />
        <path
           id="path176"
           d="m 2434,3073 9,-10 1,-7 2,-4 h 5 l 1,3 -2,3 4,4 -3,5 -5,3 -4,4 -7,2 z"
           style="fill:#999999;fill-opacity:1;stroke:#2e75d3;stroke-opacity:1" />
        <path
           id="path177"
           d="m 2254,3238 -5,6 2,4 1,5 -2,3 3,3 4,-1 5,-3 1,-7 4,-5 5,-1 2,2 -1,4 h 5 l 3,-6 6,2 2,1 h 6 l 3,-2 3,3 1,3 h 4 l 2,-6 5,-3 2,-3 5,-2 7,1 2,-4 4,1 1,-3 -5,-2 -5,-4 -3,3 h -3 v 4 l -9,2 -2,-4 -8,1 -6,1 -2,-3 h -4 l -1,3 h -7 l -1,2 -3,-1 -3,-3 h -3 l -4,-2 h -4 l -7,3 v 3 l 4,2 -1,3 z"
           style="fill:#999999;fill-opacity:1;stroke:#2e75d3;stroke-opacity:1" />
        <path
           id="path178"
           d="m 2381,3198 2,2 -1,2 -8,-1 -3,3 -1,4 -5,-3 -5,-2 -4,4 -2,4 -6,-2 h -4 v 2 l -4,1 v 4 l -3,2 -1,-2 -2,-1 v -3 l 1,-3 -2,-3 -2,-2 2,-4 h 7 l 2,-4 5,-1 3,3 h 6 l 2,-3 9,-1 5,3 4,1 z"
           style="fill:#999999;fill-opacity:1;stroke:#2e75d3;stroke-opacity:1" />
        <path
           id="path179"
           d="m 2303,3384 h -4 l -3,1 -1,-3 2,-2 v -2 l 3,-1 3,-4 -2,-2 1,-3 h 8 l 4,-5 2,1 v 5 l -4,4 -4,3 -3,3 v 3 z"
           style="fill:#999999;fill-opacity:1;stroke:#2e75d3;stroke-opacity:1" />
        <path
           id="path180"
           d="m 2473,3710 1,8 -2,1 1,3 h 4 l 2,1 v 4 h 13 l 6,-4 v -4 l -8,-1 -5,-2 v -6 l -4,-2 z m -19,-59 3,-2 3,-2 2,3 v 9 l -3,4 1,3 3,1 -3,3 h -5 l -1,1 1,5 5,3 5,6 h 4 l 5,3 v 4 l -2,3 h -4 l -5,7 -1,4 h -6 l -3,1 4,4 v 4 h 4 l 2,3 -1,5 3,5 3,1 -3,5 -5,-1 -2,3 v 6 l -6,11 -7,-1 v 4 l 3,6 5,4 h 6 l 4,-1 3,3 -3,2 -9,1 -4,3 -9,-1 h -4 l -7,-3 h -3 l -1,2 -5,-2 -1,-4 -3,-4 v -6 l -4,-7 v -6 l -5,-2 1,-4 3,-1 -1,-2 -3,-2 4,-5 -5,-5 -5,-1 h -5 v -3 l -5,-4 -1,-5 h 4 l 3,-8 h 3 l 3,3 2,-1 5,4 3,-5 4,-2 v -5 l 1,-11 -5,-3 v -4 l 4,-2 v -3 l -1,-2 v -4 l -2,-3 h -5 l -2,-4 3,-4 -1,-5 -4,-6 4,-4 10,1 6,3 9,7 4,-4 4,1 3,-4 h 6 l 2,3 z"
           style="fill:#999999;fill-opacity:1;stroke:#2e75d3;stroke-opacity:1" />
        <path
           id="path181"
           d="m 1904,4147 4,4 9,1 5,-4 14,2 -1,-8 -7,1 5,-6 -7,-1 -10,1 z"
           style="fill:#999999;fill-opacity:1;stroke:#2e75d3;stroke-opacity:1" />
        <path
           id="path182"
           d="m 2433,3952 3,2 v 2 l 4,1 5,-3 v -6 l 5,-4 v -4 l 1,-3 h 4 v -2 l -5,-2 -7,4 1,6 -3,2 -3,1 -4,4 z m -47,69 -6,-5 3,-9 6,-4 3,-8 7,-8 1,-4 4,1 4,-3 -2,-3 4,-6 4,-1 3,-4 5,-3 3,-3 1,4 -2,3 -1,6 -3,3 v 3 l 1,3 -1,2 -3,-1 -4,5 1,6 -4,5 -3,1 -2,-2 -5,5 -1,7 -5,2 -2,7 z"
           style="fill:#999999;fill-opacity:1;stroke:#2e75d3;stroke-opacity:1" />
        <path
           id="path183"
           d="m 2267,928.9 3,4.7 -1,4.5 3,6.2 -9,4.7 1,5.7 6,-0.2 2,4.9 5,1 v 4.6 l 5,2.6 5,2.3 3,-0.8 4,1 v -3.5 l -4,-2.9 v -3 l 3,-1.1 4,0.6 -1,-3.9 -3,-2 -1,-5.3 4,-0.8 -1,-3.1 h -2 l -4,-5.1 -4,-2.1 v -4.5 l -1,-8 -3,-1 -1,-3.1 -5,0.4 -4,3.9 -3,0.4 z"
           style="fill:#999999;fill-opacity:1;stroke:#2e75d3;stroke-opacity:1" />
        <path
           id="path184"
           d="m 2463,934.9 -2,3.6 -5,3.7 2,2.1 v 4 l 4,3.7 3,1.2 v 6.8 l 4,6.2 5,4.9 3,5 1,6.4 2,4.4 -5,2.5 -3,-1.8 v -3.1 l -7,-5.5 -4,-0.2 -1,4.8 3,2.9 1,4.1 6,1 3,2.7 -2,3.6 1,3.1 -3,2 h -4 l 3,6 2,2 -1,5 -5,2 1,4 -3,2 2,5 4,1 5,4 1,5 3,4 -1,3 -4,1 1,4 -2,2 h -3 v 5 l 4,5 5,2 h 9 l 6,2 3,3 3,-3 -1,-4 3,-2 -1,-3 2,-1 h 6 l 5,-3 v -4 l -2,-3 3,-3 5,-1 1,-2 -3,-1 4,-1 -1,-2 -3,-1 -6,-5 -3,-2 -1,-5 4,-2 -6,-6 h -4 l -3,-4 -5,-4 2,-3 -1,-1 -2,-1 -2,-4.4 -3,-1.5 2,-2.8 v -3.9 l 3,-1.1 -1,-4.4 3,-1.5 v -2 l -3,-2.2 v -5 l -4,-2.1 -3,-0.2 1,-3 -6,-4.5 -3,-2 -3,-6.7 v -4 l 3,-1.9 -1,-2.6 -5,-3.6 -2,-7.3 z m 2,178.1 h 9 l 2,-8 4,-3 1,-6 -4,-3 h -3 l -2,-4 -5,-2 h -3 v 2 l 3,2 -1,4 5,1 2,4 -1,3 -3,3 -1,3 -3,2 z m 11,28 v -1 l 4,-3 -1,-3 4,-6 7,-1 -3,4 2,2 -1,4 -5,3 z m -162,-289.5 2,-1.2 5,-5.8 v 2.3 l 3,0.5 4,3.4 1,3.1 5,2.3 1,3.5 -3,2.1 1,3.3 2,1.6 -1,5.6 -1,2.4 -1,4.5 -3,5 -3,0.5 1,-5.5 -3,-0.2 -3,-3.5 1,-5 -2,-8.3 v -4.9 l -7,-4.2 z m 38,361.5 -4,-5 3,-4 v -5 l -4,-3 v -5 l 5,-4 v -13 l 3,-4 1,-4 -3,-2 -3,2 -2,-1 v -3 l -2,-2 1,-4 -8,-7 1,-4 -4,-2 v -3 l -2,-1 -5,-1 -3,-3 2,-2 -4,-6 -4,-1 h -7 l -4,2 -7,-1 -1,-2 -6,-2 v -7 l -3,-8 -5,-1 v -2 l 2,-5 v -6 l 3,-1 -1,-4 -3,-2 v -6 l -1,-3 -5,1 h -3 l -5,-4 1,-10 4,-1 2,-3 v -5 l -6,-4 v -3 l -3,-2 1,-2 7,-6 3,-1 1,-5 4,-5 2,1 1,2 h 6 l 1,-2 v -2 l -3,-2 v -5 l 4,2 5,-1 1,-2 7,-2 1,4 4,4 7,-1 4,1 v 5 l 5,4 h 3 l 2,1 1,5 h 2 l 2,-2 3,3 -1,8 3,2 -2,3 -2,-1 -1,3 2,3 1,3 -2,4 3,3 h 2 l 2,-4 1,-6 4,-3 v -8 l 1,-6 -3,-4 -3,-2 v -8 l 2,-2 2,1 3,-2 -3,-3 -2,-4 -2,-6 -2,-2 -1,-4 -4,-2 v -3 l 8,-6.9 -1,-3.1 2,-1.2 v -3.1 l -3,-0.9 v -4.9 l 4,-3.3 3,-0.1 -1,-4.7 v -3.5 l -3,-0.7 v -6.2 -6.4 l -4,-1.8 v -2.7 l -4,-2.8 2,-2.3 6,-1.4 2,-3.2 -5,-5.3 4,-3.8 6,-1.7 2,-2.7 12,6.9 8,0.1 4,3.9 -3,1.9 1,7.5 10,8.1 -6,6.1 3,4.5 5,0.3 2,1.8 v 5.4 l 3,2.6 5,5.5 -1,2 -2,0.7 v 2 l 5,3 1,3.3 7,1 3,4.5 h 11 l 2,3.6 v 3 l -4,2 2,2 -2,3 -4,2 -1,3 3,5 v 4 l 3,2 -2,2 2,3 -4,1 -3,-1 -2,8 3,4 2,6 -3,2 h -6 l -2,4 -4,2 -1,3 -9,2 2,4 6,4 8,1 2,-2 5,1 1,5 5,1 2,2 v 4 l 5,1 v 4 l -5,1 -1,3 3,1 9,-3 4,1 2,3 -2,2 2,4 -6,7 v 4 l 2,4 h 5 l 1,3 -3,3 v 4 l 4,2 v 6 l -3,3 h -3 l -2,1 2,5 v 3 l 6,2 -1,3 -10,1 -3,4 -15,-1 -4,5 v 9 l -6,3 -5,2 1,2 5,2 -1,3 -3,3 v 3 l -3,2 h -10 l -5,2 h -13 l -4,-3 h -4 l -1,8 v 6 l -6,4 -1,4 z m -147,-185 2,-3 -1,-8 2,-1 4,1 2,3 1,4 -4,4 -4,2 z"
           style="fill:#999999;fill-opacity:1;stroke:#2e75d3;stroke-opacity:1" />
        <g
           id="g196"
           style="fill:#999999;fill-opacity:1;stroke:#2e75d3;stroke-opacity:1">
          <path
             id="path185"
             d="m 2431,1644 2,-2 v -3 h 4 l 3,4 -1,5 1,4 3,2 -4,2 -2,-3 -1,-4 -1,-3 h -3 z"
             style="fill:#999999;fill-opacity:1;stroke:#2e75d3;stroke-opacity:1" />
          <path
             id="path186"
             d="m 2555,2821 3,-2 5,-1 3,1 2,-3 h 5 l -1,2 -1,1 v 3 h -5 l -3,3 h -6 l -3,-2 z"
             style="fill:#999999;fill-opacity:1;stroke:#2e75d3;stroke-opacity:1" />
          <path
             id="path187"
             d="m 2195,3243 1,1 5,-1 4,2 1,5 -3,3 h -4 v -3 l -2,-2 -3,-1 -1,-3 z"
             style="fill:#999999;fill-opacity:1;stroke:#2e75d3;stroke-opacity:1" />
          <path
             id="path188"
             d="m 2204,3424 3,-2 2,2 -1,3 -4,1 -1,-2 z m -42,-4 6,-3 -1,4 -3,1 z"
             style="fill:#999999;fill-opacity:1;stroke:#2e75d3;stroke-opacity:1" />
          <path
             id="path189"
             d="m 2369,3970 h 5 l 1,3 -3,2 -5,-2 -1,-2 z m -4,60 h 7 l 3,2 -1,2 h -4 l -3,2 -5,-1 v -2 z"
             style="fill:#999999;fill-opacity:1;stroke:#2e75d3;stroke-opacity:1" />
          <path
             id="path190"
             d="m 2216,4041 1,3 h 1 v 3 l -3,4 -5,1 -1,-3 z m -35,24 1,7 h 3 l 2,6 -3,3 1,4 -4,3 2,3 h 9 l 2,-1 h 5 l 3,-2 v -2 l -3,-4 3,-3 1,-4 3,-2 h 6 l -3,-5 -5,-3 -5,2 -3,-3 -7,-1 z"
             style="fill:#999999;fill-opacity:1;stroke:#2e75d3;stroke-opacity:1" />
          <path
             id="path191"
             d="m 2035,4033 1,3 4,-1 2,-1 h 5 v 3 l -3,2 v 4 l -9,-1 -7,-4 3,-5 z m 35,-4 -9,4 2,3 4,2 h 8 l 4,3 h 5 l 1,-3 -6,-4 -3,-1 z"
             style="fill:#999999;fill-opacity:1;stroke:#2e75d3;stroke-opacity:1" />
          <path
             id="path192"
             d="m 1811,4172 -4,-2 -6,2 v 3 l 4,1 z m 1,-41 v 3 l 2,2 -3,4 -4,-2 -1,-4 z"
             style="fill:#999999;fill-opacity:1;stroke:#2e75d3;stroke-opacity:1" />
          <path
             id="path193"
             d="m 2188,4237 3,5 -2,1 -5,-2 v -3 z m 19,3 h 6 v 3 l -2,3 v 2 l -3,2 -2,-1 3,-3 -1,-2 -2,-2 z m -18,-24 2,5 -3,1 -1,4 -3,2 -3,-4 1,-3 z m -18,-16 v 5 l -3,1 -1,-2 v -4 l 2,-3 z"
             style="fill:#999999;fill-opacity:1;stroke:#2e75d3;stroke-opacity:1" />
          <path
             id="path194"
             d="m 2117,4514 2,3 1,3 -4,3 h -6 l 5,-3 2,-2 z m 52,12 -4,1 v 5 l 4,3 1,-5 z"
             style="fill:#999999;fill-opacity:1;stroke:#2e75d3;stroke-opacity:1" />
          <path
             id="path195"
             d="m 1490,4522 3,1 -1,4 3,4 -2,2 -4,-1 -1,-5 2,-2 z m -98,6 4,2 v 3 l -4,3 h -6 l -2,-4 5,-2 z"
             style="fill:#999999;fill-opacity:1;stroke:#2e75d3;stroke-opacity:1" />
          <path
             id="path196"
             d="m 902,2081 3.6,-3 5.7,4 1,11 5.1,7 -2.1,3 0.1,4 -6,5 -2.9,-1 0.1,-2 2.7,-1 0.2,-9 -1.2,-4 -2.5,-1 -2,1 -2.1,-4 1.4,-3 1.2,-2 z m -85.4,-19 0.4,-1 5.6,-1 4.9,2 -0.3,2 h -3.9 l -4.7,5 -4,-1 1.7,-3 z m -24.8,2 -0.2,-5 3.3,-3 h 5.1 l 1.8,3 -1.6,5 2.3,4 -1.9,5 -5.1,1 -5.5,5 -6,2 -2.2,-3 3.7,-8 2.4,-3 z"
             style="fill:#999999;fill-opacity:1;stroke:#2e75d3;stroke-opacity:1" />
        </g>
        <path
           id="path197"
           d="m 2292,-3 v 3 l -1,6.773 -22,6.907 -29,5.86 3,5.08 -3,1.95 3,3.91 -4,11.13 -22,-1.95 -5,-2.74 -6,2.74 1,6.64 -3,5.66 5,2.15 7,11.72 -6,0.78 3,7.23 -4,7.81 -13,9.18 -1,6.44 13,-0.78 4,7.21 -9,9.6 v 15.2 l -5,13.1 -13,11.7 -15,24.6 2,20.3 -11,8.3 -6,-2.6 -1,-7 -8,1.7 -1,-3.3 -12,0.4 v 9.6 l -7,12.3 -15,-0.8 -12,1 -7,6.2 4,3.7 -4,9.6 -6,3.3 -5,6.1 -9,-0.6 1,-8.4 -24,-13.3 2,-10.9 -7,-12.7 -3,-1.2 2,5.7 -2,9 -2,14.2 7,2 6,11.3 -3,6.1 -6,-0.4 -6,2.9 6,12.1 -2,3.3 -10,-0.9 -6,4.2 3,3.8 7,-2 12,-2.3 7,3.9 1,7.4 6,1 -1,7.2 -7,4.7 -11,-0.2 -12,5.1 2,6.7 -12,9.1 -11,10.1 -6,13.1 -10,5.3 -5,-4 -6,5.4 -1,4.1 -12,13.8 -7,2.1 -7,7.2 5,2.7 -2,8 2,5.7 6,1.9 7,-9.1 4,2.7 -2,7.5 5,11.4 8,2.3 2,-3 5,7.3 11,7.9 4,3.1 -4,5.2 v 7.1 l -4,1.8 -7,-2.9 -3,5.6 -7,-1 -1,-5.5 -9,-2.1 -8,6.3 v 7.5 l -4,4.7 -5,-0.4 -7,2.2 -1,11.9 -15,15.7 -3,9.3 4,5.8 v 9.4 l -7,1.2 -2,8.6 4,2.2 1,7.7 4,4.4 v 7.5 l -10,2.2 -5,12.8 -7,6.3 3,7.1 h 3 l 7,2.5 1,4.9 -4,7.7 v 11.9 l 9,1.9 1,5.4 -5,1.4 -9,16.3 8,17.2 6,-1.8 -5,16.6 -2,1.8 -1,7.5 3,1.8 4,4.2 4,1 v 4.4 l -8,4.2 3,9.8 3,-0.2 3,7.6 9,4.6 7,-3.2 5,3.2 -4,3.2 -1,9.6 2,7.2 6,7.2 9,0.1 3,8 4,4.6 5,-0.1 5,5.5 -3,2.9 4,2.5 3,3 -5,7.6 -9,-2.8 -4,3.1 1,13.2 -10,10.8 -6,-5.5 -11,2.5 3,7.2 -11,10.5 h -9 l -8,7.7 11,9.1 6,0.8 -4,4.5 2,6 9,-1.6 v 7.9 l 9,5.3 5,-1.1 13,3.1 1,5.4 -4,2.8 4,1.5 2,3.5 29,6.9 4,5 5,0.3 1,4.5 -8,2.5 -4,-2.6 -8,-0.9 3,7.4 5,0.5 3,8.2 -8,2.3 -2,6.9 8,0.6 -1,2.3 6,7.8 7,1.2 10,-2.2 8,2.3 6,-2.6 v -10.2 l 11,-2 5,-5.6 4,4.7 -7,8.9 3,5.4 13,1.6 v -4.1 l 2,-1.9 2,-4.9 10,-6.4 2,-12.9 4,-1.8 3,-8.9 11,-4.3 6,-4.7 2,4.7 -4,1.7 v 5.5 l -7,0.7 -2,8.3 5,1.8 5,2.4 -4,5.2 2,4.2 8,-0.7 6,4.6 v 7.4 l -7,5 7,4.7 4,-4.4 V 893 l 12,-2.6 -6,-7.8 5,-3.9 4,-6.2 -3,-8.2 4,-2.7 1,-7 -4,-13.4 -16,-12.9 3,-5.4 7,-1 1,-8.7 6,-5.9 4,-3.7 3,3.4 -2,5 3,0.1 2,5.1 -2,6.7 3,1.1 5,-4.1 5,-2.9 11,-0.7 -1,6.2 -4,5.2 v 8.2 l 5,3.4 4,-1.5 1,-3.5 6,-0.4 -1,4.1 -4,6.6 1,12.4 -5,-0.5 -1,5.9 8,9.1 -1,8.3 -4,0.8 -2,8.3 3,5.8 5,0.4 v 2.5 l -3,1.7 v 4.3 l 5,3.8 -2,7.6 -2,7.2 3,6.5 -10,6.3 -1,7.3 -10,11.3 -2,-6.2 3,-3.9 -3,-8.4 -7,-3 -1,6.3 -7,4.1 -1,5.7 -11,-0.4 -1,4.9 8,4.4 v 3 l 5,3.2 -1,4.8 -5,1.5 3,4.6 -3,8.8 3,5.8 -7,2.4 -5,10.8 -4,1 v -3 h -4 l 1,9 -7,1 -3,-4 -12,2 v 7 l -4,5 -7,-1 -5,5 -1,5 -6,2 8,3 -4,4 v 6 l 9,5 -1,8 h 7 l 12,8 1,4 -7,2 6,11 -4,6 4,6 h -7 l -4,3 6,5 -1,4 h -13 l -2,10 9,1 5,-5 9,2 16,11 14,-1 1,6 4,3 5,-1 3,3 h -8 l -4,7 4,3 1,5 12,3 4,7 v 5 l -6,5 3,3 -3,11 7,2 3,11 6,3 -7,1 -9,-3 1,25 8,-2 3,6 -1,6 5,6 7,5 1,4 -8,1 -1,4 2,7 -7,5 v 8 l -4,2 2,7 -6,6 10,1 15,-5 9,3 6,-6 21,1 1,9 10,6 h 10 l 5,5 11,1 8,-3 18,4 2,5 -2,5 8,1 1,6 21,5 v -6 l 16,2 -1,5 5,6 h -8 l 1,9 h 27 l 5,-6 -4,-7 10,-5 -2,-4 6,-3 4,-7 13,4 9,-2 1,-5 7,-1 16,-6 34,5 8,6 -6,1 -5,4 7,8 11,1 6,3 -1,4 -2,11 -9,2 8,5 -2,9 9,7 -5,5 9,3 5,8 -4,6 v 7 l 6,10 -6,2 v 5 l 5,6 -10,6 4,12 -4,6 4,11 -7,1 -4,8 v 10 l -14,6 4,17 -5,5 -3,12 -7,2 -2,9 -7,8 -2,14 11,1 -4,21 -5,4 -1,17 4,4 1,5 -1,3 1,3 -2,7 3,6 -5,10 -4,-6 3,-6 -5,-2 1,-9 -6,-3 -2,-6 -7,-1 -5,-5 6,-13 -6,-3 2,-4 -2,-9 -15,-10 7,-7 v -9 h -7 l -2,3 -14,1 -7,-3 3,-4 -3,-7 -11,-9 -3,15 8,6 -1,4 -6,2 1,4 -9,6 11,8 -4,5 6,5 h 7 l -1,5 -14,1 2,9 -10,5 8,8 -3,4 2,5 -9,-1 v 15 l -11,2 -1,3 -9,5 h -5 l -2,3 4,4 -2,7 -6,3 -4,-3 h -5 v -4 h 3 l -2,-3 h -7 l -2,7 -7,-3 h -5 v 3 l -6,2 v 6 l -5,3 10,6 -1,10 7,9 -8,1 -9,12 -13,3 -1,-6 4,-2 v -4 l -12,-5 h -11 l 2,-5 -9,-3 v -10 l -11,-5 -10,1 1,-4 -7,-1 -3,3 -10,1 -5,-9 3,17 11,1 6,6 8,2 -2,5 2,5 1,8 -11,-1 -3,3 h -6 l -3,7 10,1 3,6 5,1 6,10 5,1 3,3 -7,1 -4,-5 -7,-1 v -4 l -5,-1 -6,4 h -7 l -9,3 -14,-3 8,6 10,1 6,6 9,-1 3,9 -6,5 4,1 13,6 h 9 l 2,-4 14,7 6,7 -8,7 v 5 h -4 l 4,6 -2,7 4,11 4,1 3,3 3,10 -8,2 -2,6 -12,-8 h -10 l -1,5 -4,1 -7,-2 -6,4 11,2 -1,4 6,7 -6,4 v 7 l 8,-1 7,-5 4,3 h 10 l 9,-3 9,6 -6,2 -5,9 12,4 -2,4 h 6 v 5 l -4,2 3,4 -6,2 v 8 l -5,3 9,4 5,-5 5,5 h 9 l 13,-3 -1,11 12,8 -6,5 9,10 h -12 l -2,5 -4,1 -4,5 -11,-5 -13,3 -1,4 h 10 l 3,4 h -9 l 1,5 10,4 1,-8 h 9 l 10,-4 3,4 15,-1 6,9 -15,-3 -2,6 -2,7 -6,-3 -10,3 -6,9 3,4 13,-1 -4,8 16,8 10,9 -3,2 2,5 14,5 5,-1 -1,-7 4,-1 5,8 13,5 -1,-5 5,1 4,8 h 8 l 3,3 -5,6 -8,1 1,6 h 6 l 6,-5 6,2 15,3 1,7 9,5 7,1 9,5 -3,5 -8,-2 -4,2 -1,10 -10,-1 -20,-9 -3,3 -11,-3 -6,4 -11,-3 h -10 l -3,5 -5,-3 -9,-1 1,-8 -20,-8 -1,4 -10,-1 -13,-4 4,-4 -3,-4 5,-6 -13,-3 -1,-5 -14,-2 5,10 -5,3 -8,-7 -6,3 -23,-1 v 5 l -13,-3 2,-5 -6,-4 h -9 l -4,-7 h -6 l -3,-5 h -7 l -10,-6 1,7 6,1 v 7 l 5,3 2,8 -6,4 4,4 -1,5 6,6 -6,4 -4,9 -20,3 8,3 v 8 l 5,7 -2,3 8,7 -12,7 h -9 v 7 h 4 l 3,11 3,3 -1,6 -4,1 2,11 -4,6 -8,-1 -7,5 -5,-1 3,5 9,1 1,7 5,-1 5,4 -3,4 1,6 -5,1 5,5 -1,3 -4,-2 -5,4 3,4 -14,2 4,7 -6,9 h -6 l -3,5 2,8 -2,3 2,5 -3,3 -27,5 3,6 -23,4 v -6 l -10,-3 -11,1 -3,6 4,3 -16,4 -11,9 -1,6 -8,-1 1,-5 -6,-4 7,-3 v -6 l -5,-1 -1,-6 -5,2 -3,-4 -7,-1 4,4 -3,1 -4,-10 -17,-4 -11,6 -2,-1 -2,4 6,6 -6,1 2,2 v 5 h -9 l -6,8 -9,4 -1,8 h -3 l -14,-7 -7,4 -7,-2 -2,-2 6,-5 -6,-1 2,-4 7,-3 1,-8 -7,-6 -2,-5 7,-5 -2,-6 h -3 l -2,-4 4,-10 -3,-7 -15,7 2,11 -9,2 -5,7 -11,1 1,-6 6,-3 -2,-4 v -5 h 5 l -2,-13 -5,-6 5,-4 -2,-6 3,-9 -5,-3 -5,-9 6,-8 -6,-3 2,-8 -8,-3 5,-5 -1,-6 7,1 v -4 l -26,-6 -5,-5 2,-8 -5,-4 v -6 l -4,-3 -5,3 v 6 l -7,2 2,6 1,9 6,1 3,-2 8,5 -5,7 10,3 -4,3 1,7 -4,5 -7,-2 3,8 h 8 l 5,8 9,4 v 6 l -10,5 v 5 l -4,2 3,9 -5,-2 -4,3 v 8 l -6,3 -1,6 -16,3 v 3 l -6,6 15,2 2,10 8,8 -5,4 -9,-2 -6,6 -6,3 7,5 1,16 -4,2 -6,-3 -11,1 -6,6 7,2 -4,4 -10,-2 -7,3 1,5 11,9 1,6 -3,3 -8,-1 -4,6 2,7 -5,2 -3,7 6,7 -2,3 1,6 -4,3 -5,-5 -9,-1 -1,3 -11,4 3,5 -9,-1 -5,9 8,7 -5,4 -2,7 12,-1 -2,6 -10,4 1,10 -4,3 6,3 8,-1 3,6 15,1 -7,5 -8,-2 -9,4 h -10 l -4,5 -5,1 -4,-3 -6,3 2,4 -1,7 -6,-2 -6,7 -1,5 -2,3 3,4 h 7 l 3,7 h 6 l 6,7 8,3 1,4 -6,6 5,8 -7,3 4,4 4,-2 10,-1 6,2 h 7 l 7,5 -1,7 7,1 3,4 h 11 l 6,3 8,-1 -2,-4 10,-6 2,4 10,-1 v -3 l 15,-1 12,-12 9,1 11,-5 7,2 5,8 h 9 v 7 l 7,5 7,-3 11,2 4,-6 -8,-12 -5,-1 -7,-12 12,-4 6,5 h 8 l 3,-5 17,7 11,-1 5,9 4,-3 7,-2 v -3 l 7,-3 -2,-9 -9,-1 -4,-10 -5,-2 3,-3 10,2 12,-2 7,6 9,2 -1,-7 25,7 -1,5 15,1 -2,-3 3,-2 -4,-6 h 5 l 5,-4 6,-3 8,7 6,1 2,-5 -3,-3 8,-1 12,-4 1,-9 -5,-2 5,-4 13,1 5,-3 v -6 l 14,6 2,4 h 5 v -4 h 7 l 2,4 12,-1 4,-9 11,-1 15,-12 9,-1 -3,5 9,1 v 5 l -8,-1 -1,7 -4,1 -6,-2 v 2 l 4,2 -1,4 -7,2 -5,6 v 4 l -8,6 12,5 1,-5 10,-1 4,2 1,-3 -2,-2 h 14 l 3,-4 h 6 l 5,5 7,-3 -2,-4 21,-4 3,3 6,-1 -5,3 7,2 2,-2 h 18 l 7,-3 -2,-4 7,-3 2,-6 8,-4 6,4 h 9 l -1,-5 2,-4 h 7 v -10 l 12,-2 9,-8 11,3 5,-3 -3,-6 8,-4 11,1 7,-4 h 8 l 13,-7 5,5 -4,4 -7,1 -7,11 -12,-2 -10,7 v 9 l -10,-1 -3,5 -8,1 -11,-2 2,9 -13,3 v 11 l -4,-1 -4,4 -12,-1 -4,4 3,6 h -9 l -2,3 -9,2 -3,9 -11,5 -1,5 -12,16 8,-2 5,-6 7,1 14,-9 1,-4 6,-2 7,5 h 6 l 2,-5 10,1 12,-5 3,-10 -3,-3 12,-6 14,-2 6,-9 18,-7 1,6 -8,10 -11,1 -2,8 -9,3 -1,2 10,1 -9,2 -3,3 1,6 h -9 l -1,11 -9,-1 -4,12 -8,2 -1,5 -10,1 -13,13 -8,1 -5,13 -11,9 h 9 l 7,-4 1,-5 8,-8 11,1 12,-2 3,-6 h 7 l 9,-3 -2,-4 5,-4 13,1 10,-4 -4,-7 v -6 l 9,-1 2,-4 8,-3 9,-2 19,-7 4,-5 12,2 7,-3 3,3 -6,5 -2,6 h -14 l -11,10 4,5 h -9 l -4,7 7,3 -10,3 -11,3 -8,8 1,4 -12,5 -9,11 16,-3 6,-3 1,-4 3,-3 h 10 l 6,-7 10,3 8,-7 -4,-3 2,-4 7,-1 9,-6 v -6 l 12,-1 9,-4 v -5 l 12,-4 8,1 5,-3 -1,-3 2,-5 15,-2 3,-3 14,-6 11,-1 -4,6 h -4 l -4,4 5,6 h -18 l -2,7 h -9 l -4,7 -12,1 v 6 h -6 l -7,4 v 3 h 5 l 1,4 -10,5 1,7 -12,1 -7,8 h -11 l -7,3 -1,5 6,3 2,3 -12,1 -4,3 4,4 v 3 h -16 l -3,9 h -7 l -14,-3 -11,2 -5,9 -14,-6 h -10 l -7,3 1,5 h -4 l -6,-3 -10,2 3,6 -2,2 -8,-3 -3,4 v 5 l -6,6 -12,-1 v 7 h -9 l -10,7 -1,5 7,1 -2,3 -12,1 -15,17 h -6 l -1,5 4,4 -15,6 2,9 -4,6 -9,-1 1,9 -10,1 -2,12 -10,4 -1,6 11,-2 11,-5 1,-4 11,-9 -2,-5 14,-6 -2,-6 7,-4 h 9 l 3,-8 -3,-3 7,-8 h 15 l 19,-9 5,1 v 4 l 5,2 3,-3 -3,-3 7,-8 h 7 l 7,-5 -1,-5 5,-4 h 8 l 9,-6 h 8 v 5 l 9,2 4,-5 v -7 l 8,2 8,-2 -1,-6 11,-3 1,3 -3,3 3,5 v 3 l -7,2 -4,5 h 11 l 9,2 4,-3 -4,-5 h 8 l 7,-3 7,-6 12,1 5,-3 16,-1 -2,-6 15,-5 11,-1 5,-6 9,-3 3,4 7,1 3,-4 8,-4 h 10 l 13,-5 h 12 v 5 l -7,1 -5,7 h -8 l -12,10 9,2 -3,4 2,2 7,-1 10,8 -16,1 -2,4 -6,-1 -4,4 2,7 h -7 l -3,-1 -4,-1 v 7 h -16 l 3,7 h -15 v 9 l -11,-5 -4,4 -5,-3 -5,1 1,6 -10,4 -3,6 4,3 1,4 -7,3 11,3 h 11 l 2,-4 -4,-4 8,-2 3,2 8,-3 v 6 l -4,4 5,3 4,-2 -1,7 8,8 10,3 1,-8 4,-1 v -5 l -4,1 v -5 h 5 l 5,1 h 13 l 5,-5 h 10 l -9,8 1,5 9,5 v 3 l 7,3 6,-1 5,1 -1,3 h -6 l 2,3 5,4 -1,5 -5,-3 -4,2 3,5 2,6 3,3 6,2 -2,4 -7,-4 -1,7 -5,4 -7,-2 -1,-4 -7,1 -3,6 -8,-2 -1,7 h -9 l -14,5 4,6 7,-2 8,4 1,-4 h 10 l -2,6 -8,1 -1,7 -9,-6 -2,6 -4,6 -10,-1 -3,5 -6,4 -7,-2 -6,10 -7,-3 -5,2 -5,9 2,6 -5,2 -1,-4 h -6 l -4,4 -4,-3 4,-4 -2,-4 -6,2 -2,-2 h -9 l 2,12 -2,2 4,4 -3,5 -6,-2 -5,1 1,6 7,1 1,8 -8,-4 -5,3 -5,-1 1,-8 -5,-1 -3,6 -10,-1 -3,3 2,6 -5,2 -2,4 -6,1 -3,6 -3,-1 -2,-2 h -7 l -1,4 -9,4 -2,10 -9,1 -9,6 h 24 l 7,-3 -3,-3 7,-1 10,-2 3,3 6,-3 2,-5 8,2 9,4 v -5 l 19,1 14,-2 2,-5 -10,-1 4,-6 20,2 16,-6 8,5 -5,2 -1,5 9,4 v -6 l 2,-6 7,-1 8,-5 11,-2 7,7 8,-3 19,10 5,-3 26,9 5,-2 4,3 h 10 l 5,5 -1,4 h -14 l -5,-2 v 6 l -3,6 -5,-3 -2,2 -6,1 -1,-7 -3,3 1,5 -5,4 -10,1 v 3 l 7,2 1,6 5,1 4,-6 1,5 -4,4 v 4 l -5,2 -2,7 h -4 l -2,6 7,2 v 6 l -7,-1 -13,-5 -11,7 -4,5 -3,-4 -8,4 3,5 -2,4 -9,-1 -7,6 -8,5 -3,-3 3,-6 v -4 l -6,-1 -3,-10 h 13 l -5,-8 10,-3 6,-4 -2,-4 7,-3 -16,2 -4,5 -8,-2 -4,-10 -5,13 v 6 l 4,2 -1,4 -5,2 -4,6 5,3 -11,9 -9,1 -9,4 -5,-2 3,-8 -5,-4 v -6 l -17,-7 -3,-7 -26,-4 -18,1 -7,3 5,4 -2,2 h -7 l -6,7 4,3 9,-2 v 6 l 3,1 5,-2 4,-1 v 5 l 13,6 -5,3 7,7 8,2 -1,5 -7,3 5,6 -3,2 -7,-3 -4,5 1,8 -3,2 -6,8 14,1 8,8 19,1 3,8 6,2 -7,6 h -6 l 1,-4 -3,-2 -10,4 -5,-6 -3,6 -2,1 -6,-7 -7,1 1,5 -1,2 11,3 -1,5 h -11 l -5,-3 -3,3 -8,-2 v 6 l 4,3 h 12 l 1,4 -8,3 -2,5 h -11 l -2,-4 -14,4 -3,6 3,3 -5,6 -10,3 -3,7 3,4 -9,5 -11,1 -5,6 v 5 l -41,-1 -5,9 -5,3 -11,-7 -15,4 -6,-5 h -7 l -6,4 -11,-2 -6,3 -6,-2 -11,5 5,3 -1,3 -6,-1 -23,4 1,-5 -6,-2 -9,6 h -7 l -4,-4 -5,3 -11,1 -5,4 -6,1 -3,-6 3,-3 -16,-7 v -8 l -8,-3 -4,4 -10,-14 h -5 l -5,-3 -6,4 -1,-7 -8,-7 -10,2 -5,-6 h -11 l -12,-7 -4,3 v 6 h 13 l 6,5 14,6 -1,4 5,5 11,2 1,7 12,6 -1,5 10,6 10,-1 11,9 5,2 -4,3 1,4 8,2 1,-4 2,2 8,-2 -1,7 9,5 6,2 -4,5 8,4 8,-2 -3,-9 11,2 3,3 h 6 l 3,-3 2,5 10,3 4,-3 2,1 5,-2 -2,-4 -8,1 -1,-4 5,-2 6,2 h 5 v -6 l 6,-3 10,4 5,-3 h 9 l 2,7 10,-1 1,5 16,4 5,-7 2,2 v 5 l 5,3 9,-1 2,-5 10,1 5,-3 7,7 h 12 l 8,-1 3,-6 -6,-2 2,-5 8,-2 5,-8 6,5 -2,5 4,3 5,-6 -2,-7 8,-2 4,-8 h 6 l 6,4 19,-8 v -5 l 2,-4 7,-1 2,-3 6,-4 6,4 3,5 7,-4 9,4 v -8 l 4,-2 -1,-4 2,-5 8,-3 7,-5 2,4 7,2 1,-5 -3,-4 13,-6 v -4 l 15,-6 v -8 h 9 l 7,-7 -3,-4 6,-4 6,4 6,-10 h 12 l 6,-7 h 9 v 3 l 5,3 h -11 l -9,7 -3,8 6,1 1,2 -6,6 h 9 l -7,6 -1,4 -9,-2 -2,5 -10,5 -2,7 h 4 l 4,4 -1,5 -4,3 1,4 7,3 1,5 -8,5 -7,6 -8,-1 -5,5 3,7 -5,5 2,7 -10,3 -3,7 5,4 h 7 l 1,6 5,5 8,3 -5,6 -9,1 -3,-3 -3,3 1,4 -11,2 -5,-3 -10,1 -2,2 8,5 v 4 h 6 l 1,7 -9,4 -7,-6 -4,4 2,3 -4,6 -10,1 1,2 -3,2 -10,-7 -4,4 -9,-1 5,-5 -2,-2 -6,1 -6,-5 -5,6 3,7 -12,5 -2,-3 4,-2 v -5 l -5,-2 h -6 l -3,4 -18,1 -6,4 -8,-5 -11,1 -4,-1 v 5 l 8,5 v 5 h 3 l 2,3 -6,3 3,6 h -9 l -3,-3 h -9 l -2,8 -7,-3 -1,-2 -3,-1 -11,3 -6,-4 -3,1 v 5 l -7,-2 -14,-1 -4,-10 -3,5 -4,7 2,4 v 19 l -14,8 -3,4 2,4 v 3 l -4,4 2,4 3,2 -1,3 -2,-2 -5,1 -3,7 -6,-1 -1,-3 -3,-1 -2,8 -8,3 -5,4 6,9 -13,1 -2,3 v 7 l -4,5 h -8 l -3,3 6,1 5,-1 6,3 8,-4 1,-5 h 3 l 3,1 7,-1 3,-7 8,-2 8,1 9,-9 -1,9 -8,3 1,8 -5,5 h -8 l -5,9 5,6 h -5 l -3,4 1,5 -3,1 v 3 l 3,1 v 7 h -9 v 5 l -2,5 h -6 l -4,1 -1,6 h -7 l -3,-1 -5,3 2,3 1,6 -4,2 -6,1 v 3 l 5,1 -2,8 v 5 l -3,2 -1,7 h -13 l -2,9 h -7 l -6,5 -6,2 1,4 3,3 -1,2 -5,-1 -3,4 -6,-1 -5,5 h -9 l 1,-3 5,-1 -2,-4 3,-4 h 6 v -6 l 5,-4 8,-5 -1,-4 2,-3 -10,8 -4,-2 -4,2 v 6 l -5,3 -8,-1 -3,2 h -3 l -3,-4 -4,1 -1,5 -3,3 h -10 l -5,-3 1,-4 -2,-3 -5,2 -1,3 -5,-1 1,-6 -5,-2 -4,4 v 3 l -4,6 4,8 -4,4 -9,3 -2,4 -4,1 -4,7 14,-1 v -5 h 10 l 3,2 h 6 l 2,-3 6,-3 1,5 -3,2 -2,4 -4,3 3,9 -5,2 h -5 l -6,5 4,5 4,-1 3,1 -2,3 -1,4 9,6 7,-5 5,5 5,-1 2,8 -3,4 5,5 5,-2 -4,-16 4,-4 5,-3 2,-4 7,1 3,2 6,1 6,-4 6,1 5,-3 7,-1 4,2 2,-3 4,-3 6,-1 5,3 2,3 4,1 2,1 -1,5 2,-5 v -8 l -2,-3 5,-4 4,1 4,-2 7,1 2,-4 6,-3 16,1 7,1 2,-2 2,5 h 12 l 3,-3 h 9 v -5 l -3,-1 -4,-4 7,-3 3,2 11,-7 11,1 1,3 -4,4 -6,1 -4,5 v 5 l -4,1 -1,5 1,3 h -8 l -3,3 2,5 -6,5 4,2 5,-2 5,-6 9,3 v -3 h 5 l 2,4 -3,1 2,5 6,4 3,-2 -1,-6 6,-5 v -7 l 9,1 2,-2 h 4 l 3,3 4,-1 1,-3 h 2 l 5,5 4,-2 v -3 l 6,-7 -1,-7 11,-1 2,3 6,1 5,-3 h 6 l 4,-3 1,-4 5,-3 6,-6 5,1 3,-3 1,-5 h 6 l 5,-7 2,-7 3,-3 h 5 v -4 l 2,-4 5,-1 v -16 l 6,-2 -3,-6 -1,-8 -3,-1 -1,-5 2,-2 3,-4 v -5 l -5,-1 v -3 l 3,-2 v -6 l -7,2 -1,-6 -6,-1 v -5 l -7,-2 v -5 l 6,3 5,-1 6,4 3,7 h 5 l 2,3 v 4 l 4,1 v 8 l 3,2 2,4 4,-2 4,1 -3,7 v 9 l 2,7 11,3 -2,5 -5,3 -1,7 -5,4 -12,18 -1,6 -8,2 -6,6 v 5 h -6 l -3,7 6,5 -2,2 h -3 l -5,3 -2,6 -11,2 -1,8 h 4 l 3,3 v 3 l 2,3 1,7 -5,1 -2,1 v 6 l -4,4 1,6 5,4 -10,2 -3,4 -9,1 -6,1 -7,5 -2,1 v 2 l 3,1 4,2 v 3 l 3,3 6,4 -2,5 8,4 -2,7 -6,6 4,1 8,-1 4,-4 3,-7 9,-4 3,-5 7,4 4,6 h 7 v 3 l -3,3 9,6 h 7 5 l 5,2 h 13 l 4,-2 9,8 7,-1 3,2 2,8 -3,2 -3,-1 -4,2 -6,1 v 4 l -3,2 -5,-1 -8,3 -5,3 3,6 h 7 v 3 l -5,4 v 7 l -3,5 h -5 l -1,4 7,3 v 2 l 6,3 v 4 l 8,2 -1,6 h -3 l -4,3 1,7 -23,-1 4,5 -21,2 -4,-5 -11,-2 1,4 12,5 -3,3 3,3 h 9 v 6 l -11,1 -4,-2 h -9 l -6,3 -7,-3 v -2 l -2,-2 h -8 l -1,-3 -6,-1 -5,2 -9,-2 5,6 6,1 6,3 3,6 -1,8 5,4 -1,7 7,2 -1,5 -4,5 1,10 -2,6 -6,3 -1,-5 5,-9 -1,-7 -5,3 -1,5 -3,4 2,4 3,17 -3,6 -5,1 v 3 l 5,2 -2,5 2,4 -6,1 -7,7 3,4 v 5 h -16 l -7,7 -11,-2 -8,-1 -7,4 h -10 l -4,2 5,5 v 5 l -4,2 -15,-1 -5,-5 -23,2 -1,4 -4,3 -6,-1 -2,6 10,5 h 10 l 6,2 11,-1 v 4 l -8,7 -2,9 -3,-1 -5,2 -4,-2 -11,8 2,9 4,-1 5,2 3,6 10,1 9,-3 5,-6 8,1 5,-5 6,2 -2,3 1,2 h 10 l 3,-4 h 4 l 3,3 7,1 2,3 -9,8 1,5 3,1 6,5 10,3 -7,5 v 4 l 3,2 -1,4 3,3 7,2 4,-5 5,4 16,-1 4,-2 4,4 7,-3 -1,-3 -12,-1 v -6 h -5 l -2,-3 -7,1 -5,-5 3,-3 v -4 l 8,-7 4,-13 10,1 v -6 h 5 l 7,8 8,2 -1,4 -7,4 8,7 11,6 5,-2 7,9 -2,3 8,4 6,-2 10,4 1,7 h 9 l 6,-1 8,7 8,1 -6,-7 3,-9 8,-7 3,3 10,-1 9,-6 1,-12 h 7 l 2,5 12,-1 2,-3 4,3 2,7 9,1 6,-4 11,4 4,-2 7,2 -5,7 -6,-1 -1,3 -4,6 -5,9 -5,2 -3,-4 -4,13 -9,3 -3,7 -3,-4 3,-7 -6,1 -3,9 2,5 -1,2 -6,1 -7,-1 -3,5 -5,2 -1,5 h -7 l -5,12 h -6 l -19,13 -2,1 -1,-3 -8,2 v 7 h -6 l -5,-1 -6,4 -7,-2 v 5 l 4,2 5,-1 7,2 4,4 7,2 -3,4 -21,1 1,8 1,5 h -4 l -5,7 -5,1 v 5 l 5,2 1,6 -6,4 v 7 h 4 l 3,3 7,1 1,7 h 9 l -3,5 h -7 l -6,11 -8,-1 -5,5 -9,-5 -5,3 h -9 l -1,4 7,2 -1,4 -11,-2 -3,4 -15,-3 -4,-2 -3,2 -6,2 -7,-4 -11,2 -8,4 h -5 v -4 l 5,-2 5,-1 3,-4 10,-3 5,-4 -4,-11 -15,-1 1,-4 -4,-4 h -9 v 5 l -10,-2 -1,-3 -5,-2 -9,-9 -5,1 -1,-4 -8,-2 -11,5 v 3 l -6,2 -3,-5 -5,3 -2,-6 -6,-1 -1,5 -6,6 -7,-4 -7,5 -7,-1 v -6 l -4,-2 -12,2 -2,-3 -8,-2 -1,-7 -2,-2 -9,10 h -7 l -9,3 -2,-5 -3,-3 -5,3 -5,-2 v -4 h -3 l -3,-4 -7,-1 -4,-12 6,-16 -7,-2 v -7 h -4 l -4,-3 -3,1 -3,-3 v -8 l -4,-2 v -5 l 4,-4 1,-5 -7,4 v 4 l -8,8 h -3 l -3,4 6,1 -2,8 -4,1 -3,4 4,4 1,10 -3,3 -2,7 h -9 l -4,8 -27,9 -3,-4 -9,3 -5,-1 3,-7 -8,1 -3,-2 -5,2 -10,-3 -5,4 h -10 l -5,3 -4,-7 -5,1 -2,-2 h -5 l -1,-4 -7,-2 -8,6 h -8 l -8,3 v 4 l -8,7 -13,-1 8,5 6,-1 3,5 9,5 v 13 l 3,3 v 4 l -7,3 1,6 -10,2 -5,3 3,3 v 7 l -6,-1 -8,3 -7,5 h -5 l -5,5 -1,5 7,3 1,8 4,3 h 3 l 8,4 -5,3 -19,-3 -3,2 h -6 l -2,7 -7,-2 -3,9 6,4 v 5 l -3,-1 -2,4 5,6 v 5 l -4,-1 -1,7 -8,7 -9,-1 -3,4 -3,5 -7,-4 -8,5 2,8 -2,8 -8,2 -7,8 14,-5 9,-1 9,-5 h 13 l 9,-3 4,3 -2,6 2,3 9,2 v 3 l 2,1 3,-3 4,-2 11,-2 4,-4 8,-1 2,5 4,3 13,-1 7,6 7,1 -5,3 v 6 l 4,3 6,1 6,-4 2,-7 12,1 3,-4 5,3 1,2 11,1 1,-4 11,5 h 10 l 7,-4 3,-7 9,2 5,-1 2,3 -3,5 10,5 h 6 l 8,4 1,5 14,2 1,4 7,5 8,4 -1,7 6,5 -1,-12 3,-4 h 7 l 4,-2 5,2 5,1 4,-7 5,3 -1,7 6,3 -1,7 -4,1 2,4 9,3 4,8 7,2 2,4 h -5 l -2,1 6,2 4,-1 2,-7 15,1 3,1 v -3 l 4,-1 3,2 -1,4 -4,-1 -2,2 2,4 12,1 v -4 l 4,-3 11,5 10,2 7,-1 5,-9 5,1 5,-4 h 8 l 8,4 6,-7 h 4 l -1,5 6,6 -5,4 v 3 l 6,3 -1,6 11,5 5,-3 15,5 5,-1 v 4 l 7,3 2,-2 4,3 -1,5 12,-3 -1,-2 5,-6 7,1 4,-4 7,-2 9,5 6,-6 h 6 l 4,-3 4,-1 3,-5 5,3 5,-5 -2,-4 7,-3 3,3 6,-1 3,-7 7,-2 8,1 v -15 l 6,-2 v -3 l 6,-5 10,2 10,-7 1,5 h 7 l 3,-7 -2,-5 6,-3 10,-4 4,-7 1,20 -2,7 v 7 l -5,-1 -5,7 -1,5 -5,5 2,4 -7,8 h 5 l 5,-3 5,-4 5,-7 8,-2 4,-4 -3,-4 3,-2 2,-6 8,-4 v -3 l 4,-5 1,-3 2,-1 2,3 3,-1 v -5 l -6,-5 2,-3 h 4 l 8,-8 9,1 -1,5 -8,5 -2,9 5,3 2,3 -5,8 1,4 h -6 l -2,2 v 5 h -3 l -1,4 4,2 -3,3 1,9 -4,4 -6,2 v 9 l -7,6 v 3 l -3,3 7,1 6,-6 3,-3 4,-5 8,-2 1,-5 7,-1 6,-7 1,-12 4,-2 4,1 -2,2 -2,2 h 7 v -2 l 5,-5 6,-4 -1,4 v 4 l -3,5 3,4 -12,5 2,7 h -6 l -4,6 -1,6 -7,9 4,2 5,-3 1,-7 3,-3 6,-1 8,-3 5,-7 -1,-2 1,-4 10,-2 1,-4 2,-3 8,-2 3,-6 h 5 l 3,1 -4,3 -2,4 -8,7 -1,5 -5,1 -2,5 2,3 4,12 -10,3 -4,-1 -5,6 2,5 v 7 l -8,4 v 6 l -6,3 -3,-2 -6,4 3,5 -4,4 h 6 l 1,-4 5,-1 5,-5 1,7 -6,3 -1,4 -5,5 2,3 -1,4 -13,4 -6,8 -5,-4 -4,8 -6,6 -4,1 -2,3 h -11 v -3 h -8 l -9,9 1,6 -11,2 -2,8 -3,7 -8,1 -7,5 6,1 15,-7 2,-4 17,-1 7,-4 7,2 7,-5 2,-4 1,9 -5,4 h -7 -11 l -1,3 -2,4 h -8 l -4,2 v 6 l -3,2 -9,2 -2,6 h -10 l -4,-4 -5,4 -11,-1 -3,3 -12,-2 -6,8 -15,-1 -14,2 4,4 11,2 4,9 -3,7 2,3 -3,2 h -12 l -7,4 -5,-2 3,-3 h -4 l -4,4 h -7 l -13,9 h -9 l -3,4 -10,6 7,6 -1,5 v 11 h -6 l -8,8 h -10 l -1,-3 -9,-1 -5,-4 h -8 l -8,4 -2,-3 h -9 l -8,5 1,3 -7,4 v -6 l -7,-2 -10,1 -6,-7 -11,-5 2,-4 -1,-4 h -4 l 1,5 -4,3 -7,1 -6,5 -4,1 -3,-4 -5,6 -7,5 3,4 -9,2 -6,-3 h -13 l -7,-3 -7,9 -4,-5 h -6 l -4,-7 5,-1 2,-7 v -10 l 10,-5 1,-4 -3,-2 -2,-5 4,-5 h -3 l -4,4 -1,5 -8,4 -7,-1 -4,6 -13,5 -8,-2 -6,6 -3,-2 4,-5 3,-7 -8,2 -8,-8 2,-5 -5,-2 -2,5 1,8 -7,4 -1,5 -6,2 -5,-1 -5,3 -3,-5 -5,4 -5,-3 -1,-5 -8,-1 -3,-2 -5,-1 -4,-4 h -3 v -6 l -3,-1 -6,-1 -6,-6 -5,1 -2,-4 -5,-1 -4,3 h -6 l -3,-3 -5,2 2,5 h -6 l -5,3 h -3 l -3,-3 h -5 l -6,4 -9,1 -2,-5 -7,-1 -2,7 v 6 l -6,1 3,8 -5,4 -1,5 -3,4 v 6 l -3,-3 -6,-1 -10,7 -7,-1 v 4 l -13,7 -3,-3 -11,4 1,4 -6,-1 v -6 l -4,-2 -3,-6 -7,1 -5,-1 -1,-5 -10,-7 -5,1 -6,-1 2,-5 -6,-5 -12,2 -6,-5 -18,1 v -7 l -6,-6 1,-4 -4,-3 -1,11 3,5 v 4 l 6,4 2,5 h 6 l -2,4 -14,3 -7,1 -1,3 -5,1 2,4 -12,5 -14,-3 -10,2 -7,5 -10,-1 3,-3 -22,-5 -4,4 v 4 l -3,3 -5,-2 4,-5 -4,-3 h -9 l -4,3 h -7 l 2,-7 -8,-2 -7,8 -14,1 -2,-6 -9,-6 v -3 l 3,-4 -1,-1 -13,-1 3,-8 -10,-5 -10,3 -2,3 1,3 -6,4 v 4 h -12 l -4,2 2,6 1,8 -8,2 -3,-6 h -7 l -1,3 -9,2 -2,3 -7,1 -4,5 -10,-1 h -5 l -9,4 h -13 l 5,-3 10,-3 v -5 h 5 l 6,-3 v -2 l 5,-4 -13,2 -8,4 -3,-2 -8,5 h -7 l -2,-2 -8,5 -10,-3 -6,5 -16,-6 -6,2 -1,-2 2,-5 -2,-4 -10,2 -10,7 -10,-8 -17,-2 1,-7 -5,-8 -8,-2 -4,4 v 3 l -11,1 3,-7 -1,-5 -4,-3 -1,5 -6,1 -1,-5 -5,-5 h -7 l -2,-3 6,-3 2,-7 5,-2 4,-9 -5,-9 v -6 l 4,-6 v -6 l -2,-4 v -7 l 5,-4 -1,-16 -4,-1 -4,-5 3,-2 v -5 l -5,-6 -4,6 -2,-4 -2,-9 -3,-3 5,-1 3,5 3,-1 2,-2 -2,-2 v -6 l 6,-2 6,-7 h 6 l 5,-14 h 4 l -1,-4 5,-5 -2,-4 v -2 h 4 l 8,-5 v -6 l 5,-14 -11,15 -11,2 -1,5 -3,4 -11,1 -2,2 3,3 -6,5 h -3 l -3,5 -11,-1 -2,2 -1,5 3,9 -8,1 -2,7 -4,-1 h -16 l -12,5 v 5 l -8,-1 v -4 h -6 l -6,4 -3,9 5,3 -3,6 -8,1 -8,5 -1,3 5,2 -5,1 -5,-1 -12,2 -2,5 -8,3 v 5 h -17 l -2,4 -6,2 -3,-2 h -5 l -3,-2 -20,1 -2,-2 h -6 l 2,3 -4,4 -3,-1 -7,2 -11,2 -3,7 -6,-4 -1,-5 -6,-2 v -3 l 2,-1 v -7 l -2,-1 -2,-10 h 4 v -6 l -2,-2 -1,-5 2,-3 -2,-4 -5,1 v 3 l -5,5 -3,-6 -5,-7 v -2 l 3,-1 2,2 h 3 l 1,-5 6,1 6,-4 -7,-5 -1,3 -6,1 -2,-7 -8,-2 -5,-4 7,-3 -2,-4 -11,-8 h -5.1 -6.1 l -2.6,-4 h -2.2 -8.6 l 1.7,-3 -0.6,-4 h -5.4 l -0.9,-2 h -5.4 l -2.6,-4 3.7,-1 -0.2,-5 h -8.2 l -2.4,2 -0.1,4 -4.6,3 -3.6,-3 2.4,-3 -0.3,-7 -3.6,-3 4,-4 h 4.2 l -0.3,-4 -7.1,-2 2.5,-1 -0.3,-5 5,-2 -3.3,-8 -4,1 -2.6,-3 h -5.8 l 1.2,-3 -3.4,-5 h -6.9 l -2.7,-3 3.1,-4 17.4,-5 4.3,-4 6.7,-1 4.2,-5 -2,-7 h 6 l 3.4,-3 6.8,-2 1,4 h 6.7 l 0.9,-5 2.3,-2 h 4.4 l 3.5,-3 5.5,-1 -1,-8 -2,-3 -0.6,-5 6.6,-1 7,-6 v -11 l 4,-1 2,3 4,-3 -2,-5 -3,-5 4,-2 1,-2 -2,-2 1,-5 6,-3 -1,-4 1,-5 -4,2 -3,4 -7,1 -4,5 -1,6 -5,3 -11.9,2 -4.7,4 -3,-2 -1.4,5 0.2,8 h -4.4 l -2.3,3 1.6,2 -3.7,4 h -6.9 l -9,4 -9.4,1 -5.2,1 -11.9,-2 -0.4,7 2.2,2 -3.2,3 -7.4,-1 h -6.1 l -2.2,4 h -6.4 l -4.4,-2 0.7,-2 -1.4,-3 h -2.6 l -0.8,-1 h -6 l -0.2,-5 h 2 l 2,-3 v -5 l -2.7,3 -6.9,-1 -4.8,3 0.5,5 -4.5,2 -3.2,-3 -0.4,-4 h -4.7 l -4.6,-2 -0.8,-3 3.5,-4 4.1,1 0.8,-2 -1.9,-4 4.7,-4 h 4 l 2.9,-4 -4.1,-4 3,-3 -1.5,-4 3.3,-3 4.8,-1 3.8,-6 -1.1,-2 h -3.6 l -3.5,-6 -9.4,-1 1.1,-8 h 3.8 l 3.8,-3 -0.3,-4 h -7.5 l -3.2,-3 h -7.1 l 2.1,-4 -0.4,-6 1.8,-2 -3.1,-2 -1.2,1 -6.1,-1 -6.2,-5 0.2,-3 3.5,-1 -3.5,-4 h -5.7 l -0.7,-6 h 6.2 l 2.8,-3 v -13 l 8.1,-1 5,-5 6.8,-1 3.4,3 7.3,-3 -4.7,-6 -3.1,-1 -7.5,-5 -0.5,-6 -3.6,-2 -3.9,3 -1.8,-1 -0.1,-7 -3.5,-4 -2.9,-1 0.8,-4 h 3.8 l 1.8,-2 -1.7,-4 3.2,-3 4.8,1 4.4,-4 h 4.9 l 1.6,-7 4,-2 1.4,-2 7.9,-5 -0.6,-7 7.1,-5 4.7,1 -0.6,-4 h 4.2 l 0.9,-4 -2.3,-4 1.6,-3 -1.5,-2 3.3,-3 h 5.1 l 2,-3 0.1,-5 4.4,-4 h 6.4 l 0.4,4 h 3.6 l 4.8,7 7.2,1 4,-4 h 4.2 l 2.2,5 8.7,-1 1.1,-4 6.9,-2 1.5,3 h 5 l 2.7,-3 -1.4,-5 7.9,-4 0.6,-3 4.1,-2 -1.9,-3 -1.4,3 -3.6,-4 1.7,-2 -1,-6 -3.2,-2 h -4.9 l -2.4,-2 -3.9,-1 2.1,-3 0.1,-5 5.6,-3 2,3 2.9,-1 2.1,2 10.9,-12 3.2,1 1.5,-3 2.2,1 3,-7 -1,-5 -1,-4 4,-3 5,-1 -1,-5 h -2 l -1,-4 1,-4 h 3 l 5,-7 h 3 l 3,-3 h 3 l 3,-1 v -3 l -2,-1 -7,-1 2,-3 h 6 l 3,-1 7,-5 8,-1 6,-5 3,5 -4,6 7,3 3,7 12,2 2,7 6,1 5,-3 7,3 v 10 l 5,1 2,-3 15,3 4,12 3,-1 11,7 7,1 -3,-5 -7,-3 v -6 l -8,-3 -5,-5 1,-9 -5,-2 -5,-1 -8,-3 4,-4 -8,-3 -2,-4 -1,1 -6,-2 -1,-5 -2,-2 -1,-5 -5,-1 -3,2 -8,-2 -5,-5 -5,-9 4,1 4,-2 v -4 l -3,-1 1,-5 -4,-3 -8,1 -2,-4 -2,-2 1,-6 8,3 5,-4 10,-1 5,4 4,-1 -1,-4 4,1 5,6 7,-1 -4,-3 3,-2 h 10 l 1,-2 2,-3 4,-1 7,8 8,1 3,-3 1,2 h 8 l 2,-3 -1,-3 -4,1 -5,-2 -3,-4 8,1 1,-4 6,1 1,-4 6,5 -3,4 v 3 l 14,1 2,-2 -3,-4 v -5 l 4,3 v -6 l 16,-3 -14,-2 -4,2 -9,-1 -12,-7 h -3 l -12,-3 v -3 l -4,-6 -4,1 -7,-2 -10,1 -8,-9 4,-3 4,-3 -4,-4 2,-4 7,1 v -3 l 6,-5 10,-1 -2,-13 2,-5 -2,-4 -4,1 -2,5 -6,5 -4,6 3,3 h -11 l -3,-2 h -5 l -6,3 h -9 l -2,4 -6,1 v -3 l -6,-3 -2,-7 h -5 l -9,-3 -3,4 -6,-1 v -5 l -5,-4 -5,2 -12,-8 2,-7 7,-3 2,-4 -4,-4 -5,-1 -5,-3 -2,4 -7.3,1 -10.5,-5 -11.2,1 -8.5,-7 2.6,-4 -1.8,-6 -0.1,-7 -5.6,-6 -5.1,-1 -5.4,-8 4.3,-2 5.8,-5 -1.8,-7 12.6,-1 -7.3,-4 -1.3,-6 -4.7,1 -7.4,-5 -6.9,-1 -1.5,-5 -7.8,-1 -4.7,-4 7.1,-3 -11.1,-8 1,-8 -5.5,-3 -6.5,6 -8.6,-4 4,-3 1,-4 H 905 l 0.6,-7 3.6,1 5.3,-2 6.3,-3 h 7.8 l 0.2,-5 3.4,-3 1,-4 11.2,-3 -0.4,-6 -2.5,-5 -2.8,2 1.1,-7 -2.9,-6 h -6.5 l 0.4,-5 -3.1,-4 -7.2,-2 -5.1,2 -4.3,1 1.6,-4 -1.2,-2 h -6.1 l 0.9,-4 7.4,-4 1.8,3 9,1 4.3,3 2.9,-5 -3.1,-4 2,-13 -3.4,-1 2.1,-13 8.4,-3 3.1,-4 -6.9,-2 -4.4,-6 -10.1,-2 v -4 l 3.8,-1 0.9,-2 -2.1,-5 4.3,-4 4.3,2 6.6,-2 5.8,-4 0.7,-4 5.2,-3 h 5.8 l 1,-10 4.7,-6 h 2.2 l 3.6,-2 h 3.6 l 4.4,-5 0.6,-6 -3.4,-1 -0.8,5 -4.8,4 -7.1,-3 2.9,-3 -0.8,-7 2.2,-3 h 7.5 l 2.7,-4 -3,-7 0.3,-7 6.5,-1 -0.4,-5 -2.1,-4 -2.6,2 -3.8,-3 0.4,-4 -1.5,-4 -3.7,-1 -1,-3 -9.9,-2 -6.1,-2 4.6,-1 8,-5 9.6,-3 -5.5,-5 2,-5 7.5,2 5.6,-4 3,-5 1.5,1 6.7,1 4.2,-5 -0.2,-5 -4.9,-3 1.5,-4 -1.9,-8 8.6,-6 -0.4,-4 h -6.4 l -1.9,-3 4.5,-4 6.8,-2 4.8,-4 v -7 l 7,-6 4,3 4,-3 1,-3 -3,-3 -2,-3 -4,-2 -2,-4 h 4 l 6,-4 -3,-7 2,-2 v -4 l -5,-2 -1,-4 -6,-4 5,-1 2,-2 5,-4 -16,-1 h -9.6 l -3.1,2 -15.2,2 -5.8,-5 -3.3,3 -5.8,-1 -7,3 -0.4,4 -6.3,3 -4.3,-2 -4.1,-1 -12.1,5 -6.9,10 4,4 -1.2,3 -16.9,3 -0.6,3 -5.6,2 -6.7,-2 -7.2,3 -10.7,-1 -4.6,3 -1.3,6 -5.4,6 -4.9,-2 2.3,-7 -3,-9 2.9,-5 -0.9,-10 15.2,-9 5,-7 3.4,1 6,-3 0.5,-12 3.8,-7 -4.7,-6 -2.1,-7 8.4,-1 1.7,2 6.1,-1 2.4,-7 5.3,-1 1,-4 3.4,-4 11.2,1 2.6,-5 7.1,-4 21.5,-2 8,-7 -1.8,-7 7,-7 2.3,2 h 4.5 l 3.5,-3 h 6.1 l 5.3,-2 h 4.9 l 0.8,-6 8.3,-3 3,3 9,-4 7,-2 1,-7 8,-2 2,-6 7,-4 2,4 h 5 l 3,-6 1,-8 h 6 v -6 l 4,-1 3,-1 1,-5 -2,-2 -3,-4 -2,-3 5,-6 v -3 l 3,-6 h 3 l -1,-4 h 2 l 2,-7 -2,-5 4,-8 h 2 v 4 h 5 v -4 l 4,-2 -1,-3 4,-4 5,-1 9,1 1,-5 3,-2 -2,-3 -17,-1 -4,2 h -5 l -5,2 -9,-2 3,-2 v -4 h 6 l 1,-2 -3,-3 -6,-1 -2,-4 5,-3 -1,-7 3,-2 2,2 h 3 l 3,-1 -3,-3 2,-3 h 6 l 7,-7 9,1 1,-3 -7,-5 4,-2 2,-10 v -5 l 6,2 2,-2 7,-2 3,-4 -1,-5 4,-1 v -6 h 5 l 3,-5 -3,-1 v -2 l -4,-1 -1,-2 6,-1 3,-1 -1,-3 h -3 l -8,-9 -5,-1 -2,2 -4,-1 -2,-5 h -2 l -2,-3 1,-5 1,-8 -5,-1 -3,-4 2,-5 1,-4 4,-4 3,-3 -2,-2 v -5 l 7,-1 1,-3 10,-5 3,3 -4,2 4,6 5,1 3,4 9,-2 -4,-7 9,-6 4,-1 3,-6 11,-6 6,4 3,5 h 10 l 1,2 h 10 l 4,2 v 4 l 2,3 h 7 l 5,2 -1,7 h -6 l -2,4 4,5 -7,6 v 3 l 3,1 7,-7 11,-3 7,-6 9,-4 5,-2 v -4 l 1,-2 2,2 v 3 l 6,4 h 13 l 8,-8 4,-1 4,-4 4,3 14,-1 3,-5 h 8 v 2 l 7,1 -2,4 h -5 v 5 l 13,-6 4,1 3,-5 -3,-3 10,-9 9,4 6,-1 -1,1 2,5 -3,2 4,3 10,2 12,-3 6,-6 3,2 7,-3 v -4 l 3,-1 3,-4 3,-1 2,-6 5,-2 h 5 l 4,-1 1,-4 -4,-2 -7,-2 -5,-4 v -4 l 10,-5 1,-2 -1,-2 v -3 l 6,1 5,3 h 2 l 3,2 h 12 l 2,-2 1,-4 4,-4 6,-1 2,-4 -4,-2 -5,-1 -2,-2 5,-3 h 13 l 3,-3 13,1 2,4 h 8 l 3,-3 h 4 l 3,1 h 8 l 1,-2 -3,-7 3,-4 v -8 l -3,-2 2,-5 h 7 l 2,-2 1,-2 -5,-2 -2,-3 -8,-1 -4,5 -7,-1 -5,-4 5,-5 8,-1 1,-8 h 6 l 4,-2 v -4 l 3,-2 v -3 l -5,-4 -7,-4 3,-4 4,1 2,-3 -3,-4 -1,-3 -4,-3 h 5 l 5,-4 -1,-4 -2,-4 v -3 l -4,-2 -4,-5 -3,1 -2,-6 h -7 -4 v -5 h 6 l 3,-1 -2,-6 -13,-6 -3,-1 -4,4 h -7 l -2,-2 -3,-1 -2,-3 -5,1 -2,-2 -5,3 -9,-1 -3,4 1,4 -3,2 v 4 l 4,3 -3,2 -16,3 -5,-4 -3,3 h -5 l -4,-2 -4,1 -9,5 h -7 l -2,2 2,8 -1,3 h -7 l -2,1 h -11 l -2,-2 h -4 l -4,5 -5,1 -3,3 h -13 l -1,-2 3,-2 v -3 h 4 l 5,-4 v -3 l -4,-4 -4,1 -4,-1 v -5 l -3,-2 -3,1 -1,-2 h -8 l 2,-6 h 7 l 1,-2 5,-1 v -6 l -1,-3 -4,1 -4,-4 5,-2 v -4 l 8,-4 4,-1 2,-4 h 8 l 4,-2 8,3 6,-2 1,-5 h 4 l 3,-4 h 4 l 3,3 h 3 l 3,-4 4,-1 v -5 l 4,-4 5,-1 8,-8 6,3 5,-2 1,-3 5,-8 -3,-2 -3,2 h -4 l -4,-3 v -4 l 3,-3 3,-4 h 6 l 1,-3 -6,-4 h -11 l -4,-3 v -3 l 4,-1 3,-3 v -4 l -4,-2 v -3 l -12,-5 -2,-9 -7,-7 h -3 l -6,-3 v -6 l 3,-1 2,-2 -2,-2 -3,-9 3,1 3,-5 -4,-1 -3,-4 -3,2 -9,-3 -1,-6 -7,-3 3,-8 9,-2 -1,-5 -6,1 -7,3 -7,1 -6,-2 -3,3 -1,2 4,1 4,3 2,5 h 2 l 2,4 -2,2 -7,-4 -4,1 -5,-3 -5,-1 -7,-5 5,-2 -1,-5 -6,-4 1,-4 4,-3 -3,-1 -8,-4 -7,4 -5,-1 -7,-3 2,-4 -2,-3 4,-3 7,2 9,-4 -7,-3 -5,2 -4,-2 -7,1 -2,-4 -6,-1 -8,-4 -2,-3 -5,-1 -4,-4 h -6 l -1,-6 -3,-2 -6,-3 -5,1 -2,3 -10,1 -3,-7 -8,-1 -7,-4 1,-4 5,-1 -3,-4 -9,1 -8,3 h -6 l -2,-1 h -9 l -5,4 -6,1 -6,-2 -9,3 -3,2 -1,5 -11,3 -8,-1 -4,6 h -5 l 2,3 -11,2 -5,-3 -6,2 -7,-3 -6,2 -23,3 -11,5 -3,8 -6,1 -2,7 h -8 l -5,-3 -12,-1 -4,-2 2,-4 1,-6 -3,-2 -4,3 -5,1 -2,4 -4.3,3 h -11.2 l -4.9,4 -11,2 -10,-5 -3.6,2 -8.7,-1 -10.1,1 -0.7,-7 -4.8,-1 -1.6,4 -8.1,5 -2.6,5 -3.3,-3 -7.1,1 -0.5,-6 -11.8,-3 -8,-7 -6.8,1 -4.8,-4 8.2,-6 -0.7,-6 h -10.4 l -3.3,-3 -6.9,-5 -9.1,1 -1.7,-4 -2.6,-3 -7.9,1 -1.6,-3 5.6,-2 0.4,-5 9.4,-5 -0.4,-3 -7.7,-3 -7.3,-1 -4,-8 7.1,-4 h 4.9 l -2.8,-6 2.9,-6 2.9,5 3.5,-1 5.5,-2 5.8,3 5.7,-2 4.5,-3 1.1,-6 -3.2,-3 4,-3 0.7,-5 -5.8,-1 -1.6,-1 -4,-1 -3.8,-3 h -3 l -2.6,-5 10.2,-3 2.9,-2 -1.5,-7 6.2,-2 8.8,1 1.1,4 H 897 l 3.7,-6 h 15.6 l 4.2,-4 -5.1,-1 h -14.1 l -9,-2 h -6.1 l -5.9,-1 -5.3,-2 3.9,-3 3.9,1 4.5,3 h 4.3 l 6.9,-3 -3,-7 h 9.8 l 1.9,-4 1.5,-2 1.4,2 3.1,1 4.2,4 0.2,-4 -4.9,-4 2.8,-3 0.7,-5 4,-1 -3.3,-6 -5.4,-1 -1,-5 2.4,-4 3.3,2 h 7.6 l 5.4,-2 h 5.4 l 1.2,-3 h 2.5 l 3.6,6 5.7,-3 -2.7,-8 h 4.4 l 2.8,-4 -2.9,-5 7.1,-3 2,1 h 5.4 l 5.1,1 -0.7,3 h -1.9 l -1.2,3 6,4 -0.2,6 2.6,2 0.1,8 2.1,4 11.3,1 0.8,4 2.8,-1 3.5,2 6,-1 1,-4 8,2 -3,6 6,6 5,-1 2,3 -2,2 3,7 7,1 7,-3 h 4 l 4,2 5,1 -1,5 6,4 h 10 l 10,-4 -3,-5 1,-3 5,-1 3,-4 -3,-2 -6,-8 1,-4 -4,-2 -6,1 -7,-5 -3,-4 h -6 l -4,-9 17,-1 12,-6 11,-5 9,-8 6,1 4,-3 5,-1 5,-4 3,-1 8,-5 4,-6 -8,-1 4,-5 8,-1 v -3 l 5,-5 6,-2 1,-5 3,-4 -2,-6 3,-1 1,2 h 5 l 2,-1 12,1 3,2 10,-2 11,-7 2,4 h 8 l 5,2 2,5 4,1 4,-4 h 8 l 6,-5 4,1 3,-3 7,3 -4,2 1,4 h 8 l 3,6 h 8 l 4,-2 h 10 l 4,-2 -2,-4 5,-5 8,-1 -1,-5 5,-5 2,2 6,1 3,-3 1,3 16,-1 5,-6 -1,-7 15,3 9,-4 h 7 l -1,8 16,-1 6,-2 -1,-4 3,-8 9,-6 4,4 5,-1 8,2 2,-2 -1,-2 5,1 3,-3 7,-2 5,3 h 7 l 3,-4 8,-2 3,3 h 9 l 7,-5 h -9 l -4,-3 h -12 l -14,-4 -7,-6 -6,4 -5,-2 -10,1 -1,4 -6,3 -6,-3 h -10 l -7,-2 -9,1 -3,6 -8,-1 -5,2 1,6 -6,3 h -14 -14 l -6,5 -5,6 -4,-4 h -7 l -1,5 -12,5 -5,-2 v -4 l -4,-2 h -6 l -2,5 -14,-1 -2,3 h -4 l -1,4 h -6 l -5,-4 v -3 l -7,-5 -8,1 -4,4 -9,-3 v -10 l -7,-4 1,-10 -2,-5 -4,2 -12,2 2,8 -3,4 -5,1 -4,4 -10,1 -15,-3 -4,7 -4,-1 -8,5 -7,6 -13,2 -4,7 -9,1 -8,6 -5,-1 -2,-3 -4,-3 -18,-2 -5,-5 h -12 l -8,-3 v -11 l -5,-1 -3,-5 5,-7 -6,-2 -3,-5 -7,-1 -2,1 -7.9,-1 -2.6,-3 6.9,-7 -2.1,-2 h -4 l -3.6,-5 -6.1,1 -7.7,-2 -1.7,-7 -7.3,-4 -3,-5 0.5,-5 -9.9,-5 v -4 l 6.1,-7 4.3,-4 -0.1,-3 0.1,-3 3.8,-1 0.6,-4 -3.3,-3 -11.9,-2 -1.9,-5 -4.9,-2 -1.9,-5 -8.8,-3 1.6,-8 -0.4,-7 4.5,-2 -2,-6 2.2,-2 v -2 l -1.3,-3 h -3.1 l -4.5,-5 1,-3 -2.3,-6 h -4.7 l -0.2,-2 -2.7,-2 0.8,-6 -3.3,-4 1.8,-4 1.1,-6 6.2,-1 2.1,-6 -5.6,-3 -3.4,-5 5.4,-7 -0.7,-4 -6,1 -5.9,7 -5.9,1 -17.7,9 -0.3,5 -4,6 -5,3 -4,-1 h -8.2 l -8.7,3 -1.3,2 -1.8,1 0.1,3 1.4,1 0.3,3 -3,2 h -8 l -5,2 -7,-1 -2.5,-1 h -4.5 l -2.2,-2 1.5,-5 4.5,-3 4,-1 0.4,-5 1.9,-5 1.3,-4 -1.9,-2 v -3 l 4.4,-2 6.1,-5 1.5,-6 -1.4,-2 -2.8,1 -3.8,-3 -0.1,-4 -3.6,-2 -2.6,-2 -0.2,-4 h -3.1 -1.7 l -6,-1 0.5,-3 -2,-2 -2.7,-1 0.2,-6 4.3,-2 0.3,-4 -2.5,-2 -4.1,-4 -3.4,-1 -1.5,-3 3,-2 -0.1,-3 h -3.4 l -0.7,-3 h -2.4 l 0.6,-5 1.8,-1 -0.1,-2 -4.7,-3 4.7,-4 -0.2,-4 3.2,-3 h 4 l 1.8,-2 -0.6,-4 2,-2 5.1,2 4.2,-2 0.9,-6 H 831 l -2.2,2 h -4 l -1.6,-2 -4,-2 1.1,-6 h -2.9 l -2.5,-3 -0.1,-4 h 5.3 l 0.2,-3 4.5,-3 -1.3,-5 0.3,-5 1.8,-3 h 5.6 l 0.7,-5 4.5,-4 h 6 l 0.3,-3 4.5,-2 0.7,-4 h -3.5 l -1.4,-1 -3.4,1 -3,-5 1.7,-3 -0.8,-3 4.4,-2 0.2,-6 -2.8,-2 -3.8,-4 1.3,-2 h 13 l 2.6,-6 2.1,-1 0.5,-8 4.9,-1 1.5,-2 h 8.9 l -0.5,-4 2.6,-3 -0.2,-6 -2.4,-1 h -5.6 l -3.3,-2 -0.6,-3 1.5,-1 0.7,-4 -2,-2 -0.9,-4 -1.7,-3 0.7,-2 8.8,-6 1.4,-5 5,-1 6.5,-5 0.2,-4 -1.9,-1 -0.3,-6 6.6,-1 3,2 9.3,-1 -0.1,-4 5,-2 7.8,-1 2,-4 5.4,-5 -0.8,5 11.6,3 4.8,8 h 3.2 l 2.8,2 h 7.7 l 0.7,3 10,2 1.8,2 5.2,1 5.9,5 -2.7,4 6.4,4 0.1,4 h 11.7 l 5.2,-3 3.5,2 7.6,-2 1,-2 5,-3 v 5 l 3,3 5,1 9,-4 7,-6 -2,-4 v -5 l 3,-1 v -3 h 10 l 1,-2 -2,-3 -7,2 -5,1 -5,1 -10,2 -7,-3 -1,-3 -2,-4 3,-7 7,-4 v -6 l 5,1 1,3 12,-1 v -6 l -5,-1 -1,-5 4,-2 v -5 l 2,-4 -4,-4 -5,-2 3,-8 -6,-4 h -3 l -4,2 -7,1 -3,-2 2,-3 -1,-3 -7,-4 1.6,-6 8.4,-1 2,-4 5,1 3,-4 4,1 v 5 l 8,4 4,-2 2,3 -2,2 5,1 1,2 h 5 l 1,-2 4,1 6,-2 1,-8 4,-1 1,-4 -1,-3 v -4 l -1,-4 -5,1 -2,-7 -8,-4 -10,-1 -4,-4 h -9 l -2,-2 v -3 l -3,-1 v -4 l -4,-6 h -3 l -1,-2 h -5 l -1,-3 12,-4 1,-2 15,-3 4,-5 h 5 l 4,-5 3,-1 4,-5 -3,-2 v -4 h 4 l 3,-3 -1,-6 -2,-3 2,-3 h 8 l 4,3 6,-3 h 8 l 6,-3 v -6 l 3,-2 -1,-8 h -4 l -2,-2 2,-3 -2,-6 -4,-4 3,-4 1,-10 -7,-2 1,-3 5,-1 v -2 l 4,-3 8,-1 4,-2 v -3 l -3,-1 -5,-7 -11,-9 -2,-4 3,-3 1,-2 -4,-4 -1,-3 h -11 l -2,-3 2,-2 -1,-5 -2,-1 v -4 l -3,-2 h -4 l -2,2 h -8 l -7,1 h -8 l 2,-1 v -2 l -4,-2 -2,2 -5,-1 -3,-6 -4,-2 -6,1 -1,-2 -5,1 v -5 l 3,-3 1,-4 8,-2 9,-9 14,1 10,2 3,-5 -1,-3 2,-3 h 5 l 2,-3 1,-4 -4,-3 -4,-5 -2,-4 8,-1 2,-2 h 9 l 1,6 4,2 4,-1 4,2 1,5 h -3 l -1,4 4,3 6,1 h 6 l 3,4 v 6 l 5,2 h 5 l 5,2 5,2 5,1 3,2 v 3 l -3,3 -1,2 h 6 l 3,6 -1,4 h -2 v 3 l 2,1 2,-2 6,-2 3,-1 8,2 3,4 10,-1 2,-3 2,-1 6,4 v 3 h 2 l 2,2 4,1 6,3 -1,2 -5,1 -2,3 4,3 -3,1 h -6 l -2,4 v 4 l 2,5 h 5 l 4,6 -2,2 -3,-1 1,5 3,3 4,5 v 5 l 4,4 -5,4 h -2 l -3,2 2,3 2,3 h 4 l 5,2 4,-3 h 2 l 3,3 h 5 l 2,-4 h 3 l 2,-2 h 6 l 1,-2 h 6 l 2,4 8,-1 3,-1 v -3 l -3,-2 -1,-3 4,-2 4,1 4,-1 2,-3 3,-2 -1,-4 -2,-2 -1,-4 3,-2 h 7 l 6,-1 v -4 l 3,-3 4,1 5,-4 h 7 l 1,-5 7,-5 1,-4 3,2 6,-2 v -2 l -2,-2 2,-5 1,3 4,-1 v -8 l -3,-2 2,-8 -1,-4 -2,1 -6,-1 -2,-2 -1,-7 h -2 l -2,-4 2,-2 v -8 l -5,-3 -4,-1 v -6 l -3,-4 1,-3 -5,-3 -1,-2 3,-2 -1,-2 v -2 l 2,-1 -1,-4 -2,-1 v -2 l -2,-3 1,-2 4,1 2,4 h 2 l 4,4 1,6 3,6 5,2 v 4 l 2,4 -3,6 5,4 4,1 3,4 4,1 v 4 l 4,1 3,4 1,4 5,2 3,4 7,1 7,-4 6,-1 v 2 l 2,1 4,-3 3,-1 9,-4 1,-5 8,-3 5,5 h 9 v 3 l 2,3 h -4 -2 l 1,2 10,6 6,-1 3,3 4,1 3,-2 4,-1 v 2 l 13,-1 1,-3 h -4 l -1,-2 -3,-1 v -6 l -3,-1 -4,-1 1,-4 7,-1 1,1 6,1 3,-2 3,1 2,4 8,1 4,-4 h 6 l 3,-3 1,-3 3,-3 4,1 1,3 h 4 l 4,-5 4,-1 7,-1 4,-1 4,-2 2,-3 h -1 l -4,-2 -2,-5 2,-5 h 6 l 4,-2 -2,-4 2,-4 7,-1 2,-2 5,-3 1,-8 5,-2 5,-4 v -3 l -3,-1 h -8 l -9,-2 v -2 l 2,-4 5,-1 v -3 l -4,-2 h -7 l -4,2 -3,-4 -3,-2 -6,-1 -2,-2 -1,-2 5,-1 -1,-3 5,-3 h 5 l 2,-3 1,-4 4,-4 h 2 l 2,-2 3,1 3,-3 -2,-1 1,-3 v -3 l -2,-1 1,-2 h 5 l 3,-2 v -4 l -3,-2 v -5 l -4,-4 -5,-2 v -3 l 7,1 2,-3 3,1 3,-3 9,1 9,-3 v -4 l -4,-2 -3,2 -6,-1 -4,-3 2,-3 -1,-2 -2,-2 -2,-3 -10,1 -7,-3 v -3 l 5,-3 -2,-5 h -6 l -2,1 h -4 l -4,-4 h -6 l -8,-4 v -5 h 6 l 7,-5 -1,-3 6,-4 1,1 h 5 l 4,-2 4,-1 4,-3 15,-4 3,-2 v -6 l -2,-3 3,-4 h 13 l 4,-1 h 14 l 4,-1 1,-4 -2,-2 h -5 l -3,-5 9,-3 1,-4 2,-2 h 6 l 1,-1 18,-6 2,4 h 7 l 8,-7 2,-4 h 3 l 4,3 8,-3 v -6 l -5,-5 -1,-6 -5,-1 -6,-2 5,-4 1,-3 -2,-1 -4,1 -2,-4 h -4 l 11,-6 v -4 h 11 l 5,-6 h 6 l 5,-8 -1,-2 v -4 h 10 l 1,-3 1,-3 h 6 l 6,-3 6,-5 14,-5 7,-6 11,-12 14,-6 7,-9 -17,10 h -3 l -5,2 -7,5 -9,10 -15,7 -10,5 -5,4 h -8 l -2,2 h -6 l -6,3 -11,1 -2,3 h -5 l -3,3 -5,-1 v 4 l -3,2 h -13 l -6,-2 -3,4 -9,-1 -3,-3 -4,-2 -4,-3 h -5 l -1,4 -9,-2 -5,1 -3,-2 7,-2 -4,-3 h -9 l -2,-2 h -16 l -1,4 h -11 l -2,2 -15,-1 -1,-2 -5,-1 v -3 h 3 l 3,-2 5,-2 -3,-2 -4,-1 -1,2 -4,1 -2,-3 -4,-1 -6,-4 -7,-1 v -3 l 6,-3 v -3 l -3,-3 -7,-1 -5,2 -8,-2 1,-4 -1,-3 -4,1 -1,-2 -4,-2 4,-7 4,-3 v -3 l 2,-2 2,2 12,-2 1,-4 5,-2 3,-6 -3,-4 v -4 h 7 l 4,-4 17,-4 -1,-5 7,-3 1,-5 -10,-2 -1,-4 h 7 l 2,-4 4,-1 3,4 -4,2 6,1 1,3 7,1 -2,3 6,3 4,-2 h 6 l 4,7 18,-1 4,-4 3,-1 2,4 h 9 l 2,-3 5,-2 -8,-3 -5,1 -2,-2 -8,-1 -6,-3 -8,-1 -9,-7 h -4 l -10,-1.5 -1,-2.4 3,-3.6 -3,-2.8 -9,0.4 -5,-1.4 -14,0.9 -5,-0.4 V 986 l 6,-1.9 -4,-3.1 -11,-1.1 -13,1.1 v 3.2 l -5,2.3 -14,-1.1 -3,2.6 -13,-0.4 -4,-2 -6,0.5 v 4.7 l -5,2.4 1,10.8 6,5 -6,6 -9,3 -10,-3 -8,-1 -2,5 -5,4 -7,1 1,4 6,5 v 6 l -4,4 -2,4 2,3 -2,4 -9,6 -2,4 -8,5 -4,-2 2,-3 -1,-2 -4,-1 -1,3 -7,2 h -5 l -9,4 -2,4 3,-1 1,3 -2,3 6,8 -11,7 -1,6 -4,4 h -3 l -3,7 2,6 -4,5 h -9 l -5,6 -5,-1 -3,2 h -6 l -1,-2 3,-6 v -10 l -3,7 -5,2 -4,5 v 5 l 1,3 v 2 l -5,3 -1,5 -3,-1 -4,3 h -6 v 3 l 3,1 v 3 l -3,2 1,5 h -7 l -4,3 -11,1 -1,-3 3,-2 -1,-8 h -3 v 2 l -4,4 -1,4 -7,2 -4,3 -1,3 3,4 -5,5 -12,2 -2,-2 1,-3 1,-5 -1,-4 v -4 l 5,-2 v -5 l 5,-3 v -4 l 6,-5 -3,-3 -5,2 -6,-1 -8,-2 -5,-3 h -5 l -3,-4 2,-3 -1,-2 -9,-3 -4,1 -10,-4 5,-2 -5,-4 2,-4 5,-1 -1,-6 -5,-6 -6,1 -18,-3 -4,-2 1,-4 7,-2 3,-3 -2,-3 -19,-6 -4,-2 -7,1 -6,-1 v -4 l -3,-1 -1,-5 h -3 l -1,-2 h -3 l -5,3 -7,1 -2,-4 h -4 l -3,-2 -9,1 -7,-7 4,-3 -2,-2 -8,-3 -3,-5 h -5 v -5 l 3,-3 v -7 l -1,-2 v -2 l 4,-2 -2,-3 v -3 l -2,-4 h -3 l -2,3 h -5 l -2,-1 h -17 l -3,4 -6.7,2 -8.6,-4 -12.5,-2 -3.7,2 0.6,5 H 968 l -4.9,5 -8.8,-5 -6.3,1 -3.9,-3 -15.8,1 -4,-4 1.6,-4 4.1,-1 1.4,-3 -2.1,-3 0.4,-8.7 -3.1,-3.5 -1.9,-4.1 -6.3,-1.1 -1.2,-2 3.3,-3.1 v -2.3 l -3.5,-1.8 -8.9,0.7 -2.8,-2.4 -2.6,0.1 -5.2,-2.9 -6.8,2.1 -1.3,5.6 -8.1,-0.3 -0.6,-4.9 -1.9,-2.5 -12.5,0.4 0.1,-4.4 -2.3,-2.5 -3.5,-0.2 -2.6,-1.9 -3.5,0.2 -2,-1.7 2.1,-2.8 -0.1,-11.8 -4.7,-3 -2.9,-4.9 0.8,-6.7 h 4.3 l 8.3,-1.4 5.6,-3.6 0.3,-3.7 4.3,-5 6.3,2.1 4.9,-1.6 -0.6,-3.1 2.1,-2.8 -0.3,-3.9 -3.9,-1.1 -1.5,-3.1 -5.4,-5 1.7,-2.6 0.3,-5.6 -4.2,-2.5 -0.9,-2.9 -8,-1.2 -2.5,-3.3 -4.6,-0.6 -3,-4 v -4.4 l 2.7,0.7 2,-2.1 3.8,-0.9 9.3,-7.1 8,-2.6 2.9,-3.5 5.8,3.2 4,-2.6 3.7,-1.1 4.2,-3.2 -2.1,-6.2 4.6,-6.3 3.7,0.4 4,-2.1 -2.8,-10.1 -4.9,-5.5 -2.9,0.8 -7.5,-3.3 -0.1,-4.7 4.5,-3.6 3.8,0.7 4,-5 -0.3,-4 -5.5,-6.9 -3.9,-8.8 -4.4,-1.7 0.1,-7.4 7.5,0.5 -3.1,-5.5 -0.1,-7.3 -5.4,0.5 -8.8,-2.7 0.1,-5.8 -2.8,-1.1 -0.1,-4.2 -4.1,-2.3 1.5,-2.9 -3.2,-2.8 6.2,-5.4 h 4 l 3.1,-3 7.3,-2.9 3.9,-4 1.2,-11.8 2.8,-1.8 1.2,-6.2 9.8,-4.5 3.3,-5.8 0.2,-4.7 6.6,-3.8 12.4,-0.4 6.9,1.8 4.6,-2.5 -0.4,-3.7 3.3,-1.5 0.7,-5.9 6.9,-4 1.8,-2.5 -3.6,-2.1 -3.3,-4.7 -14.3,-0.8 -4.5,-7.5 2.1,-3.2 5.8,0.7 1.1,-5.4 6.3,-4.2 5.3,0.9 6,-1.6 3.6,0.5 0.7,2.9 -2.7,3.1 7.1,4.5 7.8,-0.5 4.5,-3.2 3.9,2.9 10.8,0.8 10.5,-2.9 4,-2.9 v -7.6 l -9.1,-5.4 -0.3,-6.2 3.2,-2.7 13.2,-0.2 2,-1.9 6,-1.1 v -2.8 l 5,-3.7 1,-6.6 -2,-5.8 -10,-2.4 -4,7.2 -6,-0.1 -2,3.3 -6,0.7 -5,-2.1 -13.8,-2.8 -5.1,-5.9 -2.6,-8.3 -13.4,-2.9 -10.4,-5.2 -6.1,-4.7 -2.7,4.9 -19.5,-1.8 -5,3.8 -1.5,3.4 6.6,4.4 2,8.3 -1.5,7.2 -5.4,-1.2 -5.5,0.5 -5.6,-6.8 -9.4,-0.2 -2.2,4.1 -6.9,1.1 -3,2.5 0.3,4.4 -1.7,2.8 0.8,4.5 -4.1,2.5 -3.2,3.6 -5.4,-0.5 -6.2,-5.6 -14.2,0.2 -5.8,-9.1 -8.3,-2.2 -10.7,-5.1 h -10.4 l -13.1,0.6 -3.1,1.7 -3.5,-3.9 -3.9,-2.7 3.3,-1.4 2,-4.5 17.3,-8.6 15.9,1.6 -1,-15 -4.5,-4.5 -3.5,1.1 -2.8,-1.3 -3.4,2.8 -7.5,-2.6 h -7 l -6.8,2.1 -1.6,3 -9,-0.6 -1.1,-3.6 -3.6,-2.5 -1.2,-2.8 -3.4,-1.8 -4.7,-0.7 -2.4,-5.5 -7.6,1 -12.5,0.7 -4.4,2.9 -7,-1.3 -6.9,0.6 -2.2,-2.4 -11,0.2 -1.6,1.9 -8,-0.8 -4.2,-9.4 2.5,-4 3.1,-3.7 -4.6,-5.8 -2.1,-4.6 2.6,-3 4.6,-1 1.8,2.2 4.3,1.7 4.3,-3.1 0.4,-2.5 -2.9,-1.6 0.3,-3.2 8.2,-1.7 3.2,-4.8 1.7,-6.1 5.9,-4 h 4.4 l 12.3,-4.4 10.1,0.4 7.9,5 5.4,0.1 4.9,-4.9 4.7,-2.4 8.9,-0.4 3,-4.3 6.9,-1.1 3.1,-2.9 12.2,-4.7 5.4,-3 -3.1,-6.7 -0.6,-7.5 4.4,-2 -1.1,-7.2 -5.1,-1.9 -3,7.5 1.9,7.4 -1.1,4.6 -6.5,1.1 -9.4,-6.6 -4.3,2 0.9,8 -3.1,6.1 -3.8,-1 -5.7,0.6 -1.5,-3.5 -7.9,-0.6 -3.2,-3.2 -4.8,-0.7 -1.9,-3.6 4.5,-3.7 4.9,-2.4 1.1,-1.8 -3.5,-2.7 1.2,-4.6 11.4,-5.5 2.6,-8 3.3,-0.9 1.1,-2.7 -2.3,-5.3 -0.2,-3.3 2.8,-1.9 -0.3,-4.3 -4.4,-1.1 -4.7,2.9 -9,0.4 -7.3,-4 -2.6,-1.1 -4.4,-3.6 -4,1.5 -12.3,3.2 -5.6,-0.4 -2.7,2.9 -3.8,-0.3 -0.8,-3.7 -4.4,-2.8 -6.1,0.3 -9.3,-0.3 -9.3,5.2 -11.4,0.3 -3.7,-1.8 1.9,-9.7 -2,-3.9 -1.1,-4.4 3.5,-5.1 -0.1,-6 -2.5,-7.3 -10.5,-14.7 -5.8,-2.7 -6.3,-5 -7.8,-0.8 -2.5,-2 -2.5,-0.3 -8.8,-4.2 0.2,-2.7 6.2,-1.2 0.8,-2.2 -2.7,-3.3 -2.8,-5.6 -5,0.6 -3.9,2.9 1.9,5.4 -5.3,1.5 -3.6,-3.7 -0.1,-6.2 1.9,-4.1 -6.9,-4.6 -6,-1.2 -1.2,-6.1 4.6,-3.2 -0.8,-3.6 3,-2.3 4.6,1.1 9.4,-8 1,-4.5 -1.9,-2.6 -2.8,-10.4 2.1,-4.9 3.9,-0.4 6.5,5.4 6.1,2.6 4.2,-2.1 -1,-5.4 6.1,-0.7 1.6,-4.9 4.4,-4.2 5.4,2 0.3,3.4 7.5,-1.9 19.4,-1.5 9.6,-4.4 1.5,4.3 2.9,0.8 0.9,2.3 -2.3,2.4 6.6,1.9 0.4,2.2 -3.4,1.6 1.7,5.7 -4.1,1.4 -1.8,3.5 4.5,1 6.3,-1.8 0.3,3.7 3.1,6.4 2.5,-3.4 4.2,-2 1.9,-3.5 -2.8,-3 1.5,-3.8 5.5,-2 7,-5.2 -0.7,-3.8 -5.2,-1.6 -0.2,-5.7 -4,-3.5 -3.5,-0.3 -0.3,-2.7 -8.4,-11.8 1.3,-2.7 8.5,-6.4 4.7,-5.6 7.2,-1.7 8.2,-4.9 0.5,-3.3 -3,-1.3 -1.1,-10.4 -6.3,-11.9 -7.5,-8 -2.3,-8.9 1.4,-7.2 3.2,-4.8 4.4,-2.7 v -4.4 l -2.4,-3.7 h -4.7 l -3.9,0.9 -4.1,-0.5 -0.6,-4.3 0.2,-8.1 -1.6,-1.7 -4.9,0.8 h -5.9 l -1,1.9 0.3,6.7 -5,2 0.6,7.9 -2,2.4 -7.6,0.2 -8.5,-1 -7.7,0.2 -4.1,-2.7 -5.5,0.3 -2.1,-1.4 -0.5,-3.6 -2.6,-2 -5.5,-0.4 -2.1,2.7 -3.4,-2 -4.6,0.1 -4.4,-2.7 h -2.5 l -2.8,-1.7 0.3,-3 -3.5,-5.7 -3.3,-1.8 -2.5,-3 -0.1,-4.9 -2.2,-2.1 -5.2,0.6 -3.5,-1.2 -2.5,0.4 v 2.7 l -2.5,3.4 0.5,6.9 -2.6,2 -0.6,3.2 -12.5,-0.7 -10.5,-12.4 -1.5,-6.2 -3,-3.1 -11.4,0.9 -3.8,-1.6 -4.4,-0.4 -7.2,2.9 -10,5.6 -3,4.5 -4.4,-4.3 -5.4,-0.4 -1.6,-2.2 -7.9,-1.8 -2,-1.7 2.8,-4.1 3.6,-0.2 0.7,-7.1 -2.6,-2.2 -0.2,-4.3 5.1,-5.2 3.7,-6.5 0.3,-7.4 -3.2,-8.2 -0.7,-6.39 3.8,-4.59 2.4,-5.67 -0.5,-4.39 -5.1,-1.56 -5.8,0.48 -3.5,-6.44 -5.4,-3.81 -0.9,-5.47 4.9,-8.4 -4.1,-4.49 -4.2,6.54 1,5.28 -4.3,8.2 -6.9,2.15 -4.3,-1.56 -8.9,0.97 -0.4,6.94 -3.4,6.73 -3.6,-2.14 -2.8,-7.86 -8.3,-6.63 -6.3,-1.66 -6.6,-4.14 -22.7,0.83 -17.1,4.69 -12.2,0.28 -0.8,-3.87 -9.4,-3.03 -7.4,-6.08 1.3,-4.14 2.5,0.55 2.2,-1.66 -3,-2.21 0.3,-2.48 8.5,-2.77 1.1,-5.8 -7.4,-6.35 3.3,-7.73 V 17.43 L 423.2,14.12 427.6,0 v -3"
           style="display:inline;fill:#999999;fill-opacity:1;stroke:#2e75d3;stroke-opacity:1" />
      </g>
    </g>
    <g
       id="rivers"
       class="river"
       style="display:inline;stroke:#2e75d3;stroke-opacity:1">
      <g
         id="g156"
         style="stroke:#2e75d3;stroke-opacity:1">
        <path
           id="path111"
           d="m 1960,387 -7,4.3 1,9.5 -5,5 -7,0.2 -7,-4.2 -10,0.4 -9,5.4 -5,6.1 -4,2.5 -10,-1 -10,3 v 4.9 l 1,5.2 -1,4 -14,5.8 -10,0.1 -5,-2.7 -13,1.3 -3,3.7 -4,6.9 -6,3.9 -10,3.6 h -6 l -2,-3.4 2,-4.7 V 443 l -2,-1.8 -11,0.2 -9,7 -3,6.9 -11,9.1 -4,7.8 -2,4.7 -7,5.3 -2,1.2 -4,0.3 -3,-1.5"
           style="stroke:#2e75d3;stroke-opacity:1" />
        <path
           id="path112"
           d="m 1885,773 -5,-6.3 -9,-3.9 -11,-3.3 -8,-9 -1,-9.7 v -9.4 l -4,-5.8 -8,-0.7 -4,2.9 h -8 l -7,-5.6 -5,-6.1 -1,-8.7 -3,-8.5 -4,-6.2 m 116,105.6 -3,-1.4 -3,-3.8 -3,-2.3 -16,0.6 -6,-2.5 -4,-7.3 -3,-8.6 -2,-20.3 -7,-12.2 -1,-8.6 3,-3.6 3,-1.7 4,-5.2 1,-6.2 -3,-6.6 -5,-7.2 -4,-9.1 -1,-4.3"
           style="stroke:#2e75d3;stroke-opacity:1" />
        <path
           id="path113"
           d="m 1882,883 -6,-2.4 -4,-4.2 -8,0.4 -7,-3.3 v -4.6 l -4,-5.6 -14,-4.6 m 158,27.8 -4,1.7 -6,-3.4 -5,2.6 -5,-2.3 -23,0.5 -11,8.4 -13,-0.4"
           style="stroke:#2e75d3;stroke-opacity:1" />
        <path
           id="path114"
           d="m 1194,791.9 -5,-1.4 -8,-8.8 -5,-6.5 -8,-5.6 -6,-2.4 -3,-4.8 m 73,75.9 3,-6.8 13,-8.4 13,-6.1 7,-10.7 4,-15.6 1,-14.3 -1,-11.9 -2,-9.2 m -179,307.7 10,-16 2,-13 9,-13 19,-14 23,-12.2 10,-10.3 9,-18.6 4,-18 v -31.2 l 2,-13.5 4,-13.9 9,-10.1 20,-14.7 9,-6.2 9,-9.4 2,-10.6 -2,-8.9 -5,-3.4 -7,-3.1 -6,-3.1 -6,-7 -1,-6.7 -5,-8.2 -6,-6 -5,-13.1 -2,-7.3 -3,-4.1 v -9.3 l 2,-10 -1,-22.7 -2,-9.5 -8,-12.7"
           style="stroke:#2e75d3;stroke-opacity:1" />
        <path
           id="path115"
           d="m 1674,1050 -2,-4 v -2 l -2,-3 -5,1 -5,-2 m 43,29 v -4 l -3,-5 -10,1 -8,-7 -6,-1 -2,-3 2,-6 5,-3 v -6 l -6,-5 -5,-2 2,-7 -2,-5 1,-3 m 99,-14.9 7,-2 17,1 3,2.9 23,4 6,8 9,5 13,1 m -50,-70.4 2,-1.2 1,-2.9 2,-1 1,-4.7 h 6 l 4,-3.3 v -7 m -84,41.6 2,-6.3 -2,-5.3 2,-3.6 7,0.1 6,2.9 10,0.6 13,2.8 7,6 6,-5.3 m -49,-35.5 -1,-10.4 2,-9.8 6,-10.5 V 877 l 2,-8.4 6,-9 1,-6.9 -3,-3.5 v -4.4 m -19,68.5 -13,-6.5 -6,1.9 -5,3.8 -9,0.9 -11,5.3 -5,8 m -76,-151.1 -5,2.3 -7,-0.1 -11,6.6 -7,0.7 -3,3.1 -1,3.8 -4,1.6 -6,0.4 -4,4.8 v 8.4 m 76,-2.3 V 789 l -7,-6.5 -8,0.1 -6,-5.5 -7,-1.5 -9,-4.8 -6,-4.9 -20,0.5 -18,3.2 -12,8.6 -7,1.6 m -33,-107.3 -3,-3.3 -5,-1.1 -3,-1.9 -9,3.5 -7,0.5 -9,-1.7 -6,-0.6 m 175,94.8 -4,-5.4 -11,-7.6 -6,-1.9 -7,0.3 -3,-2.3 -3,-1 1,-10.8 -9,-5.8 -12,-11 -5,-0.6 -8,-5 -18,-1 -9,3.6 -3,2.6 -7,-0.3 -10,-5.3 -6,-5.2 v -5.1 l -3,-1.7 -4,-1.8 -5,-8.3 -2,-11.3 1,-5.3 3,-4.3 V 659 l 1,-3.9 5,-3.9 v -7.8 l -6,-10.9 -7,-7.7 -3,-4.6 v -4.7 m 65,-77.4 -3,-9.1 -3,-3 -4,1.5 -6,-0.5 -3,-2.8 1,-11.3 -9,-8 -6,-0.4 -6,3.5 -7,-1.5 -9,2.4 -4,7 -3,6.9 -5,5.4 -3,3.6 -3,1.4 m 58,-79.4 1,9.8 3,9.4 8,8.7 6,12 2,12.1 -6,9.7 3,8.4 v 8.5 l -2,5.7 v 14.3 l 7,9.7 8,3.8 10,0.6 8,15.4 1,19 -2,5 1,11.1 8,11.5 10,7.9 8,4 6,1.2 7,3.1 5,8.2 1,12.6 4,11.2 7,8.4 10,9 10,5.1 4,7.5 1,13.9 -4,9 -9,8.7 -9,1.9 -6,-1.9 -7,0.8 -6,3.9 v 11.2 l 2,8.5 v 4.2 l 4,11.9 -2,12.5 -2,13.6 3,11 1,13 9,7.7 7,9.1 2,5.5 9,6.3 10,3.5 15,6.6 10,8.1 10,15.5 6,12.4 5,3.1 10,6.6 6,12.2 7,8.2 8,6.8 10,6.6 10,8.9 8,10.3 6,5.8 1,9.4 -2,7.6 -10,9 -6,3.9 -8,9 -8,11 -9,3 -7,5 1,8 v 8 l -10,13"
           style="stroke:#2e75d3;stroke-opacity:1" />
        <path
           id="path116"
           d="m 1958,1372 -3,1 -3,4 h -4 l -4,-3 h -4 l -2,4 h -8 l -5,4 v 6 l 4,4 1,7 -2,3 -8,4 h -6 l -4,-2 m -122,-132 -1,-6 v -4 l -7,-10 -1,-5 3,-6 v -8 m 44,49 h -7 l -18,-1 -13,-9 -6,-9 -8,-4 -8,-1 -5,-4 -4,-1 -2,-3 m 99,58 -5,-3 -11,-1 -5,-5 -9,-2 -5,1 -2,4 -7,2 -12,-1 m 62,9 -6,-4 -3,-8 -9,-8 -9,-7 -7,-3 -9,-6 -2,-6 1,-5 -4,-9 v -15 l 6,-10 3,-5 -1,-4 m 304,249 -2,-5 -14,-7 -12,-6 -14,-3 -18,-11 -15,-16 -5,-11 -5,-6 -6,-12 -12,-11 -16,-4 -7,-2 v -4 l 1,-3 -3,-3 h -11 l -13,-4 h -4 v 3 l 3,3 -1,4 h -9 l -3,-1 -4,-5 -2,-4 -4,-2 v -5 l 4,-2 3,-3 -2,-5 -7,-3 -6,-4 -2,-4 2,-5 -3,-4 -6,-3 -4,-2 -3,-3 -6,-1 -10,-2 -9,-2 h -5 l -4,3 -11,1 -14,-3 -5,-2 -5,-9 -1,-7 1,-13 2,-10 5,-9 1,-9 -2,-9 3,-9 4,-10 1,-4 2,-2 m 316,427 -10,-11 -4,-12 v -21 l -4,-9 -6,-6 -6,-18 -1,-22 3,-14 v -13 l -6,-9 -9,-6 -3,-4"
           style="stroke:#2e75d3;stroke-opacity:1" />
        <path
           id="path117"
           d="m 2092,1669 h -4 l -3,3 -9,-1 -10,-4 h -6 l -2,9 -3,3 -8,1 -7,5 -2,11 m 128,21 -11,-5 -13,-11 -12,-4 -21,-20 -17,-8 -16,-12 -12,-16 -7,-8 -15,-7 -11,-10 -11,-4"
           style="stroke:#2e75d3;stroke-opacity:1" />
        <path
           id="path118"
           d="m 2113,1946 -10,-5 -5,-2 -5,-7 -13,-5 -12,-1 -9,-7 -13,-2 -11,3 -7,6 -14,1 -11,3 -10,4 -12,2 -13,1 -12,-1 m 122,-86 -3,-7 1,-8 5,-8 1,-11 -2,-12 -3,-8 m 78,200 -5,-10 -1,-11 -14,-18 -22,-11 -11,-13 -7,-23 -13,-14 v -14 l 2,-20 -6,-12 -9,-5 -10,-3 -9,-8 -20,-2 -15,-7 -6,-7 -11,-4"
           style="stroke:#2e75d3;stroke-opacity:1" />
        <path
           id="path120"
           d="m 1615,1772 h -10 l -10,3 -10,5 -9,3 -7,-2 m -25,-69 -5,-2 1,-12 -7,-9 -12,-1 -4,-7 -7,-5 -1,-11 1,-12 -4,-4 m 85,95 -2,-3 -3,-2 -1,-4 -4,-2 m 169,179 -5,-6 -12,-3 -12,-1 -9,-7 v -12 l 2,-13 -13,-16 -17,-12 -18,-10 -6,-10 v -20 l -2,-12 -12,-8 -18,-3 -13,-7 -6,-13 -8,-4 h -9 l -2,-7 1,-4 1,-20 5,-14 11,-10 9,-9 1,-12 -1,-8 m 164,298 1,-11 5,-12 9,-10 8,-5 7,-12 1,-9 m 31,-534 -4,-6 1,-10 2,-5 -2,-7 m 3,39 2,-5 -2,-6 -9,-7 h -7 l -9,-12 -9,-5 h -7 l -8,-4 -15,-2 -9,-1 -11,-8 m 66,90 -4,-7 -9,-2 -5,-6 -1,-8 -5,-5 h -5 l -3,-3 -5,-1 -3,-5 m 32,109 -2,-5 -4,-3 -3,3 -2,4 h -6 l -3,-4 1,-8 -6,-4 -2,-8 1,-14 m 46,145 v -6 l 6,-8 1,-6 11,-7 22,-5 18,-10 13,-8 5,-13 15,-9 10,-13 2,-15 m -112,579 -2,-8 -12,-15 -9,-9 -1,-12 6,-9 -2,-15 -9,-11 -8,-3 -4,-15 v -8 l -6,-10 -8,-11 -10,-5 -10,-9 v -16 l -4,-11 1,-5 4,-10 -2,-9 -3,-7 3,-10 2,-8 6,-9 v -17 l 1,-17 -4,-14 v -20 l 9,-24 2,-22 3,-18 7,-15 15,-10 14,-14 7,-17 -1,-18 4,-16 10,-10 9,-11 1,-11 -3,-6 v -7 l -12,-6 -3,-6 -5,-3 v -7 l 4,-7 3,-3 1,-3"
           style="stroke:#2e75d3;stroke-opacity:1" />
        <path
           id="path121"
           d="m 1514,2195 h 6 l 4,3 5,-5 h 8 l 5,4 -2,4 -4,1 v 6 l -6,5 -7,2 -10,-1 -4,2 2,4 v 6 l -5,6 h -11 -9 l -3,5 2,9 7,5 v 13 l 3,8 -6,10 -8,4 m 113,-3 v 3 l 2,3 v 3 l 3,5 v 4 l -3,5 m -15,-38 -1,6 12,5 2,4 -3,2 -5,2 2,4 -6,6 h -13 l -9,-4 h -6 l -1,8 -6,7 -9,5 -13,12 m 54,-101 v 3 l 10,3 7,3 2,4 v 5 l -8,3 -2,5 -1,5 -6,6 v 7 l 5,6 h 9 l 7,-6 h 8 l 10,4 7,1 5,4 5,4 -3,7 -1,4 m -63,-103 h 4 l 2,5 h 7 l -1,6 8,2 4,-4 6,2 4,6 -3,6 2,7 -7,4 -8,-1 -9,2 -6,5 -6,-1 -3,-3 h -8 l -1,6 -4,2 h -11 l -6,3 -3,7 m -8,-68 -1,-3 -5,-1 -4,1 -7,-2 -3,-5 1,-6 1,-4 m 20,32 2,-2 v -4 l -4,-3 v -3 l 4,-4 8,-1 2,-3 -2,-7 2,-6 m 36,4 -4,-4 -4,-1 -4,-5 v -6 l 2,-3 m 20,31 v -2 l 4,-3 h 4 v -3 l -6,-4 -9,2 -3,-2 v -5 l 5,-4 h 6 l 1,-7 3,-3 m 25,42 2,2 4,2 v 4 l 4,1 3,2 h 5 l 3,-3 7,-1 7,4 v 8 l -5,4 -10,1 -5,6 m -168,-27 h 6 l 6,5 21,-1 10,2 7,5 h 4 l 6,-5 5,-3 h 5 l 5,-2 8,1 5,-2 9,1 7,4 h 6 l 6,-4 -1,-6 2,-5 6,-4 h 7 l 7,1 5,4 3,5 8,1 h 6 l 5,-3 2,-4 8,-1 4,-3 9,1 7,5 9,-2 6,-4 h 3"
           style="stroke:#2e75d3;stroke-opacity:1" />
        <path
           id="path122"
           d="m 1029,1940 10,3 4,5 1,4 6,9 11,8 h 14 l 12,3 8,4 4,8 v 6 l 3,6 6,3 m -12,-128 -1,-7 -8,-11 -5,-4 -9,-6 -5,-6 1,-9 -2,-9 m 19,77 6,-7 4,-18 5,-17 8,-13 11,-7 10,-19 1,-13 -1,-11 7,-10 7,-5 m 44,7 h -4 l -2,-3 h -3 l -4,2 h -6 l -6,-5 -1,-5 m 62,6 v 0 l 5,-1 5,-3 8,-2 5,-6 m -40,-5 v -3 l 2,-7 -4,-9 v -7 l -4,-9 v -15 l 4,-8 4,-2 m -5,152 -1,-5 2,-7 v -7 m 3,24 2,-2 v -2 h 6 l 3,-2 1,-5 6,-4 m -297.9,150 13.1,-10 10.2,-2 9.1,-12 7.5,-4 15.2,-3 9.4,-7 6.9,-10 11.5,-5 h 18 l 11,-5 13,-13 10,-14 8,-8 h 10 l 5,-4 12,-4 10,1 10,4 19,1 21,-6 h 13 l 13,-3 6,-4"
           style="stroke:#2e75d3;stroke-opacity:1" />
        <path
           id="path123"
           d="m 1195,2097 -5,-7 -8,-7 -4,-18 -9,-11 -5,-15 m 70,6 -1,-12 -5,-9 -10,-7 -4,-11 m 77,-56 2,-10 -2,-16 -3,-13 -6,-7 -4,-3 -3,-4 -9,-5 -8,-11 m 153,21 h 6 l 9,7 13,3 m -73,-58 1,-4 -3,-4 -1,-4 h -6 l -11,-8 -5,-7 2,-13 m 50,57 v 0 l 6,-3 5,-8 9,-3 10,-1 13,-6 7,-11 -1,-12 6,-6 m -263,353 2,-9 -5,-11 -4,-11 7,-13 9,-14 4,-9 -5,-5 2,-5 1,-12 10,-14 9,-6 9,-5 10,-15 6,-14 14,-16 9,-23 6,-14 10,-13 10,-9 2,-6 10,-13 12,-8 11,-5 8,-1 6,-4"
           style="stroke:#2e75d3;stroke-opacity:1" />
        <path
           id="path124"
           d="m 1337,2083 -4,-8 -1,-12 -14,-10 -6,-8 m -47,159 9,-11 5,-11 12,-9 5,-22 11,-14 18,-10 12,-15 3,-18 -3,-11 6,-20 3,-13 17,-11 5,-13"
           style="stroke:#2e75d3;stroke-opacity:1" />
        <path
           id="path125"
           d="m 2360,1515 -1,-5 5,-8 -1,-6 -8,-4 -3,-4 -8,-2 -3,-8 4,-7 2,-7 -2,-5"
           style="stroke:#2e75d3;stroke-opacity:1" />
        <path
           id="path126"
           d="m 965.8,2767 -3.3,5 -7.3,1 -4.9,-3 -4.4,2 -8.4,1 -2.4,-3 -4.9,-1 v -6 l 1,-3 -2.1,-4"
           style="stroke:#2e75d3;stroke-opacity:1" />
        <path
           id="path128"
           d="m 1018,3248 7,-4 10,-18 15,-12 19,-8 14,-3 4,-12 12,-9 4,-9 9,-4 2,-16 12,-12 16,-5"
           style="stroke:#2e75d3;stroke-opacity:1" />
        <path
           id="path129"
           d="m 2062,2562 v 3 l -4,2 -2,3 1,4 -3,4 m 14,-52 -6,2 h -9 l -5,4 v 6 l 5,5 8,2 2,7 2,4 -3,6 h -8 l -9,4 -18,1 h -7 l -5,6 -2,4 -8,3 -7,6 -1,7 m 9,-76 -5,4 -4,6 -6,3 -9,-1 -6,-4 h -2 m 22,13 -2,4 3,4 -3,4 -5,3 -2,4 m 242,-78 -8,3 -7,-1 -7,5 -1,6 -11,1 -12,-4 -14,6 h -6 l -3,4 2,3 -1,9 -12,3 h -8 l -3,-3 -9,-1 -8,4 -9,-1 h -10 l -5,3 1,3 h 4 l 3,4 -2,5 -13,-1 -15,1 -7,-2 -1,-5 -3,-4 6,-7 1,-4 -7,-1 -7,2 -2,-4 2,-4 -7,-2 -8,3 -16,4 -20,13 -2,5 v 7 l -8,9 h -8 l -8,8 -3,6 -7,3 -7,2 -3,4"
           style="stroke:#2e75d3;stroke-opacity:1" />
        <path
           id="path130"
           d="m 2135,2582 -6,3 -10,-1 -7,7 -12,7 h -8 l -6,6 -6,3 -13,-1 m 189,-82 1,3 -12,1 -9,-4 -16,3 -9,3 -3,7 -3,5 -12,-2 -7,4 1,6 -2,8 -8,1 -7,-2 -7,1 -8,2 h -5 v -4 l 4,-4 v -5 l -9,1 -4,6 -15,8 v 8 l 5,3 4,4 v 5 l -2,4 4,4 6,2 v 5 l -5,4 v 5 l -2,7"
           style="stroke:#2e75d3;stroke-opacity:1" />
        <path
           id="path131"
           d="m 2141,2672 -6,3 -4,3 2,4 2,2 -4,4 -9,-1 -2,-3 -9,1 v 5 l -4,2 -10,-2 -6,3 2,5 7,5 4,4 -1,3 -6,3 m -68,-12 -1,6 4,4 8,-1 3,-3 5,1 2,6 5,6 -1,10 m 2,-56 -5,2 -8,3 -1,7 -5,2 h -10 l -3,4 1,5 4,4 -3,4 -5,1 -5,5 -11,1 -4,4 2,8 -2,6 -10,1 -14,1 -15,-1 -6,5 v 5 l 7,5 v 5 m -103,-22 -2,4 -9,3 -6,12 -1,12 -9,8 m 50,-121 -5,1 -2,2 -14,-2 -6,2 -4,6 1,7 -4,5 -9,4 m 2,-48 -6,-3 -9,1 -2,4 v 4 l -11,7 m 67,-1 -1,-8 4,-7 9,-2 3,-7 -5,-13 2,-11 6,-5 m 6,69 -11,1 -11,-6 -6,-3 1,-6 3,-2 -4,-8 -18,2 -8,-4 -9,-2 -1,-7 5,-6 -3,-8 h -11 l -7,-5 -1,-6 m 138,68 v -8 l -9,-2 m 19,9 -10,1 -5,8 h -8 l -6,6 v 6 l -9,3 m 218,-7 v 0 l -11,-4 h -7 l -7,3 -11,-3 -13,2 -6,5 h -10 l -5,-8 -10,2 -13,-2 -3,3 h -4 -5 l 1,-4 -3,-3 -11,-3 -14,-2 -9,-7"
           style="stroke:#2e75d3;stroke-opacity:1" />
        <path
           id="path132"
           d="m 2295,2745 -5,-1 -5,4 -1,4 -9,2 -8,-2 m 46,16 -5,-5 -6,-4 4,-6 -7,-5 -4,-3 2,-4 4,-2 -2,-6 h -6 -6 l -6,-3 h -7 l -7,-5 v -7 m 110,39 -2,-5 -9,-1 -10,6 -5,3 v 4 l -7,5 -7,-1 -2,-5 h -15 l -7,5 -10,-3 -9,1 -10,6 -4,8 -12,5 -10,-1"
           style="stroke:#2e75d3;stroke-opacity:1" />
        <path
           id="path133"
           d="m 2251,2835 -4,3 v 5 h -10 l -2,4 5,5 -1,3 -9,-1 -9,5 -6,-1 v -3 l 2,-3 -2,-5 -8,1 -4,5 -2,5 -9,7 -5,7 v 5 l -4,2 -6,1 m 1,-76 -6,-2 2,-7 -4,-4 -11,1 -3,-8 -17,1 -4,-5 -8,1 -12,-7 m 100,31 v -4 l -9,-2 -1,-3 4,-6 -9,-7 -8,-5 3,-6 h 7 l 1,-6 -7,-5 2,-5 h 7 l 6,-5 v -5 m 71,86 -7,1 -4,2 -13,-2 -7,2 -6,-1 -4,-4 h -11 l -3,-2 1,-5 6,-5 -2,-4 -6,-1"
           style="stroke:#2e75d3;stroke-opacity:1" />
        <g
           id="g138"
           style="stroke:#2e75d3;stroke-opacity:1">
          <path
             id="path134"
             d="m 1817,2858 8,-8 3,-9 v -20 l 8,-12 1,-10 -4,-11 m 12,62 2,-6 6,-7 6,-22 6,-17 v -9 l 5,-6 8,-3 1,-12 m -80,141 -1,-14 7,-14 10,-9 2,-14 11,-5 h 8 l 9,-3 h 9 l 11,-7 h 9 l 6,6 8,-1 5,-6 -1,-7 4,-4 1,-15 10,-8 m -351,-259 5,-6 h 14 l 5,6 -1,5 6,6 6,-2 3,-5 1,-6 7,-3 m -11,-39 5,-3 5,4 2,-3 1,-10 h 9 l -1,9 7,7 11,-2 7,-6 m -66,11 2,-3 -1,-4 -5,-2 1,-5 6,-6 -1,-9 -13,1 -6,7 -12,3 m 24,-37 -4,-4 -4,-4 -7,2 -5,6 -7,4 -10,-2 m 30,-28 -5,-2 -6,-2 -1,-9 4,-4 m 28,48 v -4 l -3,-2 -4,2 -6,-1 -1,-7 5,-7 h 7 v -6 l -10,-4 -8,-2 -9,4 -7,4 -9,-3 -11,3 -7,-7 v -9 l 3,-8 m 83,27 7,-5 8,-2 3,3 5,6 6,-3 v -7 l -1,-6 4,-3 5,1 1,5 4,3 3,7 -3,4 -6,2 -5,7 1,6 m -28,-40 2,-5 -3,-4 -6,1 h -5 l -4,-7 1,-6 5,-3 4,4 h 5 l 1,-7 -7,-5 h -11 l -6,2 -5,-1 1,-6 7,-6 v -5 l -6,1 -6,-2 -9,2 -5,6 -3,8 -7,5 -6,-1 1,-7 9,-8 3,-8 -3,-2 -5,1 -5,-2 -10,7 h -11 m 113,1 -1,-6 4,-8 m -3,37 1,-5 -1,-18 6,-8 6,-1 5,-11 9,-2 2,-7 -4,-5 2,-6 11,-5 m -136,265 3,-6 11,-9 -2,-6 -8,-10 2,-7 6,-4 8,-2 1,-9 -10,-5 -1,-5 5,-3 9,4 8,-2 1,-13 2,-4 5,-1 4,2 7,-1 4,-7 v -24 l -4,-4 -7,-1 -4,-7 3,-7 8,-10 10,-3 5,-7 -2,-10 3,-10 3,-2 10,-4 4,-11 7,-2 8,-7 6,-2 5,-4 5,2 v 8 l 5,5 8,-1 6,-5 1,-6 m -178,128 5,-2 1,-6 9,-5 -1,-7 -8,-10 1,-9 7,-3 m -49,-14 h -5 v -10 l -4,-4 h -13 l -6,-4 -1,-9 m 387,512 -6,-11 -4,-10 -1,-9 -6,-11 -8,-11 -7,-6 -3,-13 -6,-10 -12,-6 -9,-13 -4,-17 -16,-15 -14,-7 -12,-22 -13,-16 -10,-11 -14,-10 -11,-16 v -15 l -12,-10 -11,-4 -12,-8 -19,-13 -9,-14 -5,-20 -3,-14 -17,-14 -9,-6 -8,-13 -7,-7 -12,-5 -2,-8 h -10 l -10,-3 -5,-6 -14,-5 -7,1 -6,-8 1,-7 3,-4 v -11 l -6,-7 2,-9 11,-5 v -7 l -4,-6 -6,-2 -22,-2 -9,-3 -1,-7 3,-9 8,-4 3,-5 -3,-7 -4,-4 4,-6 10,1 7,-5 v -9 l -3,-6 -1,-9 -4,-4 h -4 l -3,-5 3,-7 v -13 l -4,-7"
             style="stroke:#2e75d3;stroke-opacity:1" />
          <path
             id="path135"
             d="m 1938,3015 -6,-6 -1,-6 -20,-7 -8,-15 -32,-3 -12,-6 -29,-5 -14,-17"
             style="stroke:#2e75d3;stroke-opacity:1" />
          <path
             id="path136"
             d="m 1604,2724 -9,3 -4,5 4,6 -3,11 -5,4 -1,6 -8,-5 -10,1 -10,-3 -5,-4 m 28,-3 -8,-9 -12,-2 -6,-5 m 255,210 -10,-8 -14,-9 -15,-21 -16,-14 -17,-8 h -16 l -8,-8 -16,-22 -9,-8 -6,-9 -12,-5 h -22 l -22,-18 -6,-10 -16,-12 -3,-12 -12,-8 -4,-8 -4,-6 -1,-8 3,-8 -1,-11 -5,-5 -13,-4 -7,-7 1,-10"
             style="stroke:#2e75d3;stroke-opacity:1" />
          <path
             id="path137"
             d="m 1418,3237 h 6 l 3,-6 5,-1 h 5 v -7 l 2,-3 m -3,-64 -5,5 -1,8 -6,7 -6,6 -4,10 3,9 -7,10 -13,6 -3,6 5,8 9,5 10,1 4,5 1,12 m -21,-81 -11,5 -12,3 -13,2 h -12 l -14,6 -17,6 -19,-3 m 512,-242 -16,-1 -16,-10 -10,-1 -15,3 -18,-2 -17,-12 -21,-2 -15,-2 -10,-9 -23,-5 -18,2 -23,-3 -21,10 -5,8 -8,4 -4,7 -20,4 -9,5 -8,13 -10,10 -13,1 -3,10 2,7 -11,6 -14,10 -2,20 v 16 l -6,9 -9,6 -9,11 -1,10 4,10 -1,12 -9,7 -2,9 1,9 -1,13 -6,13 -13,8 -16,4 -12,4 -6,9 -9,9 -5,9 -2,11 -13,10 -4,7 1,8 4,6 -2,7 -6,4 -8,1 -8,5"
             style="stroke:#2e75d3;stroke-opacity:1" />
          <path
             id="path138"
             d="m 1296,3005 -5,-3 -1,-13 -6,-11 -7,-3 m 262,-16 -8,3 -20,-1 -20,4 -19,3 -17,1 -10,-5 -15,2 -12,6 -20,2 -18,1 -14,10 -11,8 -24,4 -23,10 -12,-2 -13,4 -7,7 -4,8 -14,7 -11,5 -4,11 -1,11 -5,9"
             style="stroke:#2e75d3;stroke-opacity:1" />
        </g>
        <path
           id="path139"
           d="m 1861,3101 7,-1 11,-6 6,-3 v -7 m -81,-10 h 12 l 12,-8 17,-2 11,1 m -90,107 -7,1 -6,4 -8,-4 -3,-8 -14,-4 -9,-10 v -12 m 130,255 -4,-11 2,-11 1,-13 -10,-12 -3,-16 -6,-22 -11,-7 -8,-4 -10,-18 1,-31 -5,-20 -5,-13 4,-10 1,-6 m -178,44 -8,-6 -14,-1 -22,1 h -19 l -9,-4 -10,-2 -2,-2 -13,-4 m 162,67 -7,-7 -7,-4 -7,-15 -10,-10 -18,-7 -16,-6 -17,1 -17,8 -12,11 -13,9 -24,8 -14,-1 m 439,149 -12,3 -24,-2 -25,2 -25,-7 -5,-12 -14,-8 -6,-11 -9,-8 -12,-1 -15,-13 -5,-18 -24,-19 -21,-4 -27,1 -15,-8 -23,-9 -12,-13 -3,-9 -8,-17 2,-20 -10,-16 -1,-18 -12,-10 -4,-9 1,-17 -5,-17 1,-14 9,-7 4,-12 -5,-13 v -9"
           style="stroke:#2e75d3;stroke-opacity:1" />
        <path
           id="path141"
           d="m 2266,3644 -9,-4 -8,-13 -22,-2 -19,-5"
           style="stroke:#2e75d3;stroke-opacity:1" />
        <path
           id="path142"
           d="m 2165,3529 -17,8 -9,7 -8,-3 -4,-3 -5,4 -8,-1 1,-9 -11,-2 1,-7 -9,-2 -7,8 m -26,94 -4,3 -6,-1 -4,8 -10,-5 -4,-1 1,-4 6,-7 -6,-4 -18,7 -12,15 h -14 l -4,-7 4,-6 m 213,-156 -1,14 -3,11 -13,10 -7,18 -16,11 -13,12 -7,19 -13,8"
           style="stroke:#2e75d3;stroke-opacity:1" />
        <path
           id="path143"
           d="m 2170,3839 -8,6 -5,11 1,13 -4,5 -10,2 -7,9"
           style="stroke:#2e75d3;stroke-opacity:1" />
        <path
           id="path144"
           d="m 2042,3891 5,-7 7,-4 11,-3 13,-7 5,-12 1,-12 m -66,13 -1,-7 -10,-8 -5,-4 -5,-8 -2,-11 m 31,111 8,-11 4,-10 7,-11 -3,-9 -1,-9 -6,-8 -12,-4 -4,-5 -1,-6 7,-14 v -12 l 5,-11 14,-11 4,-13"
           style="stroke:#2e75d3;stroke-opacity:1" />
        <path
           id="path145"
           d="m 1648,4184 -7,-5 -3,-8 -6,-5 1,-9 7,-11 9,-5 1,-10 m -59,61 -13,-5 -11,-14 -8,-7 m 179,22 -9,2 -12,-8 -20,-1 -16,9 -20,-2 -13,-4 h -15 l -20,5 -22,3 -11,-1 -16,1 -11,-12 -18,-10 -14,-3"
           style="stroke:#2e75d3;stroke-opacity:1" />
        <path
           id="path146"
           d="m 2303,4431 -6,-3 -3,-8 -14,-8 -23,-4 h -16 l -11,-6 -7,-18 -20,-10 h -39 l -13,-5 h -12 l -12,6 h -6 l -6,3"
           style="stroke:#2e75d3;stroke-opacity:1" />
        <path
           id="path147"
           d="m 2115,4378 -10,-3 -5,-18 -18,-12 -27,-1 -18,5 -21,5 -24,-2 -9,-1 -12,-9 h -9 l -18,-8 -15,-11 -3,-9 -6,-6 -1,-11 -13,-16 -8,-3"
           style="stroke:#2e75d3;stroke-opacity:1" />
        <path
           id="path148"
           d="m 1907,4384 -17,10 -24,8 -20,8 m 269,-32 h -12 l -11,4 -24,-3 -19,4 -7,13 -13,7 h -27 l -15,-8 h -20 l -22,-6 -14,-6 -24,1 -20,-1 -17,-7 -2,-14 -10,-8 -19,-5 -12,-13 1,-10"
           style="stroke:#2e75d3;stroke-opacity:1" />
        <path
           id="path149"
           d="m 1683,4465 -3,-8 v -8 l -14,-14 -3,-19 9,-20 -1,-14 -8,-10 -13,-11 -5,-26"
           style="stroke:#2e75d3;stroke-opacity:1" />
        <path
           id="path150"
           d="m 1368,4159 -17,-16 -24,-5 -10,-6 -4,-16 -13,-9 -14,-11 -12,-20 1,-14 m 28,233 5,-12 16,-8 8,-22 16,-18 23,-11 8,-23 -2,-16 -12,-13 3,-13 12,-11 12,-9 1,-29 10,-27 9,-15 -3,-15 -7,-7 v -15"
           style="stroke:#2e75d3;stroke-opacity:1" />
        <path
           id="path151"
           d="m 1104,4127 h 12 l 17,7 24,-4 11,3 m -131,18 4,-10 9,-4 12,4 24,-1 11,-10 7,-3 18,-14 21,-6 h 16 l 12,3 m -120,-33 7,-12 7,-8 4,-23 10,-10 17,-2 7,-12 m -77,150 11,-9 4,-19 -1,-18 12,-23 -1,-14 5,-26 -13,-18 -5,-17 5,-17"
           style="stroke:#2e75d3;stroke-opacity:1" />
        <g
           id="g155"
           style="stroke:#2e75d3;stroke-opacity:1">
          <path
             id="path152"
             d="m 1737,3518 5,-8 13,-4 1,-16 -5,-7 4,-9 m -617,457 11,3 11,-2 13,8 15,-2 19,-9 11,-15 18,-5 14,-22 8,-22 12,-12 15,-5 12,4 17,-7 7,-18 15,-8 23,-4 16,-12 22,3 24,-6 10,-19 1,-23 22,-14 13,-15 20,-1 19,-15 19,-5 6,-8 -1,-14 10,-8 1,-19 12,-15 19,-6 10,-22 20,-3 20,-15 13,-1 16,-12 16,-22 17,-7 h 18 l 15,-24 20,-14 25,-6 18,-13 7,-12 -7,-13 -9,-10 4,-8"
             style="stroke:#2e75d3;stroke-opacity:1" />
          <path
             id="path153"
             d="m 1531,3700 15,-8 21,1 h 16 l 13,-8 15,-7 4,-14 7,-4 14,3 14,-3 19,3 17,16 24,1 20,7 23,-2 7,-15 12,-5 28,2 23,-17 29,-4"
             style="stroke:#2e75d3;stroke-opacity:1" />
          <path
             id="path154"
             d="m 1674,3846 18,1 15,-23 4,-18 12,-3 m -302,-3 14,-5 9,3 15,12 36,-2 12,11 18,-1 11,-5 14,6 1,13 20,11 13,11 24,7 24,-3 21,-11 21,-1 18,7 h 21 l 8,9 4,13"
             style="stroke:#2e75d3;stroke-opacity:1" />
          <path
             id="path155"
             d="m 1284,3528 -12,-13 -12,-6 h -10 l -20,-24 -21,-5 -14,-7 -7,-17 3,-33 -9,-16 m 93,76 -4,-17 -12,-10 -12,-5 v -13 m 23,415 13,-10 2,-14 -2,-20 10,-14 13,-7 2,-16 -10,-7 -4,-16 -12,-5 -8,-16 2,-14 9,-9 -4,-11 -11,-6 -1,-23 -12,-16 2,-19 12,-18 9,-17 11,-4 4,-18 -11,-15 v -30 l -9,-21 v -24 l 4,-15 -1,-10 -7,-9 1,-31 7,-17 v -23 l -4,-4 -1,-8 -14,-21 v -12 l 7,-11"
             style="stroke:#2e75d3;stroke-opacity:1" />
        </g>
      </g>
    </g>
    <g
       id="lakes"
       class="lake"
       style="stroke:#2e75d3;stroke-opacity:1">
      <g
         id="westeros-lakes"
         style="stroke:#2e75d3;stroke-opacity:1">
        <path
           id="path1056"
           d="m 1817,367.2 v -11.9 l 4,-4.5 -1,-6.5 3,-3.3 5,-9.9 v -10.2 l 3,-1 3,2.2 -1,6.8 2,2.6 -1,3.9 -4,3.7 v 17 l -5,6.6 z"
           style="stroke:#2e75d3;stroke-opacity:1" />
        <path
           id="path1058"
           d="m 1674,426.6 -7,-1 1,-5.9 -5,-14 v -5.3 l -5,-2 V 390 l 5,-2.1 -1,-13.7 -3,-5.2 1,-11.8 5,-0.9 6,9.9 1,6.9 5,3.7 3,4.5 v 8.4 l -4,3.9 -3,9.9 2,12.1 z"
           style="stroke:#2e75d3;stroke-opacity:1" />
        <path
           id="path1060"
           d="m 1805,254.7 -6,10.5 -1,8 -9,6.9 -6,2.2 -2,4.2 1,4.1 h -9 l -2,10.5 4,4.1 -8,6.1 -13,2.5 -3,5.3 -27,3 -8,-1.9 -6,6.9 -26,2.7 -2,-5.2 4,-7.8 v -8.2 l 16,-3.9 -2,-9.1 12,-16 16,-2 17,-13 -2,-5.5 15,2.2 8,3.1 14,-6.9 4,4.1 6,-2.2 3,-5.3 z"
           style="stroke:#2e75d3;stroke-opacity:1" />
        <path
           id="path1062"
           d="m 1930,164.9 2,12.1 -1,15 -3,6.4 1,6.7 6,4.1 1,8.6 -1,1.9 -1,19.6 4,4.1 -2,7 4,2.3 v 6.9 l -6,2.9 -3,13.9 v 12.3 l -4,3.7 1,6.4 -4,4.3 -3,-1.9 6,-13.1 -1,-7.4 -8,-10.2 1,-12.9 -6,-5.1 -4,3.2 1,13.3 v 7.2 l -8,13.3 -3,0.4 -4,6.4 v 12.1 l -6,5.7 -4,-3.7 v -18.6 l 9,-8.6 2,-15.8 4,-1.6 -1,-19.7 -5,-0.8 -1,-6.2 6,-4.9 11,-3.9 2,-12.9 7,-3.9 -2,-8.2 -7,-7.6 7,-6.3 9,-25.4 z"
           style="stroke:#2e75d3;stroke-opacity:1" />
        <path
           id="path1064"
           d="m 1882,883 6,-0.4 12,1.6 12,1.7 5,5.1 13,2.6 -4,2.9 h -9 l -5,0.8 -1,-3.2 -15,-7 -11,0.4 z"
           style="stroke:#2e75d3;stroke-opacity:1" />
        <path
           id="path1066"
           d="m 1781,961 v -3.7 l 9,-3.2 -1,-4.7 5,-2.9 4,1.1 -3,3.9 1,3.8 -4,2.6 -3,3.6 z"
           style="stroke:#2e75d3;stroke-opacity:1" />
        <path
           id="path1068"
           d="m 1848,1018 5,-4 11,1 12,-6 7,2 3,7 -5,1 -6,5 h -6 l -4,-2 h -11 z"
           style="stroke:#2e75d3;stroke-opacity:1" />
        <path
           id="long-lake"
           d="m 1822,1557 3,-4 -1,-12 5,-2 v -6 l 4,-4 -5,-10 -3,-9 3,-6 -1,-4 4,-7 h -4 l 6,-8 v -5 l 5,-5 -1,-6 -3,-2 v -10 l 4,-3 -4,-6 1,-6 6,-5 1,-6 -1,-4 4,-7 v -13 -9 l 3,-3 -5,-8 -3,3 v 12 l -6,3 -3,6 2,6 -3,1 v 5 l -3,4 h -2 l -2,6 5,3 -12,12 v 4 l -6,2 1,3 h 7 l -1,5 6,5 -8,9 3,5 1,10 3,3 v 5 l -2,1 -3,-1 v 7 l 2,4 -4,3 1,6 4,2 1,7 -3,9 v 7 l 3,2 -1,8 z"
           style="stroke:#2e75d3;stroke-opacity:1" />
        <path
           id="path1072"
           d="m 2124,1471 3,4 7,2 -1,7 5,4 -1,7 4,4 v 4 l -5,-2 -3,-6 -3,-1 1,-10 -8,-4 z"
           style="stroke:#2e75d3;stroke-opacity:1" />
        <path
           id="path1074"
           d="m 1581,1733 -3,-5 -6,-3 -6,-2 -2,-6 -9,-1 -8,-4 h -3 l 7,7 7,3 7,9 6,-1 5,4 z"
           style="stroke:#2e75d3;stroke-opacity:1" />
        <path
           id="path1076"
           d="m 1207,1761 -2,6 -3,4 -1,4 -6,-1 -1,5 -3,1 -3,3 6,1 1,5 8,7 -8,3 1,6 5,3 -2,6 4,11 -1,5 3,4 3,-6 -1,-8 8,-8 2,-10 -6,-9 v -5 l 6,-7 7,-3 -4,-4 h -4 l -2,-6 -4,-3 z"
           style="stroke:#2e75d3;stroke-opacity:1" />
        <path
           id="path1078"
           d="m 1190,1885 2,-6 7,-7 -4,-8 7,-2 v -6 l 2,-3 3,1 v 4 h 1 l 1,7 6,6 -2,11 1,14 -7,3 1,9 -4,6 1,10 -3,5 -4,-10 -2,-2 -1,-8 6,-5 1,-7 -3,-4 -1,-4 -5,-1 z"
           style="stroke:#2e75d3;stroke-opacity:1" />
        <path
           id="path1080"
           d="m 1338,1919 v -1 -4 l 4,-3 -4,-15 3,-4 -1,-4 10,-2 -3,-5 1,-4 -7,-1 -2,-5 7,1 9,-10 11,-8 2,2 h 14 l 3,6 1,6 7,3 -2,5 -10,1 -3,3 9,4 -1,4 11,-1 13,5 -6,5 7,5 -5,4 -4,-1 -5,-5 -3,6 h -10 l -3,-2 -5,2 -1,5 -10,1 -4,-5 h -6 l -9,14 -6,1 z"
           style="stroke:#2e75d3;stroke-opacity:1" />
        <path
           id="path79"
           d="m 2011,2655 -3,-3 h -20 l -3,3 h -8 l -5,4 6,5 6,-1 2,-4 7,1 2,-2 14,-1 z"
           style="stroke:#2e75d3;stroke-opacity:1" />
        <path
           id="path81"
           d="m 1905,2652 8,-3 13,-2 h 17 l 10,3 -8,2 -3,4 h -7 l -2,-3 -21,1 z"
           style="stroke:#2e75d3;stroke-opacity:1" />
        <path
           id="path83"
           d="m 1860,2729 v -4 l 7,-6 9,-6 1,-4 9,-2 8,-8 5,-1 2,-3 h 5 l 2,4 12,-5 1,-5 13,-6 -4,8 -8,5 -4,4 -9,2 -4,-1 -4,5 -5,1 -6,6 -9,1 -8,6 -4,5 -6,3 z"
           style="stroke:#2e75d3;stroke-opacity:1" />
        <path
           id="path85"
           d="m 2178,2804 h 5 l 4,-4 4,2 8,-1 10,6 6,-2 2,5 9,3 -9,4 -7,-1 -10,2 -3,-5 -13,-3 -5,-2 z"
           style="stroke:#2e75d3;stroke-opacity:1" />
        <path
           id="gods-eye"
           d="m 1800,3070 -9,2 v 5 l -7,4 -6,1 -6,8 6,8 -9,11 v 6 l 9,6 -5,3 v 4 l -5,4 v 4 l -6,5 4,3 4,6 1,6 v 7 l -5,9 h 7 l 1,6 8,7 7,6 -1,6 8,3 5,6 9,4 4,-6 h 12 l 4,-4 5,-2 6,-9 -4,-4 v -5 l -2,-11 7,-4 -2,-12 3,-11 6,-1 3,-3 v -7 l 9,-7 -1,-7 -4,-3 v -8 l 5,-5 -22,-7 -1,-4 -3,-2 -31,-1 -7,-5 7,-8 z m 13,47 h 6 l 6,4 -2,5 -8,2 h -13 l -7,-1 v -4 h 6 l 3,-2 z"
           style="stroke:#2e75d3;stroke-opacity:1" />
        <path
           id="red-lake"
           d="m 1095,3589 11,-6 3,-4 -1,-4 11,-1 1,-4 h 5 l -1,7 3,4 -12,6 -4,-1 -10,5 z"
           style="stroke:#2e75d3;stroke-opacity:1" />
        <path
           id="path94"
           d="m 2132,3568 -10,4 -3,4 -5,1 -19,6 -1,4 -10,8 -5,-1 -5,6 -2,9 -7,9 -2,5 10,-4 9,-8 1,-11 h 7 l 1,-4 9,-5 6,-4 7,-1 1,-4 7,-4 h 4 l 3,-6 z"
           style="stroke:#2e75d3;stroke-opacity:1" />
      </g>
    </g>
  </g>
</svg>
